<?xml version="1.0" encoding="UTF-8" standalone="no"?>
<!DOCTYPE svg PUBLIC "-//W3C//DTD SVG 1.1//EN"
 "http://www.w3.org/Graphics/SVG/1.1/DTD/svg11.dtd">
<!-- Generated by graphviz version 2.38.0 (20140413.2041)
 -->
<!-- Title: getrich Pages: 1 -->
<svg width="142pt" height="66pt"
 viewBox="0.00 0.00 142.00 66.00" xmlns="http://www.w3.org/2000/svg" xmlns:xlink="http://www.w3.org/1999/xlink">
<g id="graph0" class="graph" transform="scale(1 1) rotate(0) translate(4 62)">
<title>getrich</title>
<polygon fill="white" stroke="none" points="-4,4 -4,-62 138,-62 138,4 -4,4"/>
<!-- Node1 -->
<g id="node1" class="node"><title>Node1</title>
<polygon fill="#bfbfbf" stroke="black" points="0,-19.5 0,-38.5 49,-38.5 49,-19.5 0,-19.5"/>
<text text-anchor="middle" x="24.5" y="-26.5" font-family="Helvetica,sans-Serif" font-size="10.00">getrich</text>
</g>
<!-- Node2 -->
<g id="node2" class="node"><title>Node2</title>
<g id="a_node2"><a xlink:href="../../da/d32/richardson_8f.html#a821db31391d34f3fcb44dd7475a65b8b" target="_top" xlink:title="bvperd">
<polygon fill="white" stroke="black" points="85,-38.5 85,-57.5 134,-57.5 134,-38.5 85,-38.5"/>
<text text-anchor="middle" x="109.5" y="-45.5" font-family="Helvetica,sans-Serif" font-size="10.00">bvperd</text>
</a>
</g>
</g>
<!-- Node1&#45;&gt;Node2 -->
<g id="edge1" class="edge"><title>Node1&#45;&gt;Node2</title>
<path fill="none" stroke="midnightblue" d="M49.0625,-34.3938C57.1231,-36.239 66.3018,-38.3402 74.9941,-40.33"/>
<polygon fill="midnightblue" stroke="midnightblue" points="74.3497,-43.7729 84.8786,-42.5927 75.9118,-36.9494 74.3497,-43.7729"/>
</g>
<!-- Node3 -->
<g id="node3" class="node"><title>Node3</title>
<g id="a_node3"><a xlink:href="../../da/d32/richardson_8f.html#a3712f9d7e6c6db1699858f4dda9dff43" target="_top" xlink:title="bulkri">
<polygon fill="white" stroke="black" points="89,-0.5 89,-19.5 130,-19.5 130,-0.5 89,-0.5"/>
<text text-anchor="middle" x="109.5" y="-7.5" font-family="Helvetica,sans-Serif" font-size="10.00">bulkri</text>
</a>
</g>
</g>
<!-- Node1&#45;&gt;Node3 -->
<g id="edge2" class="edge"><title>Node1&#45;&gt;Node3</title>
<path fill="none" stroke="midnightblue" d="M49.0625,-23.6062C58.3819,-21.4728 69.1959,-18.9973 79.0248,-16.7473"/>
<polygon fill="midnightblue" stroke="midnightblue" points="79.8403,-20.1513 88.8071,-14.508 78.2783,-13.3278 79.8403,-20.1513"/>
</g>
</g>
</svg>
