<?xml version="1.0" encoding="UTF-8" standalone="no"?>
<!DOCTYPE svg PUBLIC "-//W3C//DTD SVG 1.1//EN"
 "http://www.w3.org/Graphics/SVG/1.1/DTD/svg11.dtd">
<!-- Generated by graphviz version 2.38.0 (20140413.2041)
 -->
<!-- Title: bvperd Pages: 1 -->
<svg width="224pt" height="28pt"
 viewBox="0.00 0.00 224.00 28.00" xmlns="http://www.w3.org/2000/svg" xmlns:xlink="http://www.w3.org/1999/xlink">
<g id="graph0" class="graph" transform="scale(1 1) rotate(0) translate(4 24)">
<title>bvperd</title>
<polygon fill="white" stroke="none" points="-4,4 -4,-24 220,-24 220,4 -4,4"/>
<!-- Node1 -->
<g id="node1" class="node"><title>Node1</title>
<polygon fill="#bfbfbf" stroke="black" points="0,-0.5 0,-19.5 49,-19.5 49,-0.5 0,-0.5"/>
<text text-anchor="middle" x="24.5" y="-7.5" font-family="Helvetica,sans-Serif" font-size="10.00">bvperd</text>
</g>
<!-- Node2 -->
<g id="node2" class="node"><title>Node2</title>
<g id="a_node2"><a xlink:href="../../da/d32/richardson_8f.html#a5001fa494721f557f6e5f4087cce7e55" target="_top" xlink:title="getrich">
<polygon fill="white" stroke="black" points="85,-0.5 85,-19.5 134,-19.5 134,-0.5 85,-0.5"/>
<text text-anchor="middle" x="109.5" y="-7.5" font-family="Helvetica,sans-Serif" font-size="10.00">getrich</text>
</a>
</g>
</g>
<!-- Node1&#45;&gt;Node2 -->
<g id="edge1" class="edge"><title>Node1&#45;&gt;Node2</title>
<path fill="none" stroke="midnightblue" d="M59.2259,-10C67.8318,-10 76.9002,-10 84.8786,-10"/>
<polygon fill="midnightblue" stroke="midnightblue" points="59.0625,-6.5001 49.0625,-10 59.0624,-13.5001 59.0625,-6.5001"/>
</g>
<!-- Node3 -->
<g id="node3" class="node"><title>Node3</title>
<g id="a_node3"><a xlink:href="../../d9/d21/wocss_8f.html#aacb06ae5117e6a3992c6e252e3537c17" target="_top" xlink:title="wocss">
<polygon fill="white" stroke="black" points="170,-0.5 170,-19.5 216,-19.5 216,-0.5 170,-0.5"/>
<text text-anchor="middle" x="193" y="-7.5" font-family="Helvetica,sans-Serif" font-size="10.00">wocss</text>
</a>
</g>
</g>
<!-- Node2&#45;&gt;Node3 -->
<g id="edge2" class="edge"><title>Node2&#45;&gt;Node3</title>
<path fill="none" stroke="midnightblue" d="M144.288,-10C152.926,-10 161.995,-10 169.878,-10"/>
<polygon fill="midnightblue" stroke="midnightblue" points="144.073,-6.5001 134.073,-10 144.073,-13.5001 144.073,-6.5001"/>
</g>
</g>
</svg>
