<?xml version="1.0" encoding="UTF-8" standalone="no"?>
<!DOCTYPE svg PUBLIC "-//W3C//DTD SVG 1.1//EN"
 "http://www.w3.org/Graphics/SVG/1.1/DTD/svg11.dtd">
<!-- Generated by graphviz version 2.38.0 (20140413.2041)
 -->
<!-- Title: geosig Pages: 1 -->
<svg width="393pt" height="424pt"
 viewBox="0.00 0.00 393.00 423.61" xmlns="http://www.w3.org/2000/svg" xmlns:xlink="http://www.w3.org/1999/xlink">
<g id="graph0" class="graph" transform="scale(1 1) rotate(0) translate(4 419.615)">
<title>geosig</title>
<polygon fill="white" stroke="none" points="-4,4 -4,-419.615 389,-419.615 389,4 -4,4"/>
<!-- Node1 -->
<g id="node1" class="node"><title>Node1</title>
<polygon fill="#bfbfbf" stroke="black" points="0,-244.115 0,-263.115 48,-263.115 48,-244.115 0,-244.115"/>
<text text-anchor="middle" x="24" y="-251.115" font-family="Helvetica,sans-Serif" font-size="10.00">geosig</text>
</g>
<!-- Node2 -->
<g id="node2" class="node"><title>Node2</title>
<g id="a_node2"><a xlink:href="../../d0/da4/utils_8f.html#ae26fe353463c9a52b0d379e4d78fe899" target="_top" xlink:title="altset">
<polygon fill="white" stroke="black" points="169,-206.115 169,-225.115 211,-225.115 211,-206.115 169,-206.115"/>
<text text-anchor="middle" x="190" y="-213.115" font-family="Helvetica,sans-Serif" font-size="10.00">altset</text>
</a>
</g>
</g>
<!-- Node1&#45;&gt;Node2 -->
<g id="edge1" class="edge"><title>Node1&#45;&gt;Node2</title>
<path fill="none" stroke="midnightblue" d="M48.0533,-245.407C58.8699,-241.759 71.9952,-237.62 84,-234.615 108.905,-228.38 137.617,-223.328 158.715,-220.005"/>
<polygon fill="midnightblue" stroke="midnightblue" points="159.349,-223.448 168.701,-218.471 158.286,-216.53 159.349,-223.448"/>
</g>
<!-- Node3 -->
<g id="node3" class="node"><title>Node3</title>
<g id="a_node3"><a xlink:href="../../d5/de9/interp_8f.html#a8189136387abfbf3929561396b96a644" target="_top" xlink:title="sfctrp">
<polygon fill="white" stroke="black" points="86.5,-320.115 86.5,-339.115 129.5,-339.115 129.5,-320.115 86.5,-320.115"/>
<text text-anchor="middle" x="108" y="-327.115" font-family="Helvetica,sans-Serif" font-size="10.00">sfctrp</text>
</a>
</g>
</g>
<!-- Node1&#45;&gt;Node3 -->
<g id="edge2" class="edge"><title>Node1&#45;&gt;Node3</title>
<path fill="none" stroke="midnightblue" d="M34.3893,-263.128C45.8525,-274.639 65.9464,-294.481 84,-310.615 84.9558,-311.469 85.9418,-312.335 86.9432,-313.204"/>
<polygon fill="midnightblue" stroke="midnightblue" points="84.7762,-315.955 94.6757,-319.73 89.2912,-310.606 84.7762,-315.955"/>
</g>
<!-- Node7 -->
<g id="node7" class="node"><title>Node7</title>
<g id="a_node7"><a xlink:href="../../de/d3c/dopsig_8f.html#ad7245c27cd33798a9892fefd0b6ca749" target="_top" xlink:title="dopsig">
<polygon fill="white" stroke="black" points="84,-244.115 84,-263.115 132,-263.115 132,-244.115 84,-244.115"/>
<text text-anchor="middle" x="108" y="-251.115" font-family="Helvetica,sans-Serif" font-size="10.00">dopsig</text>
</a>
</g>
</g>
<!-- Node1&#45;&gt;Node7 -->
<g id="edge6" class="edge"><title>Node1&#45;&gt;Node7</title>
<path fill="none" stroke="midnightblue" d="M48.2786,-253.615C56.2229,-253.615 65.2664,-253.615 73.8355,-253.615"/>
<polygon fill="midnightblue" stroke="midnightblue" points="73.9471,-257.115 83.947,-253.615 73.947,-250.115 73.9471,-257.115"/>
</g>
<!-- Node8 -->
<g id="node8" class="node"><title>Node8</title>
<g id="a_node8"><a xlink:href="../../d0/dae/winterp_8f.html#ae38c8c525f918ef743c187dbd8c4c57d" target="_top" xlink:title="topwnd">
<polygon fill="white" stroke="black" points="249.5,-16.1147 249.5,-35.1147 300.5,-35.1147 300.5,-16.1147 249.5,-16.1147"/>
<text text-anchor="middle" x="275" y="-23.1147" font-family="Helvetica,sans-Serif" font-size="10.00">topwnd</text>
</a>
</g>
</g>
<!-- Node1&#45;&gt;Node8 -->
<g id="edge9" class="edge"><title>Node1&#45;&gt;Node8</title>
<path fill="none" stroke="midnightblue" d="M26.7541,-244.063C34.5432,-204.868 70.0424,-56.1134 168,-6.61469 192.856,5.94524 224.674,-2.54389 246.937,-11.8391"/>
<polygon fill="midnightblue" stroke="midnightblue" points="245.582,-15.0669 256.14,-15.953 248.439,-8.67644 245.582,-15.0669"/>
</g>
<!-- Node9 -->
<g id="node9" class="node"><title>Node9</title>
<g id="a_node9"><a xlink:href="../../d8/d91/strat_8f.html#a74100c5b0c9102bce415b7b476b44bda" target="_top" xlink:title="strat">
<polygon fill="white" stroke="black" points="89,-130.115 89,-149.115 127,-149.115 127,-130.115 89,-130.115"/>
<text text-anchor="middle" x="108" y="-137.115" font-family="Helvetica,sans-Serif" font-size="10.00">strat</text>
</a>
</g>
</g>
<!-- Node1&#45;&gt;Node9 -->
<g id="edge11" class="edge"><title>Node1&#45;&gt;Node9</title>
<path fill="none" stroke="midnightblue" d="M31.9913,-243.895C45.7284,-224.797 76.4296,-182.115 93.9986,-157.69"/>
<polygon fill="midnightblue" stroke="midnightblue" points="97.0284,-159.471 100.026,-149.31 91.3458,-155.384 97.0284,-159.471"/>
</g>
<!-- Node14 -->
<g id="node14" class="node"><title>Node14</title>
<g id="a_node14"><a xlink:href="../../dc/db1/windest_8f.html#a7234119f1ae14e4c8729972898fa3f6e" target="_top" xlink:title="betwin">
<polygon fill="white" stroke="black" points="84.5,-282.115 84.5,-301.115 131.5,-301.115 131.5,-282.115 84.5,-282.115"/>
<text text-anchor="middle" x="108" y="-289.115" font-family="Helvetica,sans-Serif" font-size="10.00">betwin</text>
</a>
</g>
</g>
<!-- Node1&#45;&gt;Node14 -->
<g id="edge18" class="edge"><title>Node1&#45;&gt;Node14</title>
<path fill="none" stroke="midnightblue" d="M45.6921,-263.204C55.2092,-267.614 66.6795,-272.93 77.1117,-277.764"/>
<polygon fill="midnightblue" stroke="midnightblue" points="75.7698,-281 86.3146,-282.029 78.7131,-274.648 75.7698,-281"/>
</g>
<!-- Node15 -->
<g id="node15" class="node"><title>Node15</title>
<g id="a_node15"><a xlink:href="../../d4/de5/resig_8f.html#a31befcca77f3529ca75d0967a58b7e5a" target="_top" xlink:title="resig">
<polygon fill="white" stroke="black" points="88,-377.115 88,-396.115 128,-396.115 128,-377.115 88,-377.115"/>
<text text-anchor="middle" x="108" y="-384.115" font-family="Helvetica,sans-Serif" font-size="10.00">resig</text>
</a>
</g>
</g>
<!-- Node1&#45;&gt;Node15 -->
<g id="edge21" class="edge"><title>Node1&#45;&gt;Node15</title>
<path fill="none" stroke="midnightblue" d="M30.8972,-263.18C44.4243,-285.12 77.8788,-339.382 95.5854,-368.101"/>
<polygon fill="midnightblue" stroke="midnightblue" points="92.7075,-370.102 100.935,-376.777 98.6661,-366.428 92.7075,-370.102"/>
</g>
<!-- Node4 -->
<g id="node4" class="node"><title>Node4</title>
<g id="a_node4"><a xlink:href="../../db/dfb/invwt_8f.html#a60a9c84e17e33143f25f150551b9cb67" target="_top" xlink:title="rinvmod">
<polygon fill="white" stroke="black" points="248,-320.115 248,-339.115 302,-339.115 302,-320.115 248,-320.115"/>
<text text-anchor="middle" x="275" y="-327.115" font-family="Helvetica,sans-Serif" font-size="10.00">rinvmod</text>
</a>
</g>
</g>
<!-- Node3&#45;&gt;Node4 -->
<g id="edge3" class="edge"><title>Node3&#45;&gt;Node4</title>
<path fill="none" stroke="midnightblue" d="M129.64,-338.008C140.793,-342.095 154.924,-346.561 168,-348.615 187.319,-351.649 192.66,-351.512 212,-348.615 220.979,-347.27 230.454,-344.886 239.221,-342.253"/>
<polygon fill="midnightblue" stroke="midnightblue" points="240.29,-345.586 248.755,-339.215 238.164,-338.916 240.29,-345.586"/>
</g>
<!-- Node6 -->
<g id="node6" class="node"><title>Node6</title>
<g id="a_node6"><a xlink:href="../../d0/da4/utils_8f.html#ae2d94dded1c7d5cb50cb38a013c79353" target="_top" xlink:title="lgntrp">
<polygon fill="white" stroke="black" points="168,-320.115 168,-339.115 212,-339.115 212,-320.115 168,-320.115"/>
<text text-anchor="middle" x="190" y="-327.115" font-family="Helvetica,sans-Serif" font-size="10.00">lgntrp</text>
</a>
</g>
</g>
<!-- Node3&#45;&gt;Node6 -->
<g id="edge5" class="edge"><title>Node3&#45;&gt;Node6</title>
<path fill="none" stroke="midnightblue" d="M129.602,-329.615C138.146,-329.615 148.247,-329.615 157.674,-329.615"/>
<polygon fill="midnightblue" stroke="midnightblue" points="157.911,-333.115 167.911,-329.615 157.911,-326.115 157.911,-333.115"/>
</g>
<!-- Node5 -->
<g id="node5" class="node"><title>Node5</title>
<g id="a_node5"><a xlink:href="../../d0/da4/utils_8f.html#ac7475efe535e2a13e0c32b30e80d52a6" target="_top" xlink:title="wndwt">
<polygon fill="white" stroke="black" points="338,-168.115 338,-187.115 385,-187.115 385,-168.115 338,-168.115"/>
<text text-anchor="middle" x="361.5" y="-175.115" font-family="Helvetica,sans-Serif" font-size="10.00">wndwt</text>
</a>
</g>
</g>
<!-- Node4&#45;&gt;Node5 -->
<g id="edge4" class="edge"><title>Node4&#45;&gt;Node5</title>
<path fill="none" stroke="midnightblue" d="M281.286,-320.106C295.038,-295.368 332.122,-228.662 350.247,-196.059"/>
<polygon fill="midnightblue" stroke="midnightblue" points="353.416,-197.56 355.216,-187.119 347.298,-194.159 353.416,-197.56"/>
</g>
<!-- Node7&#45;&gt;Node5 -->
<g id="edge8" class="edge"><title>Node7&#45;&gt;Node5</title>
<path fill="none" stroke="midnightblue" d="M132.187,-250.584C153.247,-247.538 185.045,-242.204 212,-234.615 253.793,-222.847 300.265,-204.034 329.904,-191.268"/>
<polygon fill="midnightblue" stroke="midnightblue" points="331.505,-194.388 339.279,-187.189 328.713,-187.969 331.505,-194.388"/>
</g>
<!-- Node7&#45;&gt;Node6 -->
<g id="edge7" class="edge"><title>Node7&#45;&gt;Node6</title>
<path fill="none" stroke="midnightblue" d="M121.358,-263.461C124.856,-266.345 128.628,-269.548 132,-272.615 146.302,-285.619 161.764,-301.184 172.971,-312.761"/>
<polygon fill="midnightblue" stroke="midnightblue" points="170.531,-315.272 179.983,-320.057 175.578,-310.422 170.531,-315.272"/>
</g>
<!-- Node8&#45;&gt;Node5 -->
<g id="edge10" class="edge"><title>Node8&#45;&gt;Node5</title>
<path fill="none" stroke="midnightblue" d="M281.286,-35.123C295.038,-59.861 332.122,-126.567 350.247,-159.171"/>
<polygon fill="midnightblue" stroke="midnightblue" points="347.298,-161.07 355.216,-168.11 353.416,-157.669 347.298,-161.07"/>
</g>
<!-- Node9&#45;&gt;Node2 -->
<g id="edge13" class="edge"><title>Node9&#45;&gt;Node2</title>
<path fill="none" stroke="midnightblue" d="M118.926,-149.397C130.575,-160.832 150.522,-180.273 168,-196.615 168.929,-197.484 169.885,-198.371 170.853,-199.264"/>
<polygon fill="midnightblue" stroke="midnightblue" points="168.508,-201.863 178.255,-206.016 173.226,-196.691 168.508,-201.863"/>
</g>
<!-- Node9&#45;&gt;Node5 -->
<g id="edge17" class="edge"><title>Node9&#45;&gt;Node5</title>
<path fill="none" stroke="midnightblue" d="M127.241,-132.111C138.72,-127.801 153.967,-122.818 168,-120.615 187.319,-117.581 192.772,-117.051 212,-120.615 255.911,-128.753 303.605,-149.355 332.778,-163.427"/>
<polygon fill="midnightblue" stroke="midnightblue" points="331.411,-166.655 341.93,-167.921 334.497,-160.372 331.411,-166.655"/>
</g>
<!-- Node10 -->
<g id="node10" class="node"><title>Node10</title>
<g id="a_node10"><a xlink:href="../../d0/da4/utils_8f.html#a2ea37adbef73c587b6708200cb19f03a" target="_top" xlink:title="tpot">
<polygon fill="white" stroke="black" points="172.5,-168.115 172.5,-187.115 207.5,-187.115 207.5,-168.115 172.5,-168.115"/>
<text text-anchor="middle" x="190" y="-175.115" font-family="Helvetica,sans-Serif" font-size="10.00">tpot</text>
</a>
</g>
</g>
<!-- Node9&#45;&gt;Node10 -->
<g id="edge12" class="edge"><title>Node9&#45;&gt;Node10</title>
<path fill="none" stroke="midnightblue" d="M127.153,-148.237C137.742,-153.267 151.277,-159.696 162.984,-165.257"/>
<polygon fill="midnightblue" stroke="midnightblue" points="161.748,-168.545 172.283,-169.674 164.752,-162.222 161.748,-168.545"/>
</g>
<!-- Node11 -->
<g id="node11" class="node"><title>Node11</title>
<g id="a_node11"><a xlink:href="../../d0/da4/utils_8f.html#a4f313e0a002cd074fefa8c3c6644de44" target="_top" xlink:title="xlintr">
<polygon fill="white" stroke="black" points="170.5,-130.115 170.5,-149.115 209.5,-149.115 209.5,-130.115 170.5,-130.115"/>
<text text-anchor="middle" x="190" y="-137.115" font-family="Helvetica,sans-Serif" font-size="10.00">xlintr</text>
</a>
</g>
</g>
<!-- Node9&#45;&gt;Node11 -->
<g id="edge14" class="edge"><title>Node9&#45;&gt;Node11</title>
<path fill="none" stroke="midnightblue" d="M127.153,-139.615C136.935,-139.615 149.231,-139.615 160.278,-139.615"/>
<polygon fill="midnightblue" stroke="midnightblue" points="160.363,-143.115 170.363,-139.615 160.363,-136.115 160.363,-143.115"/>
</g>
<!-- Node12 -->
<g id="node12" class="node"><title>Node12</title>
<g id="a_node12"><a xlink:href="../../d0/da4/utils_8f.html#ada49f994f851db3de12768d051cd93fb" target="_top" xlink:title="cvt2p">
<polygon fill="white" stroke="black" points="169,-54.1147 169,-73.1147 211,-73.1147 211,-54.1147 169,-54.1147"/>
<text text-anchor="middle" x="190" y="-61.1147" font-family="Helvetica,sans-Serif" font-size="10.00">cvt2p</text>
</a>
</g>
</g>
<!-- Node9&#45;&gt;Node12 -->
<g id="edge15" class="edge"><title>Node9&#45;&gt;Node12</title>
<path fill="none" stroke="midnightblue" d="M119.132,-129.989C132.236,-117.54 155.277,-95.652 171.3,-80.4295"/>
<polygon fill="midnightblue" stroke="midnightblue" points="174.111,-82.587 178.95,-73.162 169.29,-77.512 174.111,-82.587"/>
</g>
<!-- Node13 -->
<g id="node13" class="node"><title>Node13</title>
<g id="a_node13"><a xlink:href="../../d0/da4/utils_8f.html#aa67cf7df9fac8b49ecb8fb020821d525" target="_top" xlink:title="pt2t">
<polygon fill="white" stroke="black" points="172.5,-16.1147 172.5,-35.1147 207.5,-35.1147 207.5,-16.1147 172.5,-16.1147"/>
<text text-anchor="middle" x="190" y="-23.1147" font-family="Helvetica,sans-Serif" font-size="10.00">pt2t</text>
</a>
</g>
</g>
<!-- Node9&#45;&gt;Node13 -->
<g id="edge16" class="edge"><title>Node9&#45;&gt;Node13</title>
<path fill="none" stroke="midnightblue" d="M113.883,-129.857C123.09,-111.954 144.237,-73.0829 168,-44.6147 168.693,-43.7843 169.422,-42.9563 170.176,-42.1365"/>
<polygon fill="midnightblue" stroke="midnightblue" points="172.63,-44.6317 177.32,-35.1315 167.73,-39.6334 172.63,-44.6317"/>
</g>
<!-- Node14&#45;&gt;Node4 -->
<g id="edge20" class="edge"><title>Node14&#45;&gt;Node4</title>
<path fill="none" stroke="midnightblue" d="M131.662,-295.026C152.638,-298.365 184.622,-303.918 212,-310.615 220.567,-312.71 229.698,-315.303 238.244,-317.892"/>
<polygon fill="midnightblue" stroke="midnightblue" points="237.351,-321.279 247.939,-320.899 239.425,-314.593 237.351,-321.279"/>
</g>
<!-- Node14&#45;&gt;Node6 -->
<g id="edge19" class="edge"><title>Node14&#45;&gt;Node6</title>
<path fill="none" stroke="midnightblue" d="M129.187,-301.204C138.378,-305.569 149.435,-310.821 159.529,-315.616"/>
<polygon fill="midnightblue" stroke="midnightblue" points="158.285,-318.9 168.819,-320.029 161.288,-312.577 158.285,-318.9"/>
</g>
<!-- Node16 -->
<g id="node16" class="node"><title>Node16</title>
<g id="a_node16"><a xlink:href="../../d6/de7/flowht_8f.html#ad643b696e317136e66ddd9c79bef191c" target="_top" xlink:title="flowht">
<polygon fill="white" stroke="black" points="168,-396.115 168,-415.115 212,-415.115 212,-396.115 168,-396.115"/>
<text text-anchor="middle" x="190" y="-403.115" font-family="Helvetica,sans-Serif" font-size="10.00">flowht</text>
</a>
</g>
</g>
<!-- Node15&#45;&gt;Node16 -->
<g id="edge22" class="edge"><title>Node15&#45;&gt;Node16</title>
<path fill="none" stroke="midnightblue" d="M128.366,-391.214C137.221,-393.317 147.933,-395.861 157.875,-398.223"/>
<polygon fill="midnightblue" stroke="midnightblue" points="157.309,-401.685 167.847,-400.591 158.926,-394.875 157.309,-401.685"/>
</g>
<!-- Node16&#45;&gt;Node4 -->
<g id="edge24" class="edge"><title>Node16&#45;&gt;Node4</title>
<path fill="none" stroke="midnightblue" d="M201.512,-395.989C215.232,-383.426 239.451,-361.25 256.092,-346.012"/>
<polygon fill="midnightblue" stroke="midnightblue" points="258.562,-348.497 263.573,-339.162 253.834,-343.334 258.562,-348.497"/>
</g>
<!-- Node17 -->
<g id="node17" class="node"><title>Node17</title>
<g id="a_node17"><a xlink:href="../../d5/de9/interp_8f.html#ac894fce71c26b37a9bb66ad713b89787" target="_top" xlink:title="sloper">
<polygon fill="white" stroke="black" points="252,-396.115 252,-415.115 298,-415.115 298,-396.115 252,-396.115"/>
<text text-anchor="middle" x="275" y="-403.115" font-family="Helvetica,sans-Serif" font-size="10.00">sloper</text>
</a>
</g>
</g>
<!-- Node16&#45;&gt;Node17 -->
<g id="edge23" class="edge"><title>Node16&#45;&gt;Node17</title>
<path fill="none" stroke="midnightblue" d="M212.375,-405.615C221.263,-405.615 231.778,-405.615 241.581,-405.615"/>
<polygon fill="midnightblue" stroke="midnightblue" points="241.829,-409.115 251.829,-405.615 241.829,-402.115 241.829,-409.115"/>
</g>
</g>
</svg>
