<?xml version="1.0" encoding="UTF-8" standalone="no"?>
<!DOCTYPE svg PUBLIC "-//W3C//DTD SVG 1.1//EN"
 "http://www.w3.org/Graphics/SVG/1.1/DTD/svg11.dtd">
<!-- Generated by graphviz version 2.38.0 (20140413.2041)
 -->
<!-- Title: resig Pages: 1 -->
<svg width="301pt" height="66pt"
 viewBox="0.00 0.00 301.00 66.00" xmlns="http://www.w3.org/2000/svg" xmlns:xlink="http://www.w3.org/1999/xlink">
<g id="graph0" class="graph" transform="scale(1 1) rotate(0) translate(4 62)">
<title>resig</title>
<polygon fill="white" stroke="none" points="-4,4 -4,-62 297,-62 297,4 -4,4"/>
<!-- Node1 -->
<g id="node1" class="node"><title>Node1</title>
<polygon fill="#bfbfbf" stroke="black" points="0,-19.5 0,-38.5 40,-38.5 40,-19.5 0,-19.5"/>
<text text-anchor="middle" x="20" y="-26.5" font-family="Helvetica,sans-Serif" font-size="10.00">resig</text>
</g>
<!-- Node2 -->
<g id="node2" class="node"><title>Node2</title>
<g id="a_node2"><a xlink:href="../../d6/de7/flowht_8f.html#ad643b696e317136e66ddd9c79bef191c" target="_top" xlink:title="flowht">
<polygon fill="white" stroke="black" points="76,-19.5 76,-38.5 120,-38.5 120,-19.5 76,-19.5"/>
<text text-anchor="middle" x="98" y="-26.5" font-family="Helvetica,sans-Serif" font-size="10.00">flowht</text>
</a>
</g>
</g>
<!-- Node1&#45;&gt;Node2 -->
<g id="edge1" class="edge"><title>Node1&#45;&gt;Node2</title>
<path fill="none" stroke="midnightblue" d="M40.178,-29C47.9311,-29 57.0826,-29 65.7501,-29"/>
<polygon fill="midnightblue" stroke="midnightblue" points="65.9559,-32.5001 75.9559,-29 65.9559,-25.5001 65.9559,-32.5001"/>
</g>
<!-- Node3 -->
<g id="node3" class="node"><title>Node3</title>
<g id="a_node3"><a xlink:href="../../d5/de9/interp_8f.html#ac894fce71c26b37a9bb66ad713b89787" target="_top" xlink:title="sloper">
<polygon fill="white" stroke="black" points="160,-38.5 160,-57.5 206,-57.5 206,-38.5 160,-38.5"/>
<text text-anchor="middle" x="183" y="-45.5" font-family="Helvetica,sans-Serif" font-size="10.00">sloper</text>
</a>
</g>
</g>
<!-- Node2&#45;&gt;Node3 -->
<g id="edge2" class="edge"><title>Node2&#45;&gt;Node3</title>
<path fill="none" stroke="midnightblue" d="M120.375,-33.893C129.358,-35.9494 140.002,-38.3859 149.894,-40.6504"/>
<polygon fill="midnightblue" stroke="midnightblue" points="149.3,-44.105 159.829,-42.9247 150.862,-37.2815 149.3,-44.105"/>
</g>
<!-- Node4 -->
<g id="node4" class="node"><title>Node4</title>
<g id="a_node4"><a xlink:href="../../db/dfb/invwt_8f.html#a60a9c84e17e33143f25f150551b9cb67" target="_top" xlink:title="rinvmod">
<polygon fill="white" stroke="black" points="156,-0.5 156,-19.5 210,-19.5 210,-0.5 156,-0.5"/>
<text text-anchor="middle" x="183" y="-7.5" font-family="Helvetica,sans-Serif" font-size="10.00">rinvmod</text>
</a>
</g>
</g>
<!-- Node2&#45;&gt;Node4 -->
<g id="edge3" class="edge"><title>Node2&#45;&gt;Node4</title>
<path fill="none" stroke="midnightblue" d="M120.375,-24.107C128.177,-22.321 137.231,-20.2483 145.958,-18.2506"/>
<polygon fill="midnightblue" stroke="midnightblue" points="146.99,-21.6049 155.957,-15.9616 145.428,-14.7814 146.99,-21.6049"/>
</g>
<!-- Node5 -->
<g id="node5" class="node"><title>Node5</title>
<g id="a_node5"><a xlink:href="../../d0/da4/utils_8f.html#ac7475efe535e2a13e0c32b30e80d52a6" target="_top" xlink:title="wndwt">
<polygon fill="white" stroke="black" points="246,-0.5 246,-19.5 293,-19.5 293,-0.5 246,-0.5"/>
<text text-anchor="middle" x="269.5" y="-7.5" font-family="Helvetica,sans-Serif" font-size="10.00">wndwt</text>
</a>
</g>
</g>
<!-- Node4&#45;&gt;Node5 -->
<g id="edge4" class="edge"><title>Node4&#45;&gt;Node5</title>
<path fill="none" stroke="midnightblue" d="M210.273,-10C218.312,-10 227.257,-10 235.675,-10"/>
<polygon fill="midnightblue" stroke="midnightblue" points="235.949,-13.5001 245.949,-10 235.949,-6.5001 235.949,-13.5001"/>
</g>
</g>
</svg>
