<?xml version="1.0" encoding="UTF-8" standalone="no"?>
<!DOCTYPE svg PUBLIC "-//W3C//DTD SVG 1.1//EN"
 "http://www.w3.org/Graphics/SVG/1.1/DTD/svg11.dtd">
<!-- Generated by graphviz version 2.38.0 (20140413.2041)
 -->
<!-- Title: betpar Pages: 1 -->
<svg width="230pt" height="142pt"
 viewBox="0.00 0.00 230.00 142.00" xmlns="http://www.w3.org/2000/svg" xmlns:xlink="http://www.w3.org/1999/xlink">
<g id="graph0" class="graph" transform="scale(1 1) rotate(0) translate(4 138)">
<title>betpar</title>
<polygon fill="white" stroke="none" points="-4,4 -4,-138 226,-138 226,4 -4,4"/>
<!-- Node1 -->
<g id="node1" class="node"><title>Node1</title>
<polygon fill="#bfbfbf" stroke="black" points="0,-57.5 0,-76.5 47,-76.5 47,-57.5 0,-57.5"/>
<text text-anchor="middle" x="23.5" y="-64.5" font-family="Helvetica,sans-Serif" font-size="10.00">betpar</text>
</g>
<!-- Node2 -->
<g id="node2" class="node"><title>Node2</title>
<g id="a_node2"><a xlink:href="../../db/dfb/invwt_8f.html#ab6e79552e825a19ab639d40a5aeb9980" target="_top" xlink:title="rinvmold">
<polygon fill="white" stroke="black" points="83,-114.5 83,-133.5 139,-133.5 139,-114.5 83,-114.5"/>
<text text-anchor="middle" x="111" y="-121.5" font-family="Helvetica,sans-Serif" font-size="10.00">rinvmold</text>
</a>
</g>
</g>
<!-- Node1&#45;&gt;Node2 -->
<g id="edge1" class="edge"><title>Node1&#45;&gt;Node2</title>
<path fill="none" stroke="midnightblue" d="M39.0039,-76.6693C52.2265,-85.4843 71.9746,-98.6497 87.2888,-108.859"/>
<polygon fill="midnightblue" stroke="midnightblue" points="85.4483,-111.839 95.7103,-114.474 89.3312,-106.014 85.4483,-111.839"/>
</g>
<!-- Node4 -->
<g id="node4" class="node"><title>Node4</title>
<g id="a_node4"><a xlink:href="../../d0/da4/utils_8f.html#ada49f994f851db3de12768d051cd93fb" target="_top" xlink:title="cvt2p">
<polygon fill="white" stroke="black" points="90,-76.5 90,-95.5 132,-95.5 132,-76.5 90,-76.5"/>
<text text-anchor="middle" x="111" y="-83.5" font-family="Helvetica,sans-Serif" font-size="10.00">cvt2p</text>
</a>
</g>
</g>
<!-- Node1&#45;&gt;Node4 -->
<g id="edge3" class="edge"><title>Node1&#45;&gt;Node4</title>
<path fill="none" stroke="midnightblue" d="M47.4124,-72.0917C57.4585,-74.3241 69.3825,-76.9739 80.1139,-79.3587"/>
<polygon fill="midnightblue" stroke="midnightblue" points="79.416,-82.7889 89.9372,-81.5416 80.9346,-75.9556 79.416,-82.7889"/>
</g>
<!-- Node5 -->
<g id="node5" class="node"><title>Node5</title>
<g id="a_node5"><a xlink:href="../../d5/de9/interp_8f.html#a1049f2c9a94baca31bcb0ea68f172dfb" target="_top" xlink:title="vrsmoo">
<polygon fill="white" stroke="black" points="85.5,-38.5 85.5,-57.5 136.5,-57.5 136.5,-38.5 85.5,-38.5"/>
<text text-anchor="middle" x="111" y="-45.5" font-family="Helvetica,sans-Serif" font-size="10.00">vrsmoo</text>
</a>
</g>
</g>
<!-- Node1&#45;&gt;Node5 -->
<g id="edge4" class="edge"><title>Node1&#45;&gt;Node5</title>
<path fill="none" stroke="midnightblue" d="M47.4124,-61.9083C55.9854,-60.0033 65.9259,-57.7943 75.3258,-55.7054"/>
<polygon fill="midnightblue" stroke="midnightblue" points="76.2206,-59.092 85.2232,-53.506 74.7021,-52.2587 76.2206,-59.092"/>
</g>
<!-- Node6 -->
<g id="node6" class="node"><title>Node6</title>
<g id="a_node6"><a xlink:href="../../d0/da4/utils_8f.html#a2ea37adbef73c587b6708200cb19f03a" target="_top" xlink:title="tpot">
<polygon fill="white" stroke="black" points="93.5,-0.5 93.5,-19.5 128.5,-19.5 128.5,-0.5 93.5,-0.5"/>
<text text-anchor="middle" x="111" y="-7.5" font-family="Helvetica,sans-Serif" font-size="10.00">tpot</text>
</a>
</g>
</g>
<!-- Node1&#45;&gt;Node6 -->
<g id="edge6" class="edge"><title>Node1&#45;&gt;Node6</title>
<path fill="none" stroke="midnightblue" d="M39.0039,-57.3307C52.2265,-48.5157 71.9746,-35.3503 87.2888,-25.1408"/>
<polygon fill="midnightblue" stroke="midnightblue" points="89.3312,-27.9857 95.7103,-19.5265 85.4483,-22.1613 89.3312,-27.9857"/>
</g>
<!-- Node3 -->
<g id="node3" class="node"><title>Node3</title>
<g id="a_node3"><a xlink:href="../../d0/da4/utils_8f.html#ac7475efe535e2a13e0c32b30e80d52a6" target="_top" xlink:title="wndwt">
<polygon fill="white" stroke="black" points="175,-76.5 175,-95.5 222,-95.5 222,-76.5 175,-76.5"/>
<text text-anchor="middle" x="198.5" y="-83.5" font-family="Helvetica,sans-Serif" font-size="10.00">wndwt</text>
</a>
</g>
</g>
<!-- Node2&#45;&gt;Node3 -->
<g id="edge2" class="edge"><title>Node2&#45;&gt;Node3</title>
<path fill="none" stroke="midnightblue" d="M133.575,-114.411C143.6,-109.956 155.703,-104.577 166.669,-99.7029"/>
<polygon fill="midnightblue" stroke="midnightblue" points="168.215,-102.846 175.932,-95.5859 165.372,-96.449 168.215,-102.846"/>
</g>
<!-- Node5&#45;&gt;Node3 -->
<g id="edge5" class="edge"><title>Node5&#45;&gt;Node3</title>
<path fill="none" stroke="midnightblue" d="M133.575,-57.589C143.6,-62.0444 155.703,-67.4235 166.669,-72.2971"/>
<polygon fill="midnightblue" stroke="midnightblue" points="165.372,-75.551 175.932,-76.4141 168.215,-69.1543 165.372,-75.551"/>
</g>
</g>
</svg>
