<?xml version="1.0" encoding="UTF-8" standalone="no"?>
<!DOCTYPE svg PUBLIC "-//W3C//DTD SVG 1.1//EN"
 "http://www.w3.org/Graphics/SVG/1.1/DTD/svg11.dtd">
<!-- Generated by graphviz version 2.38.0 (20140413.2041)
 -->
<!-- Title: degdif Pages: 1 -->
<svg width="219pt" height="28pt"
 viewBox="0.00 0.00 219.00 28.00" xmlns="http://www.w3.org/2000/svg" xmlns:xlink="http://www.w3.org/1999/xlink">
<g id="graph0" class="graph" transform="scale(1 1) rotate(0) translate(4 24)">
<title>degdif</title>
<polygon fill="white" stroke="none" points="-4,4 -4,-24 215,-24 215,4 -4,4"/>
<!-- Node1 -->
<g id="node1" class="node"><title>Node1</title>
<polygon fill="#bfbfbf" stroke="black" points="0,-0.5 0,-19.5 46,-19.5 46,-0.5 0,-0.5"/>
<text text-anchor="middle" x="23" y="-7.5" font-family="Helvetica,sans-Serif" font-size="10.00">degdif</text>
</g>
<!-- Node2 -->
<g id="node2" class="node"><title>Node2</title>
<g id="a_node2"><a xlink:href="../../d0/dae/winterp_8f.html#a3e383f3e341b5bceeba6c03663cfa072" target="_top" xlink:title="tstwnd">
<polygon fill="white" stroke="black" points="82,-0.5 82,-19.5 129,-19.5 129,-0.5 82,-0.5"/>
<text text-anchor="middle" x="105.5" y="-7.5" font-family="Helvetica,sans-Serif" font-size="10.00">tstwnd</text>
</a>
</g>
</g>
<!-- Node1&#45;&gt;Node2 -->
<g id="edge1" class="edge"><title>Node1&#45;&gt;Node2</title>
<path fill="none" stroke="midnightblue" d="M56.4824,-10C65.0144,-10 74.0304,-10 81.9173,-10"/>
<polygon fill="midnightblue" stroke="midnightblue" points="56.4238,-6.5001 46.4237,-10 56.4237,-13.5001 56.4238,-6.5001"/>
</g>
<!-- Node3 -->
<g id="node3" class="node"><title>Node3</title>
<g id="a_node3"><a xlink:href="../../d9/d21/wocss_8f.html#aacb06ae5117e6a3992c6e252e3537c17" target="_top" xlink:title="wocss">
<polygon fill="white" stroke="black" points="165,-0.5 165,-19.5 211,-19.5 211,-0.5 165,-0.5"/>
<text text-anchor="middle" x="188" y="-7.5" font-family="Helvetica,sans-Serif" font-size="10.00">wocss</text>
</a>
</g>
</g>
<!-- Node2&#45;&gt;Node3 -->
<g id="edge2" class="edge"><title>Node2&#45;&gt;Node3</title>
<path fill="none" stroke="midnightblue" d="M139.471,-10C148.041,-10 157.067,-10 164.923,-10"/>
<polygon fill="midnightblue" stroke="midnightblue" points="139.353,-6.5001 129.353,-10 139.353,-13.5001 139.353,-6.5001"/>
</g>
</g>
</svg>
