<?xml version="1.0" encoding="UTF-8" standalone="no"?>
<!DOCTYPE svg PUBLIC "-//W3C//DTD SVG 1.1//EN"
 "http://www.w3.org/Graphics/SVG/1.1/DTD/svg11.dtd">
<!-- Generated by graphviz version 2.38.0 (20140413.2041)
 -->
<!-- Title: dd Pages: 1 -->
<svg width="288pt" height="104pt"
 viewBox="0.00 0.00 288.00 104.00" xmlns="http://www.w3.org/2000/svg" xmlns:xlink="http://www.w3.org/1999/xlink">
<g id="graph0" class="graph" transform="scale(1 1) rotate(0) translate(4 100)">
<title>dd</title>
<polygon fill="white" stroke="none" points="-4,4 -4,-100 284,-100 284,4 -4,4"/>
<!-- Node1 -->
<g id="node1" class="node"><title>Node1</title>
<polygon fill="#bfbfbf" stroke="black" points="0,-38.5 0,-57.5 29,-57.5 29,-38.5 0,-38.5"/>
<text text-anchor="middle" x="14.5" y="-45.5" font-family="Helvetica,sans-Serif" font-size="10.00">dd</text>
</g>
<!-- Node2 -->
<g id="node2" class="node"><title>Node2</title>
<g id="a_node2"><a xlink:href="../../dd/d8b/levwnd_8f.html#a071704a067fa176be873eaafe88cd40e" target="_top" xlink:title="levwnd">
<polygon fill="white" stroke="black" points="65,-76.5 65,-95.5 115,-95.5 115,-76.5 65,-76.5"/>
<text text-anchor="middle" x="90" y="-83.5" font-family="Helvetica,sans-Serif" font-size="10.00">levwnd</text>
</a>
</g>
</g>
<!-- Node1&#45;&gt;Node2 -->
<g id="edge1" class="edge"><title>Node1&#45;&gt;Node2</title>
<path fill="none" stroke="midnightblue" d="M38.2373,-59.7553C48.605,-65.1155 60.7226,-71.3804 70.5181,-76.4447"/>
<polygon fill="midnightblue" stroke="midnightblue" points="39.8152,-56.6311 29.3248,-55.1475 36.6004,-62.8492 39.8152,-56.6311"/>
</g>
<!-- Node3 -->
<g id="node3" class="node"><title>Node3</title>
<g id="a_node3"><a xlink:href="../../d0/dae/winterp_8f.html#a3e383f3e341b5bceeba6c03663cfa072" target="_top" xlink:title="tstwnd">
<polygon fill="white" stroke="black" points="151,-38.5 151,-57.5 198,-57.5 198,-38.5 151,-38.5"/>
<text text-anchor="middle" x="174.5" y="-45.5" font-family="Helvetica,sans-Serif" font-size="10.00">tstwnd</text>
</a>
</g>
</g>
<!-- Node1&#45;&gt;Node3 -->
<g id="edge6" class="edge"><title>Node1&#45;&gt;Node3</title>
<path fill="none" stroke="midnightblue" d="M39.3223,-48C69.5355,-48 121.257,-48 150.884,-48"/>
<polygon fill="midnightblue" stroke="midnightblue" points="39.2451,-44.5001 29.2451,-48 39.245,-51.5001 39.2451,-44.5001"/>
</g>
<!-- Node5 -->
<g id="node5" class="node"><title>Node5</title>
<g id="a_node5"><a xlink:href="../../db/de6/output_8f.html#abed9935939ea5035b19aa26abb05d9d1" target="_top" xlink:title="putout">
<polygon fill="white" stroke="black" points="152,-0.5 152,-19.5 197,-19.5 197,-0.5 152,-0.5"/>
<text text-anchor="middle" x="174.5" y="-7.5" font-family="Helvetica,sans-Serif" font-size="10.00">putout</text>
</a>
</g>
</g>
<!-- Node1&#45;&gt;Node5 -->
<g id="edge4" class="edge"><title>Node1&#45;&gt;Node5</title>
<path fill="none" stroke="midnightblue" d="M39.0437,-42.3376C69.5887,-34.9913 122.451,-22.2777 151.974,-15.1772"/>
<polygon fill="midnightblue" stroke="midnightblue" points="38.1494,-38.9528 29.2451,-44.6942 39.7863,-45.7587 38.1494,-38.9528"/>
</g>
<!-- Node2&#45;&gt;Node3 -->
<g id="edge2" class="edge"><title>Node2&#45;&gt;Node3</title>
<path fill="none" stroke="midnightblue" d="M121.078,-72.1459C131.574,-67.3113 143.114,-61.9959 152.688,-57.5859"/>
<polygon fill="midnightblue" stroke="midnightblue" points="119.437,-69.0484 111.818,-76.411 122.365,-75.4063 119.437,-69.0484"/>
</g>
<!-- Node4 -->
<g id="node4" class="node"><title>Node4</title>
<g id="a_node4"><a xlink:href="../../d9/d21/wocss_8f.html#aacb06ae5117e6a3992c6e252e3537c17" target="_top" xlink:title="wocss">
<polygon fill="white" stroke="black" points="234,-19.5 234,-38.5 280,-38.5 280,-19.5 234,-19.5"/>
<text text-anchor="middle" x="257" y="-26.5" font-family="Helvetica,sans-Serif" font-size="10.00">wocss</text>
</a>
</g>
</g>
<!-- Node3&#45;&gt;Node4 -->
<g id="edge3" class="edge"><title>Node3&#45;&gt;Node4</title>
<path fill="none" stroke="midnightblue" d="M208.189,-40.2846C216.843,-38.2421 225.981,-36.0853 233.923,-34.2107"/>
<polygon fill="midnightblue" stroke="midnightblue" points="207.281,-36.9026 198.353,-42.6062 208.889,-43.7154 207.281,-36.9026"/>
</g>
<!-- Node5&#45;&gt;Node4 -->
<g id="edge5" class="edge"><title>Node5&#45;&gt;Node4</title>
<path fill="none" stroke="midnightblue" d="M206.864,-17.4027C215.862,-19.5265 225.484,-21.7975 233.807,-23.7618"/>
<polygon fill="midnightblue" stroke="midnightblue" points="207.609,-13.9825 197.073,-15.0917 206.001,-20.7953 207.609,-13.9825"/>
</g>
</g>
</svg>
