<?xml version="1.0" encoding="UTF-8" standalone="no"?>
<!DOCTYPE svg PUBLIC "-//W3C//DTD SVG 1.1//EN"
 "http://www.w3.org/Graphics/SVG/1.1/DTD/svg11.dtd">
<!-- Generated by graphviz version 2.38.0 (20140413.2041)
 -->
<!-- Title: sp Pages: 1 -->
<svg width="353pt" height="118pt"
 viewBox="0.00 0.00 353.00 117.76" xmlns="http://www.w3.org/2000/svg" xmlns:xlink="http://www.w3.org/1999/xlink">
<g id="graph0" class="graph" transform="scale(1 1) rotate(0) translate(4 113.757)">
<title>sp</title>
<polygon fill="white" stroke="none" points="-4,4 -4,-113.757 349,-113.757 349,4 -4,4"/>
<!-- Node1 -->
<g id="node1" class="node"><title>Node1</title>
<polygon fill="#bfbfbf" stroke="black" points="0,-57.5 0,-76.5 29,-76.5 29,-57.5 0,-57.5"/>
<text text-anchor="middle" x="14.5" y="-64.5" font-family="Helvetica,sans-Serif" font-size="10.00">sp</text>
</g>
<!-- Node2 -->
<g id="node2" class="node"><title>Node2</title>
<g id="a_node2"><a xlink:href="../../d0/da4/utils_8f.html#aea6bd637ff6e9292b15591b24874cb9d" target="_top" xlink:title="dd">
<polygon fill="white" stroke="black" points="65,-38.5 65,-57.5 94,-57.5 94,-38.5 65,-38.5"/>
<text text-anchor="middle" x="79.5" y="-45.5" font-family="Helvetica,sans-Serif" font-size="10.00">dd</text>
</a>
</g>
</g>
<!-- Node1&#45;&gt;Node2 -->
<g id="edge1" class="edge"><title>Node1&#45;&gt;Node2</title>
<path fill="none" stroke="midnightblue" d="M38.8556,-59.9562C47.6104,-57.3159 57.2663,-54.4038 64.8566,-52.1147"/>
<polygon fill="midnightblue" stroke="midnightblue" points="37.7335,-56.6389 29.1701,-62.8773 39.7548,-63.3407 37.7335,-56.6389"/>
</g>
<!-- Node3 -->
<g id="node3" class="node"><title>Node3</title>
<g id="a_node3"><a xlink:href="../../dd/d8b/levwnd_8f.html#a071704a067fa176be873eaafe88cd40e" target="_top" xlink:title="levwnd">
<polygon fill="white" stroke="black" points="130,-76.5 130,-95.5 180,-95.5 180,-76.5 130,-76.5"/>
<text text-anchor="middle" x="155" y="-83.5" font-family="Helvetica,sans-Serif" font-size="10.00">levwnd</text>
</a>
</g>
</g>
<!-- Node1&#45;&gt;Node3 -->
<g id="edge8" class="edge"><title>Node1&#45;&gt;Node3</title>
<path fill="none" stroke="midnightblue" d="M39.2037,-70.2518C64.4787,-73.7191 104.299,-79.1819 129.773,-82.6764"/>
<polygon fill="midnightblue" stroke="midnightblue" points="39.4151,-66.7481 29.0321,-68.8564 38.4636,-73.6831 39.4151,-66.7481"/>
</g>
<!-- Node4 -->
<g id="node4" class="node"><title>Node4</title>
<g id="a_node4"><a xlink:href="../../d0/dae/winterp_8f.html#a3e383f3e341b5bceeba6c03663cfa072" target="_top" xlink:title="tstwnd">
<polygon fill="white" stroke="black" points="216,-57.5 216,-76.5 263,-76.5 263,-57.5 216,-57.5"/>
<text text-anchor="middle" x="239.5" y="-64.5" font-family="Helvetica,sans-Serif" font-size="10.00">tstwnd</text>
</a>
</g>
</g>
<!-- Node1&#45;&gt;Node4 -->
<g id="edge10" class="edge"><title>Node1&#45;&gt;Node4</title>
<path fill="none" stroke="midnightblue" d="M38.278,-79.663C70.24,-95.7618 130.081,-119.79 180,-105 198.579,-99.4955 216.786,-86.0278 227.828,-76.7012"/>
<polygon fill="midnightblue" stroke="midnightblue" points="39.78,-76.4989 29.2956,-74.9732 36.5402,-82.7041 39.78,-76.4989"/>
</g>
<!-- Node6 -->
<g id="node6" class="node"><title>Node6</title>
<g id="a_node6"><a xlink:href="../../db/de6/output_8f.html#abed9935939ea5035b19aa26abb05d9d1" target="_top" xlink:title="putout">
<polygon fill="white" stroke="black" points="132.5,-0.5 132.5,-19.5 177.5,-19.5 177.5,-0.5 132.5,-0.5"/>
<text text-anchor="middle" x="155" y="-7.5" font-family="Helvetica,sans-Serif" font-size="10.00">putout</text>
</a>
</g>
</g>
<!-- Node1&#45;&gt;Node6 -->
<g id="edge9" class="edge"><title>Node1&#45;&gt;Node6</title>
<path fill="none" stroke="midnightblue" d="M32.9763,-50.4917C41.9271,-42.8824 53.3716,-34.3686 65,-29 86.6604,-18.9999 113.733,-14.1864 132.297,-11.9201"/>
<polygon fill="midnightblue" stroke="midnightblue" points="30.3802,-48.1167 25.2342,-57.3779 35.0324,-53.3471 30.3802,-48.1167"/>
</g>
<!-- Node2&#45;&gt;Node3 -->
<g id="edge2" class="edge"><title>Node2&#45;&gt;Node3</title>
<path fill="none" stroke="midnightblue" d="M103.237,-59.7553C113.605,-65.1155 125.723,-71.3804 135.518,-76.4447"/>
<polygon fill="midnightblue" stroke="midnightblue" points="104.815,-56.6311 94.3248,-55.1475 101.6,-62.8492 104.815,-56.6311"/>
</g>
<!-- Node2&#45;&gt;Node4 -->
<g id="edge7" class="edge"><title>Node2&#45;&gt;Node4</title>
<path fill="none" stroke="midnightblue" d="M104.322,-50.8647C134.535,-54.4979 186.257,-60.7176 215.884,-64.2804"/>
<polygon fill="midnightblue" stroke="midnightblue" points="104.591,-47.3719 94.2451,-49.6529 103.756,-54.3219 104.591,-47.3719"/>
</g>
<!-- Node2&#45;&gt;Node6 -->
<g id="edge5" class="edge"><title>Node2&#45;&gt;Node6</title>
<path fill="none" stroke="midnightblue" d="M103.237,-36.2447C113.605,-30.8845 125.723,-24.6196 135.518,-19.5553"/>
<polygon fill="midnightblue" stroke="midnightblue" points="101.6,-33.1508 94.3248,-40.8525 104.815,-39.3689 101.6,-33.1508"/>
</g>
<!-- Node3&#45;&gt;Node4 -->
<g id="edge3" class="edge"><title>Node3&#45;&gt;Node4</title>
<path fill="none" stroke="midnightblue" d="M190.157,-78.1336C198.795,-76.1441 207.862,-74.056 215.779,-72.2327"/>
<polygon fill="midnightblue" stroke="midnightblue" points="189.266,-74.7471 180.307,-80.4021 190.837,-81.5685 189.266,-74.7471"/>
</g>
<!-- Node5 -->
<g id="node5" class="node"><title>Node5</title>
<g id="a_node5"><a xlink:href="../../d9/d21/wocss_8f.html#aacb06ae5117e6a3992c6e252e3537c17" target="_top" xlink:title="wocss">
<polygon fill="white" stroke="black" points="299,-38.5 299,-57.5 345,-57.5 345,-38.5 299,-38.5"/>
<text text-anchor="middle" x="322" y="-45.5" font-family="Helvetica,sans-Serif" font-size="10.00">wocss</text>
</a>
</g>
</g>
<!-- Node4&#45;&gt;Node5 -->
<g id="edge4" class="edge"><title>Node4&#45;&gt;Node5</title>
<path fill="none" stroke="midnightblue" d="M273.189,-59.2846C281.843,-57.2421 290.981,-55.0853 298.923,-53.2107"/>
<polygon fill="midnightblue" stroke="midnightblue" points="272.281,-55.9026 263.353,-61.6062 273.889,-62.7154 272.281,-55.9026"/>
</g>
<!-- Node6&#45;&gt;Node5 -->
<g id="edge6" class="edge"><title>Node6&#45;&gt;Node5</title>
<path fill="none" stroke="midnightblue" d="M187.498,-17.2541C220.121,-24.7672 270.252,-36.3126 298.897,-42.9097"/>
<polygon fill="midnightblue" stroke="midnightblue" points="188.101,-13.8015 177.571,-14.9678 186.53,-20.6229 188.101,-13.8015"/>
</g>
</g>
</svg>
