<?xml version="1.0" encoding="UTF-8" standalone="no"?>
<!DOCTYPE svg PUBLIC "-//W3C//DTD SVG 1.1//EN"
 "http://www.w3.org/Graphics/SVG/1.1/DTD/svg11.dtd">
<!-- Generated by graphviz version 2.38.0 (20140413.2041)
 -->
<!-- Title: tpot Pages: 1 -->
<svg width="290pt" height="104pt"
 viewBox="0.00 0.00 290.00 104.00" xmlns="http://www.w3.org/2000/svg" xmlns:xlink="http://www.w3.org/1999/xlink">
<g id="graph0" class="graph" transform="scale(1 1) rotate(0) translate(4 100)">
<title>tpot</title>
<polygon fill="white" stroke="none" points="-4,4 -4,-100 286,-100 286,4 -4,4"/>
<!-- Node1 -->
<g id="node1" class="node"><title>Node1</title>
<polygon fill="#bfbfbf" stroke="black" points="0,-38.5 0,-57.5 35,-57.5 35,-38.5 0,-38.5"/>
<text text-anchor="middle" x="17.5" y="-45.5" font-family="Helvetica,sans-Serif" font-size="10.00">tpot</text>
</g>
<!-- Node2 -->
<g id="node2" class="node"><title>Node2</title>
<g id="a_node2"><a xlink:href="../../de/d34/betpar_8f.html#a50333a4e3d0fc6c4a3df88b75e75e4ba" target="_top" xlink:title="betpar">
<polygon fill="white" stroke="black" points="152.5,-76.5 152.5,-95.5 199.5,-95.5 199.5,-76.5 152.5,-76.5"/>
<text text-anchor="middle" x="176" y="-83.5" font-family="Helvetica,sans-Serif" font-size="10.00">betpar</text>
</a>
</g>
</g>
<!-- Node1&#45;&gt;Node2 -->
<g id="edge1" class="edge"><title>Node1&#45;&gt;Node2</title>
<path fill="none" stroke="midnightblue" d="M44.8196,-58.4958C53.1052,-61.5365 62.3518,-64.6626 71,-67 98.6411,-74.4707 131.214,-79.8919 152.443,-82.9873"/>
<polygon fill="midnightblue" stroke="midnightblue" points="45.8857,-55.157 35.2943,-54.888 43.4062,-61.7032 45.8857,-55.157"/>
</g>
<!-- Node4 -->
<g id="node4" class="node"><title>Node4</title>
<g id="a_node4"><a xlink:href="../../db/de6/output_8f.html#abed9935939ea5035b19aa26abb05d9d1" target="_top" xlink:title="putout">
<polygon fill="white" stroke="black" points="71,-38.5 71,-57.5 116,-57.5 116,-38.5 71,-38.5"/>
<text text-anchor="middle" x="93.5" y="-45.5" font-family="Helvetica,sans-Serif" font-size="10.00">putout</text>
</a>
</g>
</g>
<!-- Node1&#45;&gt;Node4 -->
<g id="edge3" class="edge"><title>Node1&#45;&gt;Node4</title>
<path fill="none" stroke="midnightblue" d="M45.4051,-48C53.8229,-48 62.9955,-48 70.9905,-48"/>
<polygon fill="midnightblue" stroke="midnightblue" points="45.2918,-44.5001 35.2917,-48 45.2917,-51.5001 45.2918,-44.5001"/>
</g>
<!-- Node5 -->
<g id="node5" class="node"><title>Node5</title>
<g id="a_node5"><a xlink:href="../../d8/d91/strat_8f.html#a74100c5b0c9102bce415b7b476b44bda" target="_top" xlink:title="strat">
<polygon fill="white" stroke="black" points="74.5,-0.5 74.5,-19.5 112.5,-19.5 112.5,-0.5 74.5,-0.5"/>
<text text-anchor="middle" x="93.5" y="-7.5" font-family="Helvetica,sans-Serif" font-size="10.00">strat</text>
</a>
</g>
</g>
<!-- Node1&#45;&gt;Node5 -->
<g id="edge5" class="edge"><title>Node1&#45;&gt;Node5</title>
<path fill="none" stroke="midnightblue" d="M44.3569,-34.7221C54.3017,-29.6154 65.4309,-23.9004 74.4818,-19.2526"/>
<polygon fill="midnightblue" stroke="midnightblue" points="42.5886,-31.6956 35.2917,-39.3772 45.7863,-37.9226 42.5886,-31.6956"/>
</g>
<!-- Node3 -->
<g id="node3" class="node"><title>Node3</title>
<g id="a_node3"><a xlink:href="../../d9/d21/wocss_8f.html#aacb06ae5117e6a3992c6e252e3537c17" target="_top" xlink:title="wocss">
<polygon fill="white" stroke="black" points="236,-38.5 236,-57.5 282,-57.5 282,-38.5 236,-38.5"/>
<text text-anchor="middle" x="259" y="-45.5" font-family="Helvetica,sans-Serif" font-size="10.00">wocss</text>
</a>
</g>
</g>
<!-- Node2&#45;&gt;Node3 -->
<g id="edge2" class="edge"><title>Node2&#45;&gt;Node3</title>
<path fill="none" stroke="midnightblue" d="M206.531,-72.1459C216.836,-67.3113 228.167,-61.9959 237.567,-57.5859"/>
<polygon fill="midnightblue" stroke="midnightblue" points="205.006,-68.9951 197.44,-76.411 207.98,-75.3324 205.006,-68.9951"/>
</g>
<!-- Node4&#45;&gt;Node3 -->
<g id="edge4" class="edge"><title>Node4&#45;&gt;Node3</title>
<path fill="none" stroke="midnightblue" d="M126.463,-48C158.741,-48 207.745,-48 235.937,-48"/>
<polygon fill="midnightblue" stroke="midnightblue" points="126.212,-44.5001 116.212,-48 126.212,-51.5001 126.212,-44.5001"/>
</g>
<!-- Node6 -->
<g id="node6" class="node"><title>Node6</title>
<g id="a_node6"><a xlink:href="../../d2/d8f/geosig_8f.html#af1d97c27096042d23d2ebbd38344ef4d" target="_top" xlink:title="geosig">
<polygon fill="white" stroke="black" points="152,-0.5 152,-19.5 200,-19.5 200,-0.5 152,-0.5"/>
<text text-anchor="middle" x="176" y="-7.5" font-family="Helvetica,sans-Serif" font-size="10.00">geosig</text>
</a>
</g>
</g>
<!-- Node5&#45;&gt;Node6 -->
<g id="edge6" class="edge"><title>Node5&#45;&gt;Node6</title>
<path fill="none" stroke="midnightblue" d="M122.941,-10C132.426,-10 142.871,-10 151.9,-10"/>
<polygon fill="midnightblue" stroke="midnightblue" points="122.767,-6.5001 112.767,-10 122.767,-13.5001 122.767,-6.5001"/>
</g>
<!-- Node6&#45;&gt;Node3 -->
<g id="edge7" class="edge"><title>Node6&#45;&gt;Node3</title>
<path fill="none" stroke="midnightblue" d="M206.531,-23.8541C216.836,-28.6887 228.167,-34.0041 237.567,-38.4141"/>
<polygon fill="midnightblue" stroke="midnightblue" points="207.98,-20.6676 197.44,-19.589 205.006,-27.0049 207.98,-20.6676"/>
</g>
</g>
</svg>
