<?xml version="1.0" encoding="UTF-8" standalone="no"?>
<!DOCTYPE svg PUBLIC "-//W3C//DTD SVG 1.1//EN"
 "http://www.w3.org/Graphics/SVG/1.1/DTD/svg11.dtd">
<!-- Generated by graphviz version 2.38.0 (20140413.2041)
 -->
<!-- Title: wndwt Pages: 1 -->
<svg width="480pt" height="294pt"
 viewBox="0.00 0.00 480.00 294.00" xmlns="http://www.w3.org/2000/svg" xmlns:xlink="http://www.w3.org/1999/xlink">
<g id="graph0" class="graph" transform="scale(1 1) rotate(0) translate(4 290)">
<title>wndwt</title>
<polygon fill="white" stroke="none" points="-4,4 -4,-290 476,-290 476,4 -4,4"/>
<!-- Node1 -->
<g id="node1" class="node"><title>Node1</title>
<polygon fill="#bfbfbf" stroke="black" points="0,-95.5 0,-114.5 47,-114.5 47,-95.5 0,-95.5"/>
<text text-anchor="middle" x="23.5" y="-102.5" font-family="Helvetica,sans-Serif" font-size="10.00">wndwt</text>
</g>
<!-- Node2 -->
<g id="node2" class="node"><title>Node2</title>
<g id="a_node2"><a xlink:href="../../de/d3c/dopsig_8f.html#ad7245c27cd33798a9892fefd0b6ca749" target="_top" xlink:title="dopsig">
<polygon fill="white" stroke="black" points="258,-228.5 258,-247.5 306,-247.5 306,-228.5 258,-228.5"/>
<text text-anchor="middle" x="282" y="-235.5" font-family="Helvetica,sans-Serif" font-size="10.00">dopsig</text>
</a>
</g>
</g>
<!-- Node1&#45;&gt;Node2 -->
<g id="edge1" class="edge"><title>Node1&#45;&gt;Node2</title>
<path fill="none" stroke="midnightblue" d="M47.7782,-120.224C58.4843,-127.199 71.3647,-135.554 83,-143 123.713,-169.055 131.458,-180.012 175,-201 202.391,-214.203 235.761,-225.054 257.652,-231.517"/>
<polygon fill="midnightblue" stroke="midnightblue" points="49.6592,-117.272 39.3715,-114.739 45.8343,-123.135 49.6592,-117.272"/>
</g>
<!-- Node5 -->
<g id="node5" class="node"><title>Node5</title>
<g id="a_node5"><a xlink:href="../../db/dfb/invwt_8f.html#a60a9c84e17e33143f25f150551b9cb67" target="_top" xlink:title="rinvmod">
<polygon fill="white" stroke="black" points="84,-114.5 84,-133.5 138,-133.5 138,-114.5 84,-114.5"/>
<text text-anchor="middle" x="111" y="-121.5" font-family="Helvetica,sans-Serif" font-size="10.00">rinvmod</text>
</a>
</g>
</g>
<!-- Node1&#45;&gt;Node5 -->
<g id="edge4" class="edge"><title>Node1&#45;&gt;Node5</title>
<path fill="none" stroke="midnightblue" d="M57.3025,-112.289C66.0371,-114.23 75.3583,-116.302 83.6951,-118.154"/>
<polygon fill="midnightblue" stroke="midnightblue" points="57.9336,-108.844 47.4124,-110.092 56.415,-115.678 57.9336,-108.844"/>
</g>
<!-- Node11 -->
<g id="node11" class="node"><title>Node11</title>
<g id="a_node11"><a xlink:href="../../db/dfb/invwt_8f.html#ab6e79552e825a19ab639d40a5aeb9980" target="_top" xlink:title="rinvmold">
<polygon fill="white" stroke="black" points="83,-38.5 83,-57.5 139,-57.5 139,-38.5 83,-38.5"/>
<text text-anchor="middle" x="111" y="-45.5" font-family="Helvetica,sans-Serif" font-size="10.00">rinvmold</text>
</a>
</g>
</g>
<!-- Node1&#45;&gt;Node11 -->
<g id="edge13" class="edge"><title>Node1&#45;&gt;Node11</title>
<path fill="none" stroke="midnightblue" d="M47.4604,-89.6931C62.8222,-79.4518 82.5587,-66.2942 95.7103,-57.5265"/>
<polygon fill="midnightblue" stroke="midnightblue" points="45.383,-86.8715 39.0039,-95.3307 49.2659,-92.6959 45.383,-86.8715"/>
</g>
<!-- Node13 -->
<g id="node13" class="node"><title>Node13</title>
<g id="a_node13"><a xlink:href="../../d8/d91/strat_8f.html#a74100c5b0c9102bce415b7b476b44bda" target="_top" xlink:title="strat">
<polygon fill="white" stroke="black" points="179.5,-38.5 179.5,-57.5 217.5,-57.5 217.5,-38.5 179.5,-38.5"/>
<text text-anchor="middle" x="198.5" y="-45.5" font-family="Helvetica,sans-Serif" font-size="10.00">strat</text>
</a>
</g>
</g>
<!-- Node1&#45;&gt;Node13 -->
<g id="edge16" class="edge"><title>Node1&#45;&gt;Node13</title>
<path fill="none" stroke="midnightblue" d="M56.7119,-94.3868C92.8748,-82.4719 150.286,-63.5561 179.356,-53.978"/>
<polygon fill="midnightblue" stroke="midnightblue" points="55.5192,-91.0946 47.1167,-97.5482 57.7098,-97.7431 55.5192,-91.0946"/>
</g>
<!-- Node14 -->
<g id="node14" class="node"><title>Node14</title>
<g id="a_node14"><a xlink:href="../../d0/dae/winterp_8f.html#ae38c8c525f918ef743c187dbd8c4c57d" target="_top" xlink:title="topwnd">
<polygon fill="white" stroke="black" points="85.5,-266.5 85.5,-285.5 136.5,-285.5 136.5,-266.5 85.5,-266.5"/>
<text text-anchor="middle" x="111" y="-273.5" font-family="Helvetica,sans-Serif" font-size="10.00">topwnd</text>
</a>
</g>
</g>
<!-- Node1&#45;&gt;Node14 -->
<g id="edge18" class="edge"><title>Node1&#45;&gt;Node14</title>
<path fill="none" stroke="midnightblue" d="M29.173,-124.595C36.8842,-154.176 54.3376,-211.117 83,-252 86.7443,-257.341 91.9024,-262.303 96.7076,-266.313"/>
<polygon fill="midnightblue" stroke="midnightblue" points="32.5164,-123.538 26.6915,-114.688 25.7262,-125.239 32.5164,-123.538"/>
</g>
<!-- Node15 -->
<g id="node15" class="node"><title>Node15</title>
<g id="a_node15"><a xlink:href="../../d5/de9/interp_8f.html#a1049f2c9a94baca31bcb0ea68f172dfb" target="_top" xlink:title="vrsmoo">
<polygon fill="white" stroke="black" points="85.5,-0.5 85.5,-19.5 136.5,-19.5 136.5,-0.5 85.5,-0.5"/>
<text text-anchor="middle" x="111" y="-7.5" font-family="Helvetica,sans-Serif" font-size="10.00">vrsmoo</text>
</a>
</g>
</g>
<!-- Node1&#45;&gt;Node15 -->
<g id="edge20" class="edge"><title>Node1&#45;&gt;Node15</title>
<path fill="none" stroke="midnightblue" d="M36.1823,-86.8081C47.118,-70.5806 64.5071,-46.7178 83,-29 86.4766,-25.6691 90.5787,-22.4785 94.5214,-19.6947"/>
<polygon fill="midnightblue" stroke="midnightblue" points="33.1151,-85.1016 30.5296,-95.3761 38.9581,-88.9564 33.1151,-85.1016"/>
</g>
<!-- Node3 -->
<g id="node3" class="node"><title>Node3</title>
<g id="a_node3"><a xlink:href="../../d2/d8f/geosig_8f.html#af1d97c27096042d23d2ebbd38344ef4d" target="_top" xlink:title="geosig">
<polygon fill="white" stroke="black" points="342,-152.5 342,-171.5 390,-171.5 390,-152.5 342,-152.5"/>
<text text-anchor="middle" x="366" y="-159.5" font-family="Helvetica,sans-Serif" font-size="10.00">geosig</text>
</a>
</g>
</g>
<!-- Node2&#45;&gt;Node3 -->
<g id="edge2" class="edge"><title>Node2&#45;&gt;Node3</title>
<path fill="none" stroke="midnightblue" d="M303.057,-221.589C304.058,-220.721 305.044,-219.854 306,-219 324.054,-202.866 344.147,-183.024 355.611,-171.514"/>
<polygon fill="midnightblue" stroke="midnightblue" points="300.709,-218.991 295.324,-228.116 305.224,-224.341 300.709,-218.991"/>
</g>
<!-- Node4 -->
<g id="node4" class="node"><title>Node4</title>
<g id="a_node4"><a xlink:href="../../d9/d21/wocss_8f.html#aacb06ae5117e6a3992c6e252e3537c17" target="_top" xlink:title="wocss">
<polygon fill="white" stroke="black" points="426,-78.5 426,-97.5 472,-97.5 472,-78.5 426,-78.5"/>
<text text-anchor="middle" x="449" y="-85.5" font-family="Helvetica,sans-Serif" font-size="10.00">wocss</text>
</a>
</g>
</g>
<!-- Node3&#45;&gt;Node4 -->
<g id="edge3" class="edge"><title>Node3&#45;&gt;Node4</title>
<path fill="none" stroke="midnightblue" d="M385.291,-145.29C401.362,-130.607 424.188,-109.755 437.408,-97.6766"/>
<polygon fill="midnightblue" stroke="midnightblue" points="382.612,-142.997 377.589,-152.326 387.333,-148.165 382.612,-142.997"/>
</g>
<!-- Node6 -->
<g id="node6" class="node"><title>Node6</title>
<g id="a_node6"><a xlink:href="../../dc/db1/windest_8f.html#a7234119f1ae14e4c8729972898fa3f6e" target="_top" xlink:title="betwin">
<polygon fill="white" stroke="black" points="258.5,-190.5 258.5,-209.5 305.5,-209.5 305.5,-190.5 258.5,-190.5"/>
<text text-anchor="middle" x="282" y="-197.5" font-family="Helvetica,sans-Serif" font-size="10.00">betwin</text>
</a>
</g>
</g>
<!-- Node5&#45;&gt;Node6 -->
<g id="edge5" class="edge"><title>Node5&#45;&gt;Node6</title>
<path fill="none" stroke="midnightblue" d="M126.585,-141.708C138.293,-154.686 155.885,-171.615 175,-181 201.684,-194.101 236.112,-198.258 258.371,-199.527"/>
<polygon fill="midnightblue" stroke="midnightblue" points="128.982,-139.129 119.785,-133.868 123.694,-143.716 128.982,-139.129"/>
</g>
<!-- Node7 -->
<g id="node7" class="node"><title>Node7</title>
<g id="a_node7"><a xlink:href="../../d6/de7/flowht_8f.html#ad643b696e317136e66ddd9c79bef191c" target="_top" xlink:title="flowht">
<polygon fill="white" stroke="black" points="176.5,-152.5 176.5,-171.5 220.5,-171.5 220.5,-152.5 176.5,-152.5"/>
<text text-anchor="middle" x="198.5" y="-159.5" font-family="Helvetica,sans-Serif" font-size="10.00">flowht</text>
</a>
</g>
</g>
<!-- Node5&#45;&gt;Node7 -->
<g id="edge7" class="edge"><title>Node5&#45;&gt;Node7</title>
<path fill="none" stroke="midnightblue" d="M142.913,-137.739C153.968,-142.652 166.169,-148.075 176.228,-152.546"/>
<polygon fill="midnightblue" stroke="midnightblue" points="144.135,-134.452 133.575,-133.589 141.292,-140.849 144.135,-134.452"/>
</g>
<!-- Node9 -->
<g id="node9" class="node"><title>Node9</title>
<g id="a_node9"><a xlink:href="../../d5/de9/interp_8f.html#a8189136387abfbf3929561396b96a644" target="_top" xlink:title="sfctrp">
<polygon fill="white" stroke="black" points="260.5,-95.5 260.5,-114.5 303.5,-114.5 303.5,-95.5 260.5,-95.5"/>
<text text-anchor="middle" x="282" y="-102.5" font-family="Helvetica,sans-Serif" font-size="10.00">sfctrp</text>
</a>
</g>
</g>
<!-- Node5&#45;&gt;Node9 -->
<g id="edge10" class="edge"><title>Node5&#45;&gt;Node9</title>
<path fill="none" stroke="midnightblue" d="M147.353,-111.361C156.261,-108.728 165.885,-106.345 175,-105 204.311,-100.676 238.68,-101.791 260.151,-103.214"/>
<polygon fill="midnightblue" stroke="midnightblue" points="146.159,-108.068 137.665,-114.4 148.254,-114.747 146.159,-108.068"/>
</g>
<!-- Node10 -->
<g id="node10" class="node"><title>Node10</title>
<g id="a_node10"><a xlink:href="../../d5/de9/interp_8f.html#adda9cde658e394c3eaedac3765789170" target="_top" xlink:title="vrsdis">
<polygon fill="white" stroke="black" points="176.5,-114.5 176.5,-133.5 220.5,-133.5 220.5,-114.5 176.5,-114.5"/>
<text text-anchor="middle" x="198.5" y="-121.5" font-family="Helvetica,sans-Serif" font-size="10.00">vrsdis</text>
</a>
</g>
</g>
<!-- Node5&#45;&gt;Node10 -->
<g id="edge12" class="edge"><title>Node5&#45;&gt;Node10</title>
<path fill="none" stroke="midnightblue" d="M148.265,-124C157.866,-124 167.914,-124 176.41,-124"/>
<polygon fill="midnightblue" stroke="midnightblue" points="148.117,-120.5 138.117,-124 148.117,-127.5 148.117,-120.5"/>
</g>
<!-- Node6&#45;&gt;Node3 -->
<g id="edge6" class="edge"><title>Node6&#45;&gt;Node3</title>
<path fill="none" stroke="midnightblue" d="M312.896,-186.146C323.328,-181.311 334.798,-175.996 344.315,-171.586"/>
<polygon fill="midnightblue" stroke="midnightblue" points="311.294,-183.031 303.692,-190.411 314.237,-189.382 311.294,-183.031"/>
</g>
<!-- Node8 -->
<g id="node8" class="node"><title>Node8</title>
<g id="a_node8"><a xlink:href="../../d4/de5/resig_8f.html#a31befcca77f3529ca75d0967a58b7e5a" target="_top" xlink:title="resig">
<polygon fill="white" stroke="black" points="262,-152.5 262,-171.5 302,-171.5 302,-152.5 262,-152.5"/>
<text text-anchor="middle" x="282" y="-159.5" font-family="Helvetica,sans-Serif" font-size="10.00">resig</text>
</a>
</g>
</g>
<!-- Node7&#45;&gt;Node8 -->
<g id="edge8" class="edge"><title>Node7&#45;&gt;Node8</title>
<path fill="none" stroke="midnightblue" d="M230.969,-162C241.421,-162 252.733,-162 261.953,-162"/>
<polygon fill="midnightblue" stroke="midnightblue" points="230.913,-158.5 220.913,-162 230.913,-165.5 230.913,-158.5"/>
</g>
<!-- Node8&#45;&gt;Node3 -->
<g id="edge9" class="edge"><title>Node8&#45;&gt;Node3</title>
<path fill="none" stroke="midnightblue" d="M312.146,-162C321.946,-162 332.734,-162 341.995,-162"/>
<polygon fill="midnightblue" stroke="midnightblue" points="312.019,-158.5 302.019,-162 312.019,-165.5 312.019,-158.5"/>
</g>
<!-- Node9&#45;&gt;Node3 -->
<g id="edge11" class="edge"><title>Node9&#45;&gt;Node3</title>
<path fill="none" stroke="midnightblue" d="M305.435,-120.595C320.107,-130.794 338.8,-143.788 351.295,-152.474"/>
<polygon fill="midnightblue" stroke="midnightblue" points="307.119,-117.503 296.91,-114.669 303.124,-123.251 307.119,-117.503"/>
</g>
<!-- Node12 -->
<g id="node12" class="node"><title>Node12</title>
<g id="a_node12"><a xlink:href="../../de/d34/betpar_8f.html#a50333a4e3d0fc6c4a3df88b75e75e4ba" target="_top" xlink:title="betpar">
<polygon fill="white" stroke="black" points="175,-0.5 175,-19.5 222,-19.5 222,-0.5 175,-0.5"/>
<text text-anchor="middle" x="198.5" y="-7.5" font-family="Helvetica,sans-Serif" font-size="10.00">betpar</text>
</a>
</g>
</g>
<!-- Node11&#45;&gt;Node12 -->
<g id="edge14" class="edge"><title>Node11&#45;&gt;Node12</title>
<path fill="none" stroke="midnightblue" d="M142.839,-34.2938C153.805,-29.4199 165.908,-24.0409 175.932,-19.5859"/>
<polygon fill="midnightblue" stroke="midnightblue" points="141.292,-31.1512 133.575,-38.411 144.135,-37.5479 141.292,-31.1512"/>
</g>
<!-- Node12&#45;&gt;Node4 -->
<g id="edge15" class="edge"><title>Node12&#45;&gt;Node4</title>
<path fill="none" stroke="midnightblue" d="M232.043,-20.2147C283.386,-36.3303 381.86,-67.2398 425.838,-81.0437"/>
<polygon fill="midnightblue" stroke="midnightblue" points="233.022,-16.8537 222.433,-17.1982 230.926,-23.5324 233.022,-16.8537"/>
</g>
<!-- Node13&#45;&gt;Node3 -->
<g id="edge17" class="edge"><title>Node13&#45;&gt;Node3</title>
<path fill="none" stroke="midnightblue" d="M227.583,-53.4319C250.34,-58.8566 282.39,-68.9047 306,-86 331.3,-104.319 351.12,-136.428 359.966,-152.405"/>
<polygon fill="midnightblue" stroke="midnightblue" points="228.063,-49.953 217.541,-51.1928 226.539,-56.7852 228.063,-49.953"/>
</g>
<!-- Node14&#45;&gt;Node3 -->
<g id="edge19" class="edge"><title>Node14&#45;&gt;Node3</title>
<path fill="none" stroke="midnightblue" d="M146.63,-281.315C187.85,-285.796 257.224,-287.332 306,-257 338.48,-236.802 355.91,-191.433 362.219,-171.594"/>
<polygon fill="midnightblue" stroke="midnightblue" points="146.886,-277.821 136.538,-280.098 146.047,-284.771 146.886,-277.821"/>
</g>
<!-- Node15&#45;&gt;Node12 -->
<g id="edge21" class="edge"><title>Node15&#45;&gt;Node12</title>
<path fill="none" stroke="midnightblue" d="M147.023,-10C156.424,-10 166.34,-10 174.872,-10"/>
<polygon fill="midnightblue" stroke="midnightblue" points="146.73,-6.5001 136.73,-10 146.73,-13.5001 146.73,-6.5001"/>
</g>
</g>
</svg>
