<?xml version="1.0" encoding="UTF-8" standalone="no"?>
<!DOCTYPE svg PUBLIC "-//W3C//DTD SVG 1.1//EN"
 "http://www.w3.org/Graphics/SVG/1.1/DTD/svg11.dtd">
<!-- Generated by graphviz version 2.38.0 (20140413.2041)
 -->
<!-- Title: cvt2p Pages: 1 -->
<svg width="302pt" height="142pt"
 viewBox="0.00 0.00 302.00 142.00" xmlns="http://www.w3.org/2000/svg" xmlns:xlink="http://www.w3.org/1999/xlink">
<g id="graph0" class="graph" transform="scale(1 1) rotate(0) translate(4 138)">
<title>cvt2p</title>
<polygon fill="white" stroke="none" points="-4,4 -4,-138 298,-138 298,4 -4,4"/>
<!-- Node1 -->
<g id="node1" class="node"><title>Node1</title>
<polygon fill="#bfbfbf" stroke="black" points="0,-57.5 0,-76.5 42,-76.5 42,-57.5 0,-57.5"/>
<text text-anchor="middle" x="21" y="-64.5" font-family="Helvetica,sans-Serif" font-size="10.00">cvt2p</text>
</g>
<!-- Node2 -->
<g id="node2" class="node"><title>Node2</title>
<g id="a_node2"><a xlink:href="../../de/d34/betpar_8f.html#a50333a4e3d0fc6c4a3df88b75e75e4ba" target="_top" xlink:title="betpar">
<polygon fill="white" stroke="black" points="164.5,-114.5 164.5,-133.5 211.5,-133.5 211.5,-114.5 164.5,-114.5"/>
<text text-anchor="middle" x="188" y="-121.5" font-family="Helvetica,sans-Serif" font-size="10.00">betpar</text>
</a>
</g>
</g>
<!-- Node1&#45;&gt;Node2 -->
<g id="edge1" class="edge"><title>Node1&#45;&gt;Node2</title>
<path fill="none" stroke="midnightblue" d="M41.0768,-82.9408C51.3981,-90.7608 64.7255,-99.6303 78,-105 106.314,-116.453 141.504,-121.009 164.107,-122.817"/>
<polygon fill="midnightblue" stroke="midnightblue" points="43.2017,-80.1592 33.181,-76.7188 38.8691,-85.6573 43.2017,-80.1592"/>
</g>
<!-- Node4 -->
<g id="node4" class="node"><title>Node4</title>
<g id="a_node4"><a xlink:href="../../dd/d8b/levwnd_8f.html#a071704a067fa176be873eaafe88cd40e" target="_top" xlink:title="levwnd">
<polygon fill="white" stroke="black" points="78,-76.5 78,-95.5 128,-95.5 128,-76.5 78,-76.5"/>
<text text-anchor="middle" x="103" y="-83.5" font-family="Helvetica,sans-Serif" font-size="10.00">levwnd</text>
</a>
</g>
</g>
<!-- Node1&#45;&gt;Node4 -->
<g id="edge3" class="edge"><title>Node1&#45;&gt;Node4</title>
<path fill="none" stroke="midnightblue" d="M52.1183,-74.1531C60.6092,-76.1697 69.734,-78.3368 77.8278,-80.2591"/>
<polygon fill="midnightblue" stroke="midnightblue" points="52.7255,-70.7 42.1874,-71.7945 51.108,-77.5106 52.7255,-70.7"/>
</g>
<!-- Node6 -->
<g id="node6" class="node"><title>Node6</title>
<g id="a_node6"><a xlink:href="../../db/de6/output_8f.html#abed9935939ea5035b19aa26abb05d9d1" target="_top" xlink:title="putout">
<polygon fill="white" stroke="black" points="80.5,-38.5 80.5,-57.5 125.5,-57.5 125.5,-38.5 80.5,-38.5"/>
<text text-anchor="middle" x="103" y="-45.5" font-family="Helvetica,sans-Serif" font-size="10.00">putout</text>
</a>
</g>
</g>
<!-- Node1&#45;&gt;Node6 -->
<g id="edge6" class="edge"><title>Node1&#45;&gt;Node6</title>
<path fill="none" stroke="midnightblue" d="M52.0106,-59.8725C61.4502,-57.6306 71.6828,-55.2003 80.4167,-53.126"/>
<polygon fill="midnightblue" stroke="midnightblue" points="51.108,-56.4894 42.1874,-62.2055 52.7255,-63.3 51.108,-56.4894"/>
</g>
<!-- Node7 -->
<g id="node7" class="node"><title>Node7</title>
<g id="a_node7"><a xlink:href="../../d8/d91/strat_8f.html#a74100c5b0c9102bce415b7b476b44bda" target="_top" xlink:title="strat">
<polygon fill="white" stroke="black" points="84,-0.5 84,-19.5 122,-19.5 122,-0.5 84,-0.5"/>
<text text-anchor="middle" x="103" y="-7.5" font-family="Helvetica,sans-Serif" font-size="10.00">strat</text>
</a>
</g>
</g>
<!-- Node1&#45;&gt;Node7 -->
<g id="edge8" class="edge"><title>Node1&#45;&gt;Node7</title>
<path fill="none" stroke="midnightblue" d="M43.8875,-51.4052C58.2017,-41.2063 76.4389,-28.2123 88.6295,-19.5265"/>
<polygon fill="midnightblue" stroke="midnightblue" points="41.6842,-48.6775 35.5709,-57.3307 45.7461,-54.3784 41.6842,-48.6775"/>
</g>
<!-- Node3 -->
<g id="node3" class="node"><title>Node3</title>
<g id="a_node3"><a xlink:href="../../d9/d21/wocss_8f.html#aacb06ae5117e6a3992c6e252e3537c17" target="_top" xlink:title="wocss">
<polygon fill="white" stroke="black" points="248,-57.5 248,-76.5 294,-76.5 294,-57.5 248,-57.5"/>
<text text-anchor="middle" x="271" y="-64.5" font-family="Helvetica,sans-Serif" font-size="10.00">wocss</text>
</a>
</g>
</g>
<!-- Node2&#45;&gt;Node3 -->
<g id="edge2" class="edge"><title>Node2&#45;&gt;Node3</title>
<path fill="none" stroke="midnightblue" d="M211.161,-108.405C225.654,-98.2063 244.119,-85.2123 256.462,-76.5265"/>
<polygon fill="midnightblue" stroke="midnightblue" points="208.904,-105.713 202.741,-114.331 212.933,-111.438 208.904,-105.713"/>
</g>
<!-- Node5 -->
<g id="node5" class="node"><title>Node5</title>
<g id="a_node5"><a xlink:href="../../d0/dae/winterp_8f.html#a3e383f3e341b5bceeba6c03663cfa072" target="_top" xlink:title="tstwnd">
<polygon fill="white" stroke="black" points="164.5,-76.5 164.5,-95.5 211.5,-95.5 211.5,-76.5 164.5,-76.5"/>
<text text-anchor="middle" x="188" y="-83.5" font-family="Helvetica,sans-Serif" font-size="10.00">tstwnd</text>
</a>
</g>
</g>
<!-- Node4&#45;&gt;Node5 -->
<g id="edge4" class="edge"><title>Node4&#45;&gt;Node5</title>
<path fill="none" stroke="midnightblue" d="M138.12,-86C147.004,-86 156.354,-86 164.471,-86"/>
<polygon fill="midnightblue" stroke="midnightblue" points="138.007,-82.5001 128.007,-86 138.007,-89.5001 138.007,-82.5001"/>
</g>
<!-- Node5&#45;&gt;Node3 -->
<g id="edge5" class="edge"><title>Node5&#45;&gt;Node3</title>
<path fill="none" stroke="midnightblue" d="M221.572,-78.3596C230.393,-76.2905 239.736,-74.0989 247.838,-72.1985"/>
<polygon fill="midnightblue" stroke="midnightblue" points="220.499,-75.0162 211.563,-80.7074 222.098,-81.8312 220.499,-75.0162"/>
</g>
<!-- Node6&#45;&gt;Node3 -->
<g id="edge7" class="edge"><title>Node6&#45;&gt;Node3</title>
<path fill="none" stroke="midnightblue" d="M135.689,-51.627C168.509,-55.3836 218.945,-61.1563 247.763,-64.4548"/>
<polygon fill="midnightblue" stroke="midnightblue" points="136.035,-48.1439 125.702,-50.4839 135.239,-55.0985 136.035,-48.1439"/>
</g>
<!-- Node8 -->
<g id="node8" class="node"><title>Node8</title>
<g id="a_node8"><a xlink:href="../../d2/d8f/geosig_8f.html#af1d97c27096042d23d2ebbd38344ef4d" target="_top" xlink:title="geosig">
<polygon fill="white" stroke="black" points="164,-0.5 164,-19.5 212,-19.5 212,-0.5 164,-0.5"/>
<text text-anchor="middle" x="188" y="-7.5" font-family="Helvetica,sans-Serif" font-size="10.00">geosig</text>
</a>
</g>
</g>
<!-- Node7&#45;&gt;Node8 -->
<g id="edge9" class="edge"><title>Node7&#45;&gt;Node8</title>
<path fill="none" stroke="midnightblue" d="M132.218,-10C142.56,-10 154.133,-10 163.968,-10"/>
<polygon fill="midnightblue" stroke="midnightblue" points="132.01,-6.5001 122.01,-10 132.01,-13.5001 132.01,-6.5001"/>
</g>
<!-- Node8&#45;&gt;Node3 -->
<g id="edge10" class="edge"><title>Node8&#45;&gt;Node3</title>
<path fill="none" stroke="midnightblue" d="M211.161,-25.5948C225.654,-35.7937 244.119,-48.7877 256.462,-57.4735"/>
<polygon fill="midnightblue" stroke="midnightblue" points="212.933,-22.5619 202.741,-19.6693 208.904,-28.2866 212.933,-22.5619"/>
</g>
</g>
</svg>
