<?xml version="1.0" encoding="UTF-8" standalone="no"?>
<!DOCTYPE svg PUBLIC "-//W3C//DTD SVG 1.1//EN"
 "http://www.w3.org/Graphics/SVG/1.1/DTD/svg11.dtd">
<!-- Generated by graphviz version 2.38.0 (20140413.2041)
 -->
<!-- Title: xlintr Pages: 1 -->
<svg width="299pt" height="66pt"
 viewBox="0.00 0.00 299.00 66.00" xmlns="http://www.w3.org/2000/svg" xmlns:xlink="http://www.w3.org/1999/xlink">
<g id="graph0" class="graph" transform="scale(1 1) rotate(0) translate(4 62)">
<title>xlintr</title>
<polygon fill="white" stroke="none" points="-4,4 -4,-62 295,-62 295,4 -4,4"/>
<!-- Node1 -->
<g id="node1" class="node"><title>Node1</title>
<polygon fill="#bfbfbf" stroke="black" points="0,-19.5 0,-38.5 39,-38.5 39,-19.5 0,-19.5"/>
<text text-anchor="middle" x="19.5" y="-26.5" font-family="Helvetica,sans-Serif" font-size="10.00">xlintr</text>
</g>
<!-- Node2 -->
<g id="node2" class="node"><title>Node2</title>
<g id="a_node2"><a xlink:href="../../dd/d8b/levwnd_8f.html#a071704a067fa176be873eaafe88cd40e" target="_top" xlink:title="levwnd">
<polygon fill="white" stroke="black" points="75,-38.5 75,-57.5 125,-57.5 125,-38.5 75,-38.5"/>
<text text-anchor="middle" x="100" y="-45.5" font-family="Helvetica,sans-Serif" font-size="10.00">levwnd</text>
</a>
</g>
</g>
<!-- Node1&#45;&gt;Node2 -->
<g id="edge1" class="edge"><title>Node1&#45;&gt;Node2</title>
<path fill="none" stroke="midnightblue" d="M48.981,-35.8935C57.4725,-37.9488 66.6928,-40.1804 74.8771,-42.1613"/>
<polygon fill="midnightblue" stroke="midnightblue" points="49.6462,-32.4535 39.1034,-33.5027 47.9994,-39.257 49.6462,-32.4535"/>
</g>
<!-- Node5 -->
<g id="node5" class="node"><title>Node5</title>
<g id="a_node5"><a xlink:href="../../d8/d91/strat_8f.html#a74100c5b0c9102bce415b7b476b44bda" target="_top" xlink:title="strat">
<polygon fill="white" stroke="black" points="81,-0.5 81,-19.5 119,-19.5 119,-0.5 81,-0.5"/>
<text text-anchor="middle" x="100" y="-7.5" font-family="Helvetica,sans-Serif" font-size="10.00">strat</text>
</a>
</g>
</g>
<!-- Node1&#45;&gt;Node5 -->
<g id="edge4" class="edge"><title>Node1&#45;&gt;Node5</title>
<path fill="none" stroke="midnightblue" d="M48.8459,-22.1392C59.4983,-19.5609 71.3146,-16.7009 80.8009,-14.4049"/>
<polygon fill="midnightblue" stroke="midnightblue" points="47.9994,-18.743 39.1034,-24.4973 49.6462,-25.5465 47.9994,-18.743"/>
</g>
<!-- Node3 -->
<g id="node3" class="node"><title>Node3</title>
<g id="a_node3"><a xlink:href="../../d0/dae/winterp_8f.html#a3e383f3e341b5bceeba6c03663cfa072" target="_top" xlink:title="tstwnd">
<polygon fill="white" stroke="black" points="161.5,-38.5 161.5,-57.5 208.5,-57.5 208.5,-38.5 161.5,-38.5"/>
<text text-anchor="middle" x="185" y="-45.5" font-family="Helvetica,sans-Serif" font-size="10.00">tstwnd</text>
</a>
</g>
</g>
<!-- Node2&#45;&gt;Node3 -->
<g id="edge2" class="edge"><title>Node2&#45;&gt;Node3</title>
<path fill="none" stroke="midnightblue" d="M135.12,-48C144.004,-48 153.354,-48 161.471,-48"/>
<polygon fill="midnightblue" stroke="midnightblue" points="135.007,-44.5001 125.007,-48 135.007,-51.5001 135.007,-44.5001"/>
</g>
<!-- Node4 -->
<g id="node4" class="node"><title>Node4</title>
<g id="a_node4"><a xlink:href="../../d9/d21/wocss_8f.html#aacb06ae5117e6a3992c6e252e3537c17" target="_top" xlink:title="wocss">
<polygon fill="white" stroke="black" points="245,-19.5 245,-38.5 291,-38.5 291,-19.5 245,-19.5"/>
<text text-anchor="middle" x="268" y="-26.5" font-family="Helvetica,sans-Serif" font-size="10.00">wocss</text>
</a>
</g>
</g>
<!-- Node3&#45;&gt;Node4 -->
<g id="edge3" class="edge"><title>Node3&#45;&gt;Node4</title>
<path fill="none" stroke="midnightblue" d="M218.572,-40.3596C227.393,-38.2905 236.736,-36.0989 244.838,-34.1985"/>
<polygon fill="midnightblue" stroke="midnightblue" points="217.499,-37.0162 208.563,-42.7074 219.098,-43.8312 217.499,-37.0162"/>
</g>
<!-- Node6 -->
<g id="node6" class="node"><title>Node6</title>
<g id="a_node6"><a xlink:href="../../d2/d8f/geosig_8f.html#af1d97c27096042d23d2ebbd38344ef4d" target="_top" xlink:title="geosig">
<polygon fill="white" stroke="black" points="161,-0.5 161,-19.5 209,-19.5 209,-0.5 161,-0.5"/>
<text text-anchor="middle" x="185" y="-7.5" font-family="Helvetica,sans-Serif" font-size="10.00">geosig</text>
</a>
</g>
</g>
<!-- Node5&#45;&gt;Node6 -->
<g id="edge5" class="edge"><title>Node5&#45;&gt;Node6</title>
<path fill="none" stroke="midnightblue" d="M129.218,-10C139.56,-10 151.133,-10 160.968,-10"/>
<polygon fill="midnightblue" stroke="midnightblue" points="129.01,-6.5001 119.01,-10 129.01,-13.5001 129.01,-6.5001"/>
</g>
<!-- Node6&#45;&gt;Node4 -->
<g id="edge6" class="edge"><title>Node6&#45;&gt;Node4</title>
<path fill="none" stroke="midnightblue" d="M219.213,-17.7907C227.808,-19.8067 236.855,-21.929 244.737,-23.7779"/>
<polygon fill="midnightblue" stroke="midnightblue" points="219.964,-14.3718 209.429,-15.4956 218.365,-21.1869 219.964,-14.3718"/>
</g>
</g>
</svg>
