<?xml version="1.0" encoding="UTF-8" standalone="no"?>
<!DOCTYPE svg PUBLIC "-//W3C//DTD SVG 1.1//EN"
 "http://www.w3.org/Graphics/SVG/1.1/DTD/svg11.dtd">
<!-- Generated by graphviz version 2.38.0 (20140413.2041)
 -->
<!-- Title: altset Pages: 1 -->
<svg width="290pt" height="47pt"
 viewBox="0.00 0.00 290.00 47.00" xmlns="http://www.w3.org/2000/svg" xmlns:xlink="http://www.w3.org/1999/xlink">
<g id="graph0" class="graph" transform="scale(1 1) rotate(0) translate(4 43)">
<title>altset</title>
<polygon fill="white" stroke="none" points="-4,4 -4,-43 286,-43 286,4 -4,4"/>
<!-- Node1 -->
<g id="node1" class="node"><title>Node1</title>
<polygon fill="#bfbfbf" stroke="black" points="0,-19.5 0,-38.5 42,-38.5 42,-19.5 0,-19.5"/>
<text text-anchor="middle" x="21" y="-26.5" font-family="Helvetica,sans-Serif" font-size="10.00">altset</text>
</g>
<!-- Node2 -->
<g id="node2" class="node"><title>Node2</title>
<g id="a_node2"><a xlink:href="../../d2/d8f/geosig_8f.html#af1d97c27096042d23d2ebbd38344ef4d" target="_top" xlink:title="geosig">
<polygon fill="white" stroke="black" points="152,-19.5 152,-38.5 200,-38.5 200,-19.5 152,-19.5"/>
<text text-anchor="middle" x="176" y="-26.5" font-family="Helvetica,sans-Serif" font-size="10.00">geosig</text>
</a>
</g>
</g>
<!-- Node1&#45;&gt;Node2 -->
<g id="edge1" class="edge"><title>Node1&#45;&gt;Node2</title>
<path fill="none" stroke="midnightblue" d="M52.0848,-29C81.4093,-29 125.363,-29 151.996,-29"/>
<polygon fill="midnightblue" stroke="midnightblue" points="52.0021,-25.5001 42.0021,-29 52.002,-32.5001 52.0021,-25.5001"/>
</g>
<!-- Node4 -->
<g id="node4" class="node"><title>Node4</title>
<g id="a_node4"><a xlink:href="../../d8/d91/strat_8f.html#a74100c5b0c9102bce415b7b476b44bda" target="_top" xlink:title="strat">
<polygon fill="white" stroke="black" points="78,-0.5 78,-19.5 116,-19.5 116,-0.5 78,-0.5"/>
<text text-anchor="middle" x="97" y="-7.5" font-family="Helvetica,sans-Serif" font-size="10.00">strat</text>
</a>
</g>
</g>
<!-- Node1&#45;&gt;Node4 -->
<g id="edge3" class="edge"><title>Node1&#45;&gt;Node4</title>
<path fill="none" stroke="midnightblue" d="M52.0961,-21.2726C60.82,-19.0327 70.0747,-16.6565 77.8265,-14.6662"/>
<polygon fill="midnightblue" stroke="midnightblue" points="51.0362,-17.9311 42.2208,-23.8082 52.7771,-24.7112 51.0362,-17.9311"/>
</g>
<!-- Node3 -->
<g id="node3" class="node"><title>Node3</title>
<g id="a_node3"><a xlink:href="../../d9/d21/wocss_8f.html#aacb06ae5117e6a3992c6e252e3537c17" target="_top" xlink:title="wocss">
<polygon fill="white" stroke="black" points="236,-19.5 236,-38.5 282,-38.5 282,-19.5 236,-19.5"/>
<text text-anchor="middle" x="259" y="-26.5" font-family="Helvetica,sans-Serif" font-size="10.00">wocss</text>
</a>
</g>
</g>
<!-- Node2&#45;&gt;Node3 -->
<g id="edge2" class="edge"><title>Node2&#45;&gt;Node3</title>
<path fill="none" stroke="midnightblue" d="M210.493,-29C219.004,-29 227.941,-29 235.737,-29"/>
<polygon fill="midnightblue" stroke="midnightblue" points="210.429,-25.5001 200.429,-29 210.429,-32.5001 210.429,-25.5001"/>
</g>
<!-- Node4&#45;&gt;Node2 -->
<g id="edge4" class="edge"><title>Node4&#45;&gt;Node2</title>
<path fill="none" stroke="midnightblue" d="M126.109,-16.936C134.589,-19.0286 143.797,-21.3005 151.911,-23.3026"/>
<polygon fill="midnightblue" stroke="midnightblue" points="126.795,-13.5004 116.248,-14.5027 125.118,-20.2966 126.795,-13.5004"/>
</g>
</g>
</svg>
