<?xml version="1.0" encoding="UTF-8" standalone="no"?>
<!DOCTYPE svg PUBLIC "-//W3C//DTD SVG 1.1//EN"
 "http://www.w3.org/Graphics/SVG/1.1/DTD/svg11.dtd">
<!-- Generated by graphviz version 2.38.0 (20140413.2041)
 -->
<!-- Title: setint Pages: 1 -->
<svg width="213pt" height="28pt"
 viewBox="0.00 0.00 213.00 28.00" xmlns="http://www.w3.org/2000/svg" xmlns:xlink="http://www.w3.org/1999/xlink">
<g id="graph0" class="graph" transform="scale(1 1) rotate(0) translate(4 24)">
<title>setint</title>
<polygon fill="white" stroke="none" points="-4,4 -4,-24 209,-24 209,4 -4,4"/>
<!-- Node1 -->
<g id="node1" class="node"><title>Node1</title>
<polygon fill="#bfbfbf" stroke="black" points="0,-0.5 0,-19.5 42,-19.5 42,-0.5 0,-0.5"/>
<text text-anchor="middle" x="21" y="-7.5" font-family="Helvetica,sans-Serif" font-size="10.00">setint</text>
</g>
<!-- Node2 -->
<g id="node2" class="node"><title>Node2</title>
<g id="a_node2"><a xlink:href="../../db/de6/output_8f.html#abed9935939ea5035b19aa26abb05d9d1" target="_top" xlink:title="putout">
<polygon fill="white" stroke="black" points="78,-0.5 78,-19.5 123,-19.5 123,-0.5 78,-0.5"/>
<text text-anchor="middle" x="100.5" y="-7.5" font-family="Helvetica,sans-Serif" font-size="10.00">putout</text>
</a>
</g>
</g>
<!-- Node1&#45;&gt;Node2 -->
<g id="edge1" class="edge"><title>Node1&#45;&gt;Node2</title>
<path fill="none" stroke="midnightblue" d="M52.3714,-10C60.906,-10 70.0101,-10 77.9184,-10"/>
<polygon fill="midnightblue" stroke="midnightblue" points="52.3622,-6.5001 42.3622,-10 52.3622,-13.5001 52.3622,-6.5001"/>
</g>
<!-- Node3 -->
<g id="node3" class="node"><title>Node3</title>
<g id="a_node3"><a xlink:href="../../d9/d21/wocss_8f.html#aacb06ae5117e6a3992c6e252e3537c17" target="_top" xlink:title="wocss">
<polygon fill="white" stroke="black" points="159,-0.5 159,-19.5 205,-19.5 205,-0.5 159,-0.5"/>
<text text-anchor="middle" x="182" y="-7.5" font-family="Helvetica,sans-Serif" font-size="10.00">wocss</text>
</a>
</g>
</g>
<!-- Node2&#45;&gt;Node3 -->
<g id="edge2" class="edge"><title>Node2&#45;&gt;Node3</title>
<path fill="none" stroke="midnightblue" d="M133.269,-10C141.805,-10 150.853,-10 158.749,-10"/>
<polygon fill="midnightblue" stroke="midnightblue" points="133.224,-6.5001 123.224,-10 133.224,-13.5001 133.224,-6.5001"/>
</g>
</g>
</svg>
