<?xml version="1.0" encoding="UTF-8" standalone="no"?>
<!DOCTYPE svg PUBLIC "-//W3C//DTD SVG 1.1//EN"
 "http://www.w3.org/Graphics/SVG/1.1/DTD/svg11.dtd">
<!-- Generated by graphviz version 2.38.0 (20140413.2041)
 -->
<!-- Title: lgntrp Pages: 1 -->
<svg width="304pt" height="142pt"
 viewBox="0.00 0.00 304.00 142.00" xmlns="http://www.w3.org/2000/svg" xmlns:xlink="http://www.w3.org/1999/xlink">
<g id="graph0" class="graph" transform="scale(1 1) rotate(0) translate(4 138)">
<title>lgntrp</title>
<polygon fill="white" stroke="none" points="-4,4 -4,-138 300,-138 300,4 -4,4"/>
<!-- Node1 -->
<g id="node1" class="node"><title>Node1</title>
<polygon fill="#bfbfbf" stroke="black" points="0,-57.5 0,-76.5 44,-76.5 44,-57.5 0,-57.5"/>
<text text-anchor="middle" x="22" y="-64.5" font-family="Helvetica,sans-Serif" font-size="10.00">lgntrp</text>
</g>
<!-- Node2 -->
<g id="node2" class="node"><title>Node2</title>
<g id="a_node2"><a xlink:href="../../dc/db1/windest_8f.html#a7234119f1ae14e4c8729972898fa3f6e" target="_top" xlink:title="betwin">
<polygon fill="white" stroke="black" points="81.5,-114.5 81.5,-133.5 128.5,-133.5 128.5,-114.5 81.5,-114.5"/>
<text text-anchor="middle" x="105" y="-121.5" font-family="Helvetica,sans-Serif" font-size="10.00">betwin</text>
</a>
</g>
</g>
<!-- Node1&#45;&gt;Node2 -->
<g id="edge1" class="edge"><title>Node1&#45;&gt;Node2</title>
<path fill="none" stroke="midnightblue" d="M45.1611,-82.5948C59.6542,-92.7937 78.1194,-105.788 90.4624,-114.474"/>
<polygon fill="midnightblue" stroke="midnightblue" points="46.9329,-79.5619 36.7405,-76.6693 42.9044,-85.2866 46.9329,-79.5619"/>
</g>
<!-- Node5 -->
<g id="node5" class="node"><title>Node5</title>
<g id="a_node5"><a xlink:href="../../de/d3c/dopsig_8f.html#ad7245c27cd33798a9892fefd0b6ca749" target="_top" xlink:title="dopsig">
<polygon fill="white" stroke="black" points="81,-76.5 81,-95.5 129,-95.5 129,-76.5 81,-76.5"/>
<text text-anchor="middle" x="105" y="-83.5" font-family="Helvetica,sans-Serif" font-size="10.00">dopsig</text>
</a>
</g>
</g>
<!-- Node1&#45;&gt;Node5 -->
<g id="edge4" class="edge"><title>Node1&#45;&gt;Node5</title>
<path fill="none" stroke="midnightblue" d="M54.276,-74.3363C63.1249,-76.412 72.5943,-78.6332 80.87,-80.5744"/>
<polygon fill="midnightblue" stroke="midnightblue" points="54.8169,-70.8683 44.2818,-71.992 53.2182,-77.6833 54.8169,-70.8683"/>
</g>
<!-- Node6 -->
<g id="node6" class="node"><title>Node6</title>
<g id="a_node6"><a xlink:href="../../dd/d8b/levwnd_8f.html#a071704a067fa176be873eaafe88cd40e" target="_top" xlink:title="levwnd">
<polygon fill="white" stroke="black" points="80,-0.5 80,-19.5 130,-19.5 130,-0.5 80,-0.5"/>
<text text-anchor="middle" x="105" y="-7.5" font-family="Helvetica,sans-Serif" font-size="10.00">levwnd</text>
</a>
</g>
</g>
<!-- Node1&#45;&gt;Node6 -->
<g id="edge6" class="edge"><title>Node1&#45;&gt;Node6</title>
<path fill="none" stroke="midnightblue" d="M45.1611,-51.4052C59.6542,-41.2063 78.1194,-28.2123 90.4624,-19.5265"/>
<polygon fill="midnightblue" stroke="midnightblue" points="42.9044,-48.7134 36.7405,-57.3307 46.9329,-54.4381 42.9044,-48.7134"/>
</g>
<!-- Node8 -->
<g id="node8" class="node"><title>Node8</title>
<g id="a_node8"><a xlink:href="../../d5/de9/interp_8f.html#a8189136387abfbf3929561396b96a644" target="_top" xlink:title="sfctrp">
<polygon fill="white" stroke="black" points="83.5,-38.5 83.5,-57.5 126.5,-57.5 126.5,-38.5 83.5,-38.5"/>
<text text-anchor="middle" x="105" y="-45.5" font-family="Helvetica,sans-Serif" font-size="10.00">sfctrp</text>
</a>
</g>
</g>
<!-- Node1&#45;&gt;Node8 -->
<g id="edge9" class="edge"><title>Node1&#45;&gt;Node8</title>
<path fill="none" stroke="midnightblue" d="M54.1245,-59.6992C63.9394,-57.3969 74.5316,-54.9123 83.4195,-52.8275"/>
<polygon fill="midnightblue" stroke="midnightblue" points="53.2182,-56.3167 44.2818,-62.008 54.8169,-63.1317 53.2182,-56.3167"/>
</g>
<!-- Node3 -->
<g id="node3" class="node"><title>Node3</title>
<g id="a_node3"><a xlink:href="../../d2/d8f/geosig_8f.html#af1d97c27096042d23d2ebbd38344ef4d" target="_top" xlink:title="geosig">
<polygon fill="white" stroke="black" points="166,-66.5 166,-85.5 214,-85.5 214,-66.5 166,-66.5"/>
<text text-anchor="middle" x="190" y="-73.5" font-family="Helvetica,sans-Serif" font-size="10.00">geosig</text>
</a>
</g>
</g>
<!-- Node2&#45;&gt;Node3 -->
<g id="edge2" class="edge"><title>Node2&#45;&gt;Node3</title>
<path fill="none" stroke="midnightblue" d="M131.532,-109.234C144.872,-101.52 160.808,-92.3036 172.512,-85.5353"/>
<polygon fill="midnightblue" stroke="midnightblue" points="129.701,-106.25 122.796,-114.286 133.205,-112.31 129.701,-106.25"/>
</g>
<!-- Node4 -->
<g id="node4" class="node"><title>Node4</title>
<g id="a_node4"><a xlink:href="../../d9/d21/wocss_8f.html#aacb06ae5117e6a3992c6e252e3537c17" target="_top" xlink:title="wocss">
<polygon fill="white" stroke="black" points="250,-42.5 250,-61.5 296,-61.5 296,-42.5 250,-42.5"/>
<text text-anchor="middle" x="273" y="-49.5" font-family="Helvetica,sans-Serif" font-size="10.00">wocss</text>
</a>
</g>
</g>
<!-- Node3&#45;&gt;Node4 -->
<g id="edge3" class="edge"><title>Node3&#45;&gt;Node4</title>
<path fill="none" stroke="midnightblue" d="M224.213,-66.1591C232.808,-63.6125 241.855,-60.9318 249.737,-58.5963"/>
<polygon fill="midnightblue" stroke="midnightblue" points="223.022,-62.8615 214.429,-69.0582 225.011,-69.573 223.022,-62.8615"/>
</g>
<!-- Node5&#45;&gt;Node3 -->
<g id="edge5" class="edge"><title>Node5&#45;&gt;Node3</title>
<path fill="none" stroke="midnightblue" d="M139.201,-81.9998C148.084,-80.9297 157.495,-79.7958 165.716,-78.8053"/>
<polygon fill="midnightblue" stroke="midnightblue" points="138.63,-78.5433 129.12,-83.2144 139.467,-85.4931 138.63,-78.5433"/>
</g>
<!-- Node7 -->
<g id="node7" class="node"><title>Node7</title>
<g id="a_node7"><a xlink:href="../../d0/dae/winterp_8f.html#a3e383f3e341b5bceeba6c03663cfa072" target="_top" xlink:title="tstwnd">
<polygon fill="white" stroke="black" points="166.5,-19.5 166.5,-38.5 213.5,-38.5 213.5,-19.5 166.5,-19.5"/>
<text text-anchor="middle" x="190" y="-26.5" font-family="Helvetica,sans-Serif" font-size="10.00">tstwnd</text>
</a>
</g>
</g>
<!-- Node6&#45;&gt;Node7 -->
<g id="edge7" class="edge"><title>Node6&#45;&gt;Node7</title>
<path fill="none" stroke="midnightblue" d="M139.83,-17.7443C148.801,-19.7977 158.266,-21.9645 166.471,-23.8427"/>
<polygon fill="midnightblue" stroke="midnightblue" points="140.536,-14.3154 130.007,-15.4956 138.974,-21.1389 140.536,-14.3154"/>
</g>
<!-- Node7&#45;&gt;Node4 -->
<g id="edge8" class="edge"><title>Node7&#45;&gt;Node4</title>
<path fill="none" stroke="midnightblue" d="M223.285,-38.1673C232.19,-40.6959 241.648,-43.3815 249.838,-45.7071"/>
<polygon fill="midnightblue" stroke="midnightblue" points="224.139,-34.7715 213.563,-35.4068 222.227,-41.5053 224.139,-34.7715"/>
</g>
<!-- Node8&#45;&gt;Node3 -->
<g id="edge10" class="edge"><title>Node8&#45;&gt;Node3</title>
<path fill="none" stroke="midnightblue" d="M136.249,-58.2043C145.994,-61.4919 156.634,-65.0815 165.79,-68.1702"/>
<polygon fill="midnightblue" stroke="midnightblue" points="137.111,-54.8015 126.517,-54.9214 134.873,-61.4343 137.111,-54.8015"/>
</g>
</g>
</svg>
