<?xml version="1.0" encoding="UTF-8" standalone="no"?>
<!DOCTYPE svg PUBLIC "-//W3C//DTD SVG 1.1//EN"
 "http://www.w3.org/Graphics/SVG/1.1/DTD/svg11.dtd">
<!-- Generated by graphviz version 2.38.0 (20140413.2041)
 -->
<!-- Title: wocss Pages: 1 -->
<!--zoomable 902 -->
<svg id="main" version="1.1" xmlns="http://www.w3.org/2000/svg" xmlns:xlink="http://www.w3.org/1999/xlink" xml:space="preserve" onload="init(evt)">
<style type="text/css"><![CDATA[
.edge:hover path { stroke: red; }
.edge:hover polygon { stroke: red; fill: red; }
]]></style>
<script type="text/javascript"><![CDATA[
var edges = document.getElementsByTagName('g');
if (edges && edges.length) {
  for (var i=0;i<edges.length;i++) {
    if (edges[i].id.substr(0,4)=='edge') {
      edges[i].setAttribute('class','edge');
    }
  }
}
]]></script>
        <defs>
                <circle id="rim" cx="0" cy="0" r="7"/>
                <circle id="rim2" cx="0" cy="0" r="3.5"/>
                <g id="zoomPlus">
                        <use xlink:href="#rim" fill="#404040">
                                <set attributeName="fill" to="#808080" begin="zoomplus.mouseover" end="zoomplus.mouseout"/>
                        </use>
                        <path d="M-4,0h8M0,-4v8" fill="none" stroke="white" stroke-width="1.5" pointer-events="none"/>
                </g>
                <g id="zoomMin">
                        <use xlink:href="#rim" fill="#404040">
                                <set attributeName="fill" to="#808080" begin="zoomminus.mouseover" end="zoomminus.mouseout"/>
                        </use>
                        <path d="M-4,0h8" fill="none" stroke="white" stroke-width="1.5" pointer-events="none"/>
                </g>
                <g id="dirArrow">
                        <path fill="none" stroke="white" stroke-width="1.5" d="M0,-3.0v7 M-2.5,-0.5L0,-3.0L2.5,-0.5"/>
                </g>
               <g id="resetDef">
                       <use xlink:href="#rim2" fill="#404040">
                               <set attributeName="fill" to="#808080" begin="reset.mouseover" end="reset.mouseout"/>
                       </use>
               </g>
        </defs>

<script type="text/javascript">
var viewWidth = 483;
var viewHeight = 902;
var sectionId = 'dynsection-0';
</script>
<script xlink:href="../../svgpan.js"/>
<svg id="graph" class="graph">
<g id="viewport">
<title>wocss</title>
<polygon fill="white" stroke="none" points="-4,4 -4,-898 479,-898 479,4 -4,4"/>
<!-- Node1 -->
<g id="node1" class="node"><title>Node1</title>
<polygon fill="#bfbfbf" stroke="black" points="0,-475.5 0,-494.5 46,-494.5 46,-475.5 0,-475.5"/>
<text text-anchor="middle" x="23" y="-482.5" font-family="Helvetica,sans-Serif" font-size="10.00">wocss</text>
</g>
<!-- Node2 -->
<g id="node2" class="node"><title>Node2</title>
<g id="a_node2"><a xlink:href="../../d5/dd3/input_8f.html#ae21437da36291622efefe6930615c57d" target="_top" xlink:title="runrd">
<polygon fill="white" stroke="black" points="86,-760.5 86,-779.5 127,-779.5 127,-760.5 86,-760.5"/>
<text text-anchor="middle" x="106.5" y="-767.5" font-family="Helvetica,sans-Serif" font-size="10.00">runrd</text>
</a>
</g>
</g>
<!-- Node1&#45;&gt;Node2 -->
<g id="edge1" class="edge"><title>Node1&#45;&gt;Node2</title>
<path fill="none" stroke="midnightblue" d="M23.8785,-494.543C23.8435,-530.869 27.6501,-662.905 82,-751 82.4821,-751.781 83.0081,-752.545 83.5697,-753.289"/>
<polygon fill="midnightblue" stroke="midnightblue" points="81.0876,-755.757 90.5754,-760.472 86.0988,-750.869 81.0876,-755.757"/>
</g>
<!-- Node3 -->
<g id="node3" class="node"><title>Node3</title>
<g id="a_node3"><a xlink:href="../../d2/d2b/topo_8f.html#a254ca4606a5b6ea7918135631d6236a6" target="_top" xlink:title="topo">
<polygon fill="white" stroke="black" points="87.5,-722.5 87.5,-741.5 125.5,-741.5 125.5,-722.5 87.5,-722.5"/>
<text text-anchor="middle" x="106.5" y="-729.5" font-family="Helvetica,sans-Serif" font-size="10.00">topo</text>
</a>
</g>
</g>
<!-- Node1&#45;&gt;Node3 -->
<g id="edge2" class="edge"><title>Node1&#45;&gt;Node3</title>
<path fill="none" stroke="midnightblue" d="M24.3187,-494.52C25.8316,-527.473 34.3924,-638.725 82,-713 82.4955,-713.773 83.033,-714.529 83.6045,-715.267"/>
<polygon fill="midnightblue" stroke="midnightblue" points="81.1463,-717.759 90.6621,-722.417 86.1283,-712.842 81.1463,-717.759"/>
</g>
<!-- Node4 -->
<g id="node4" class="node"><title>Node4</title>
<g id="a_node4"><a xlink:href="../../d0/da4/utils_8f.html#a0ec8b5fbb2feb63aa9242877187eb7cc" target="_top" xlink:title="julmin">
<polygon fill="white" stroke="black" points="85,-684.5 85,-703.5 128,-703.5 128,-684.5 85,-684.5"/>
<text text-anchor="middle" x="106.5" y="-691.5" font-family="Helvetica,sans-Serif" font-size="10.00">julmin</text>
</a>
</g>
</g>
<!-- Node1&#45;&gt;Node4 -->
<g id="edge3" class="edge"><title>Node1&#45;&gt;Node4</title>
<path fill="none" stroke="midnightblue" d="M24.9268,-494.538C28.166,-523.865 41.1035,-614.391 82,-675 82.5135,-675.761 83.0667,-676.507 83.6516,-677.236"/>
<polygon fill="midnightblue" stroke="midnightblue" points="81.2258,-679.76 90.7793,-684.34 86.1674,-674.802 81.2258,-679.76"/>
</g>
<!-- Node5 -->
<g id="node5" class="node"><title>Node5</title>
<g id="a_node5"><a xlink:href="../../d2/d8f/geosig_8f.html#af1d97c27096042d23d2ebbd38344ef4d" target="_top" xlink:title="geosig">
<polygon fill="white" stroke="black" points="82.5,-646.5 82.5,-665.5 130.5,-665.5 130.5,-646.5 82.5,-646.5"/>
<text text-anchor="middle" x="106.5" y="-653.5" font-family="Helvetica,sans-Serif" font-size="10.00">geosig</text>
</a>
</g>
</g>
<!-- Node1&#45;&gt;Node5 -->
<g id="edge4" class="edge"><title>Node1&#45;&gt;Node5</title>
<path fill="none" stroke="midnightblue" d="M28.6153,-494.684C41.6714,-522.077 79.0444,-600.492 96.4177,-636.944"/>
<polygon fill="midnightblue" stroke="midnightblue" points="93.4733,-638.901 100.935,-646.423 99.7923,-635.89 93.4733,-638.901"/>
</g>
<!-- Node22 -->
<g id="node22" class="node"><title>Node22</title>
<g id="a_node22"><a xlink:href="../../db/de6/bal5_8f.html#ac53784df3d253de59a6985152298761f" target="_top" xlink:title="bal5">
<polygon fill="white" stroke="black" points="88.5,-133.5 88.5,-152.5 124.5,-152.5 124.5,-133.5 88.5,-133.5"/>
<text text-anchor="middle" x="106.5" y="-140.5" font-family="Helvetica,sans-Serif" font-size="10.00">bal5</text>
</a>
</g>
</g>
<!-- Node1&#45;&gt;Node22 -->
<g id="edge29" class="edge"><title>Node1&#45;&gt;Node22</title>
<path fill="none" stroke="midnightblue" d="M26.2648,-475.496C37.2997,-429.19 85.5199,-226.843 100.822,-162.629"/>
<polygon fill="midnightblue" stroke="midnightblue" points="104.294,-163.159 103.207,-152.62 97.4846,-161.536 104.294,-163.159"/>
</g>
<!-- Node26 -->
<g id="node26" class="node"><title>Node26</title>
<g id="a_node26"><a xlink:href="../../de/d34/betpar_8f.html#a50333a4e3d0fc6c4a3df88b75e75e4ba" target="_top" xlink:title="betpar">
<polygon fill="white" stroke="black" points="168.5,-475.5 168.5,-494.5 215.5,-494.5 215.5,-475.5 168.5,-475.5"/>
<text text-anchor="middle" x="192" y="-482.5" font-family="Helvetica,sans-Serif" font-size="10.00">betpar</text>
</a>
</g>
</g>
<!-- Node1&#45;&gt;Node26 -->
<g id="edge33" class="edge"><title>Node1&#45;&gt;Node26</title>
<path fill="none" stroke="midnightblue" d="M46.1763,-485C74.9181,-485 125.264,-485 158.371,-485"/>
<polygon fill="midnightblue" stroke="midnightblue" points="158.465,-488.5 168.465,-485 158.465,-481.5 158.465,-488.5"/>
</g>
<!-- Node29 -->
<g id="node29" class="node"><title>Node29</title>
<g id="a_node29"><a xlink:href="../../d0/dae/winterp_8f.html#a3e383f3e341b5bceeba6c03663cfa072" target="_top" xlink:title="tstwnd">
<polygon fill="white" stroke="black" points="83,-304.5 83,-323.5 130,-323.5 130,-304.5 83,-304.5"/>
<text text-anchor="middle" x="106.5" y="-311.5" font-family="Helvetica,sans-Serif" font-size="10.00">tstwnd</text>
</a>
</g>
</g>
<!-- Node1&#45;&gt;Node29 -->
<g id="edge40" class="edge"><title>Node1&#45;&gt;Node29</title>
<path fill="none" stroke="midnightblue" d="M28.6153,-475.316C41.6714,-447.923 79.0444,-369.508 96.4177,-333.056"/>
<polygon fill="midnightblue" stroke="midnightblue" points="99.7923,-334.11 100.935,-323.577 93.4733,-331.099 99.7923,-334.11"/>
</g>
<!-- Node34 -->
<g id="node34" class="node"><title>Node34</title>
<g id="a_node34"><a xlink:href="../../da/d32/richardson_8f.html#a5001fa494721f557f6e5f4087cce7e55" target="_top" xlink:title="getrich">
<polygon fill="white" stroke="black" points="82,-38.5 82,-57.5 131,-57.5 131,-38.5 82,-38.5"/>
<text text-anchor="middle" x="106.5" y="-45.5" font-family="Helvetica,sans-Serif" font-size="10.00">getrich</text>
</a>
</g>
</g>
<!-- Node1&#45;&gt;Node34 -->
<g id="edge52" class="edge"><title>Node1&#45;&gt;Node34</title>
<path fill="none" stroke="midnightblue" d="M25.0369,-475.422C29.6838,-433.465 49.7847,-261.84 82,-124 86.5526,-104.521 93.4764,-82.7546 98.6309,-67.5252"/>
<polygon fill="midnightblue" stroke="midnightblue" points="102.062,-68.3119 102.012,-57.7172 95.444,-66.0304 102.062,-68.3119"/>
</g>
<!-- Node37 -->
<g id="node37" class="node"><title>Node37</title>
<g id="a_node37"><a xlink:href="../../db/de6/output_8f.html#abed9935939ea5035b19aa26abb05d9d1" target="_top" xlink:title="putout">
<polygon fill="white" stroke="black" points="169.5,-380.5 169.5,-399.5 214.5,-399.5 214.5,-380.5 169.5,-380.5"/>
<text text-anchor="middle" x="192" y="-387.5" font-family="Helvetica,sans-Serif" font-size="10.00">putout</text>
</a>
</g>
</g>
<!-- Node1&#45;&gt;Node37 -->
<g id="edge55" class="edge"><title>Node1&#45;&gt;Node37</title>
<path fill="none" stroke="midnightblue" d="M40.9319,-475.368C70.1892,-458.725 130.388,-424.48 164.99,-404.796"/>
<polygon fill="midnightblue" stroke="midnightblue" points="167.062,-407.644 174.023,-399.657 163.601,-401.56 167.062,-407.644"/>
</g>
<!-- Node6 -->
<g id="node6" class="node"><title>Node6</title>
<g id="a_node6"><a xlink:href="../../d0/da4/utils_8f.html#ae26fe353463c9a52b0d379e4d78fe899" target="_top" xlink:title="altset">
<polygon fill="white" stroke="black" points="255.5,-646.5 255.5,-665.5 297.5,-665.5 297.5,-646.5 255.5,-646.5"/>
<text text-anchor="middle" x="276.5" y="-653.5" font-family="Helvetica,sans-Serif" font-size="10.00">altset</text>
</a>
</g>
</g>
<!-- Node5&#45;&gt;Node6 -->
<g id="edge5" class="edge"><title>Node5&#45;&gt;Node6</title>
<path fill="none" stroke="midnightblue" d="M130.507,-656C160.219,-656 212.019,-656 244.991,-656"/>
<polygon fill="midnightblue" stroke="midnightblue" points="245.392,-659.5 255.392,-656 245.392,-652.5 245.392,-659.5"/>
</g>
<!-- Node7 -->
<g id="node7" class="node"><title>Node7</title>
<g id="a_node7"><a xlink:href="../../d5/de9/interp_8f.html#a8189136387abfbf3929561396b96a644" target="_top" xlink:title="sfctrp">
<polygon fill="white" stroke="black" points="170.5,-760.5 170.5,-779.5 213.5,-779.5 213.5,-760.5 170.5,-760.5"/>
<text text-anchor="middle" x="192" y="-767.5" font-family="Helvetica,sans-Serif" font-size="10.00">sfctrp</text>
</a>
</g>
</g>
<!-- Node5&#45;&gt;Node7 -->
<g id="edge6" class="edge"><title>Node5&#45;&gt;Node7</title>
<path fill="none" stroke="midnightblue" d="M121.38,-665.515C124.808,-668.3 128.275,-671.536 131,-675 154.111,-704.374 143.739,-721.745 167,-751 167.579,-751.728 168.191,-752.445 168.828,-753.15"/>
<polygon fill="midnightblue" stroke="midnightblue" points="166.615,-755.871 176.318,-760.125 171.386,-750.749 166.615,-755.871"/>
</g>
<!-- Node11 -->
<g id="node11" class="node"><title>Node11</title>
<g id="a_node11"><a xlink:href="../../de/d3c/dopsig_8f.html#ad7245c27cd33798a9892fefd0b6ca749" target="_top" xlink:title="dopsig">
<polygon fill="white" stroke="black" points="168,-684.5 168,-703.5 216,-703.5 216,-684.5 168,-684.5"/>
<text text-anchor="middle" x="192" y="-691.5" font-family="Helvetica,sans-Serif" font-size="10.00">dopsig</text>
</a>
</g>
</g>
<!-- Node5&#45;&gt;Node11 -->
<g id="edge10" class="edge"><title>Node5&#45;&gt;Node11</title>
<path fill="none" stroke="midnightblue" d="M128.571,-665.589C138.262,-669.999 149.942,-675.315 160.565,-680.149"/>
<polygon fill="midnightblue" stroke="midnightblue" points="159.385,-683.458 169.936,-684.414 162.284,-677.086 159.385,-683.458"/>
</g>
<!-- Node12 -->
<g id="node12" class="node"><title>Node12</title>
<g id="a_node12"><a xlink:href="../../d0/dae/winterp_8f.html#ae38c8c525f918ef743c187dbd8c4c57d" target="_top" xlink:title="topwnd">
<polygon fill="white" stroke="black" points="338.5,-874.5 338.5,-893.5 389.5,-893.5 389.5,-874.5 338.5,-874.5"/>
<text text-anchor="middle" x="364" y="-881.5" font-family="Helvetica,sans-Serif" font-size="10.00">topwnd</text>
</a>
</g>
</g>
<!-- Node5&#45;&gt;Node12 -->
<g id="edge13" class="edge"><title>Node5&#45;&gt;Node12</title>
<path fill="none" stroke="midnightblue" d="M122.443,-665.517C125.693,-668.222 128.809,-671.42 131,-675 171.541,-741.245 112.356,-790.81 167,-846 209.243,-888.665 284.055,-890.991 328.021,-888.033"/>
<polygon fill="midnightblue" stroke="midnightblue" points="328.544,-891.503 338.232,-887.214 327.984,-884.525 328.544,-891.503"/>
</g>
<!-- Node13 -->
<g id="node13" class="node"><title>Node13</title>
<g id="a_node13"><a xlink:href="../../d8/d91/strat_8f.html#a74100c5b0c9102bce415b7b476b44bda" target="_top" xlink:title="strat">
<polygon fill="white" stroke="black" points="173,-570.5 173,-589.5 211,-589.5 211,-570.5 173,-570.5"/>
<text text-anchor="middle" x="192" y="-577.5" font-family="Helvetica,sans-Serif" font-size="10.00">strat</text>
</a>
</g>
</g>
<!-- Node5&#45;&gt;Node13 -->
<g id="edge15" class="edge"><title>Node5&#45;&gt;Node13</title>
<path fill="none" stroke="midnightblue" d="M118.075,-646.375C131.878,-633.811 156.243,-611.635 172.984,-596.398"/>
<polygon fill="midnightblue" stroke="midnightblue" points="175.471,-598.867 180.511,-589.547 170.759,-593.69 175.471,-598.867"/>
</g>
<!-- Node18 -->
<g id="node18" class="node"><title>Node18</title>
<g id="a_node18"><a xlink:href="../../dc/db1/windest_8f.html#a7234119f1ae14e4c8729972898fa3f6e" target="_top" xlink:title="betwin">
<polygon fill="white" stroke="black" points="168.5,-722.5 168.5,-741.5 215.5,-741.5 215.5,-722.5 168.5,-722.5"/>
<text text-anchor="middle" x="192" y="-729.5" font-family="Helvetica,sans-Serif" font-size="10.00">betwin</text>
</a>
</g>
</g>
<!-- Node5&#45;&gt;Node18 -->
<g id="edge22" class="edge"><title>Node5&#45;&gt;Node18</title>
<path fill="none" stroke="midnightblue" d="M120.198,-665.759C123.773,-668.641 127.61,-671.866 131,-675 148.083,-690.793 149.836,-697.295 167,-713 167.97,-713.888 168.977,-714.782 170.005,-715.672"/>
<polygon fill="midnightblue" stroke="midnightblue" points="168.072,-718.614 178.016,-722.271 172.523,-713.211 168.072,-718.614"/>
</g>
<!-- Node19 -->
<g id="node19" class="node"><title>Node19</title>
<g id="a_node19"><a xlink:href="../../d4/de5/resig_8f.html#a31befcca77f3529ca75d0967a58b7e5a" target="_top" xlink:title="resig">
<polygon fill="white" stroke="black" points="172,-817.5 172,-836.5 212,-836.5 212,-817.5 172,-817.5"/>
<text text-anchor="middle" x="192" y="-824.5" font-family="Helvetica,sans-Serif" font-size="10.00">resig</text>
</a>
</g>
</g>
<!-- Node5&#45;&gt;Node19 -->
<g id="edge25" class="edge"><title>Node5&#45;&gt;Node19</title>
<path fill="none" stroke="midnightblue" d="M122.197,-665.676C125.454,-668.376 128.636,-671.532 131,-675 160.93,-718.901 144.629,-740.806 167,-789 170.105,-795.688 174.188,-802.617 178.103,-808.697"/>
<polygon fill="midnightblue" stroke="midnightblue" points="175.469,-811.052 183.955,-817.396 181.278,-807.145 175.469,-811.052"/>
</g>
<!-- Node8 -->
<g id="node8" class="node"><title>Node8</title>
<g id="a_node8"><a xlink:href="../../db/dfb/invwt_8f.html#a60a9c84e17e33143f25f150551b9cb67" target="_top" xlink:title="rinvmod">
<polygon fill="white" stroke="black" points="337,-779.5 337,-798.5 391,-798.5 391,-779.5 337,-779.5"/>
<text text-anchor="middle" x="364" y="-786.5" font-family="Helvetica,sans-Serif" font-size="10.00">rinvmod</text>
</a>
</g>
</g>
<!-- Node7&#45;&gt;Node8 -->
<g id="edge7" class="edge"><title>Node7&#45;&gt;Node8</title>
<path fill="none" stroke="midnightblue" d="M213.65,-775.808C225.14,-778.789 239.755,-782.17 253,-784 277.411,-787.374 305.129,-788.617 326.634,-789.021"/>
<polygon fill="midnightblue" stroke="midnightblue" points="326.603,-792.521 336.65,-789.157 326.699,-785.521 326.603,-792.521"/>
</g>
<!-- Node10 -->
<g id="node10" class="node"><title>Node10</title>
<g id="a_node10"><a xlink:href="../../d0/da4/utils_8f.html#ae2d94dded1c7d5cb50cb38a013c79353" target="_top" xlink:title="lgntrp">
<polygon fill="white" stroke="black" points="254.5,-722.5 254.5,-741.5 298.5,-741.5 298.5,-722.5 254.5,-722.5"/>
<text text-anchor="middle" x="276.5" y="-729.5" font-family="Helvetica,sans-Serif" font-size="10.00">lgntrp</text>
</a>
</g>
</g>
<!-- Node7&#45;&gt;Node10 -->
<g id="edge9" class="edge"><title>Node7&#45;&gt;Node10</title>
<path fill="none" stroke="midnightblue" d="M213.818,-760.411C223.393,-756.001 234.934,-750.685 245.429,-745.851"/>
<polygon fill="midnightblue" stroke="midnightblue" points="247.07,-748.949 254.688,-741.586 244.141,-742.591 247.07,-748.949"/>
</g>
<!-- Node9 -->
<g id="node9" class="node"><title>Node9</title>
<g id="a_node9"><a xlink:href="../../d0/da4/utils_8f.html#ac7475efe535e2a13e0c32b30e80d52a6" target="_top" xlink:title="wndwt">
<polygon fill="white" stroke="black" points="428,-627.5 428,-646.5 475,-646.5 475,-627.5 428,-627.5"/>
<text text-anchor="middle" x="451.5" y="-634.5" font-family="Helvetica,sans-Serif" font-size="10.00">wndwt</text>
</a>
</g>
</g>
<!-- Node8&#45;&gt;Node9 -->
<g id="edge8" class="edge"><title>Node8&#45;&gt;Node9</title>
<path fill="none" stroke="midnightblue" d="M370.348,-779.492C384.264,-754.754 421.786,-688.048 440.125,-655.444"/>
<polygon fill="midnightblue" stroke="midnightblue" points="443.301,-656.936 445.154,-646.505 437.2,-653.505 443.301,-656.936"/>
</g>
<!-- Node11&#45;&gt;Node9 -->
<g id="edge12" class="edge"><title>Node11&#45;&gt;Node9</title>
<path fill="none" stroke="midnightblue" d="M216.052,-690.396C237.785,-686.883 271.224,-681.18 300,-675 340.892,-666.219 387.518,-654.118 417.895,-645.95"/>
<polygon fill="midnightblue" stroke="midnightblue" points="419.187,-649.227 427.926,-643.237 417.359,-642.47 419.187,-649.227"/>
</g>
<!-- Node11&#45;&gt;Node10 -->
<g id="edge11" class="edge"><title>Node11&#45;&gt;Node10</title>
<path fill="none" stroke="midnightblue" d="M213.818,-703.589C223.393,-707.999 234.934,-713.315 245.429,-718.149"/>
<polygon fill="midnightblue" stroke="midnightblue" points="244.141,-721.409 254.688,-722.414 247.07,-715.051 244.141,-721.409"/>
</g>
<!-- Node12&#45;&gt;Node9 -->
<g id="edge14" class="edge"><title>Node12&#45;&gt;Node9</title>
<path fill="none" stroke="midnightblue" d="M382.603,-874.346C386.139,-871.715 389.525,-868.585 392,-865 437.946,-798.467 447.815,-698.582 449.928,-656.644"/>
<polygon fill="midnightblue" stroke="midnightblue" points="453.426,-656.774 450.335,-646.64 446.431,-656.489 453.426,-656.774"/>
</g>
<!-- Node13&#45;&gt;Node6 -->
<g id="edge17" class="edge"><title>Node13&#45;&gt;Node6</title>
<path fill="none" stroke="midnightblue" d="M203.022,-589.866C214.8,-601.379 235.021,-620.894 253,-637 253.985,-637.883 255.001,-638.781 256.032,-639.683"/>
<polygon fill="midnightblue" stroke="midnightblue" points="254.072,-642.613 263.943,-646.462 258.627,-637.297 254.072,-642.613"/>
</g>
<!-- Node13&#45;&gt;Node9 -->
<g id="edge21" class="edge"><title>Node13&#45;&gt;Node9</title>
<path fill="none" stroke="midnightblue" d="M211.252,-582.833C232.613,-586.242 269.01,-592.345 300,-599 340.892,-607.781 387.518,-619.882 417.895,-628.05"/>
<polygon fill="midnightblue" stroke="midnightblue" points="417.359,-631.53 427.926,-630.763 419.187,-624.773 417.359,-631.53"/>
</g>
<!-- Node14 -->
<g id="node14" class="node"><title>Node14</title>
<g id="a_node14"><a xlink:href="../../d0/da4/utils_8f.html#a2ea37adbef73c587b6708200cb19f03a" target="_top" xlink:title="tpot">
<polygon fill="white" stroke="black" points="259,-494.5 259,-513.5 294,-513.5 294,-494.5 259,-494.5"/>
<text text-anchor="middle" x="276.5" y="-501.5" font-family="Helvetica,sans-Serif" font-size="10.00">tpot</text>
</a>
</g>
</g>
<!-- Node13&#45;&gt;Node14 -->
<g id="edge16" class="edge"><title>Node13&#45;&gt;Node14</title>
<path fill="none" stroke="midnightblue" d="M203.449,-570.375C217.086,-557.811 241.16,-535.635 257.7,-520.398"/>
<polygon fill="midnightblue" stroke="midnightblue" points="260.153,-522.897 265.136,-513.547 255.41,-517.749 260.153,-522.897"/>
</g>
<!-- Node15 -->
<g id="node15" class="node"><title>Node15</title>
<g id="a_node15"><a xlink:href="../../d0/da4/utils_8f.html#a4f313e0a002cd074fefa8c3c6644de44" target="_top" xlink:title="xlintr">
<polygon fill="white" stroke="black" points="257,-418.5 257,-437.5 296,-437.5 296,-418.5 257,-418.5"/>
<text text-anchor="middle" x="276.5" y="-425.5" font-family="Helvetica,sans-Serif" font-size="10.00">xlintr</text>
</a>
</g>
</g>
<!-- Node13&#45;&gt;Node15 -->
<g id="edge18" class="edge"><title>Node13&#45;&gt;Node15</title>
<path fill="none" stroke="midnightblue" d="M198.161,-570.492C211.588,-545.754 247.793,-479.048 265.489,-446.444"/>
<polygon fill="midnightblue" stroke="midnightblue" points="268.647,-447.963 270.341,-437.505 262.495,-444.624 268.647,-447.963"/>
</g>
<!-- Node16 -->
<g id="node16" class="node"><title>Node16</title>
<g id="a_node16"><a xlink:href="../../d0/da4/utils_8f.html#ada49f994f851db3de12768d051cd93fb" target="_top" xlink:title="cvt2p">
<polygon fill="white" stroke="black" points="255.5,-380.5 255.5,-399.5 297.5,-399.5 297.5,-380.5 255.5,-380.5"/>
<text text-anchor="middle" x="276.5" y="-387.5" font-family="Helvetica,sans-Serif" font-size="10.00">cvt2p</text>
</a>
</g>
</g>
<!-- Node13&#45;&gt;Node16 -->
<g id="edge19" class="edge"><title>Node13&#45;&gt;Node16</title>
<path fill="none" stroke="midnightblue" d="M196.079,-570.282C206.937,-536.149 243.313,-423.053 253,-409 253.435,-408.369 253.897,-407.746 254.38,-407.133"/>
<polygon fill="midnightblue" stroke="midnightblue" points="257.036,-409.422 261.51,-399.818 252.024,-404.536 257.036,-409.422"/>
</g>
<!-- Node17 -->
<g id="node17" class="node"><title>Node17</title>
<g id="a_node17"><a xlink:href="../../d0/da4/utils_8f.html#aa67cf7df9fac8b49ecb8fb020821d525" target="_top" xlink:title="pt2t">
<polygon fill="white" stroke="black" points="259,-608.5 259,-627.5 294,-627.5 294,-608.5 259,-608.5"/>
<text text-anchor="middle" x="276.5" y="-615.5" font-family="Helvetica,sans-Serif" font-size="10.00">pt2t</text>
</a>
</g>
</g>
<!-- Node13&#45;&gt;Node17 -->
<g id="edge20" class="edge"><title>Node13&#45;&gt;Node17</title>
<path fill="none" stroke="midnightblue" d="M211.309,-588.433C222.547,-593.609 237.114,-600.319 249.531,-606.038"/>
<polygon fill="midnightblue" stroke="midnightblue" points="248.376,-609.36 258.923,-610.364 251.304,-603.002 248.376,-609.36"/>
</g>
<!-- Node18&#45;&gt;Node8 -->
<g id="edge24" class="edge"><title>Node18&#45;&gt;Node8</title>
<path fill="none" stroke="midnightblue" d="M215.575,-739.569C244.059,-749.12 293.388,-765.659 327.075,-776.955"/>
<polygon fill="midnightblue" stroke="midnightblue" points="326.393,-780.417 336.987,-780.278 328.618,-773.78 326.393,-780.417"/>
</g>
<!-- Node18&#45;&gt;Node10 -->
<g id="edge23" class="edge"><title>Node18&#45;&gt;Node10</title>
<path fill="none" stroke="midnightblue" d="M215.543,-732C224.348,-732 234.595,-732 244.101,-732"/>
<polygon fill="midnightblue" stroke="midnightblue" points="244.401,-735.5 254.401,-732 244.401,-728.5 244.401,-735.5"/>
</g>
<!-- Node20 -->
<g id="node20" class="node"><title>Node20</title>
<g id="a_node20"><a xlink:href="../../d6/de7/flowht_8f.html#ad643b696e317136e66ddd9c79bef191c" target="_top" xlink:title="flowht">
<polygon fill="white" stroke="black" points="254.5,-836.5 254.5,-855.5 298.5,-855.5 298.5,-836.5 254.5,-836.5"/>
<text text-anchor="middle" x="276.5" y="-843.5" font-family="Helvetica,sans-Serif" font-size="10.00">flowht</text>
</a>
</g>
</g>
<!-- Node19&#45;&gt;Node20 -->
<g id="edge26" class="edge"><title>Node19&#45;&gt;Node20</title>
<path fill="none" stroke="midnightblue" d="M212.135,-831.407C221.73,-833.617 233.591,-836.348 244.448,-838.849"/>
<polygon fill="midnightblue" stroke="midnightblue" points="243.911,-842.317 254.442,-841.15 245.482,-835.495 243.911,-842.317"/>
</g>
<!-- Node20&#45;&gt;Node8 -->
<g id="edge28" class="edge"><title>Node20&#45;&gt;Node8</title>
<path fill="none" stroke="midnightblue" d="M292.004,-836.331C305.227,-827.516 324.975,-814.35 340.289,-804.141"/>
<polygon fill="midnightblue" stroke="midnightblue" points="342.331,-806.986 348.71,-798.526 338.448,-801.161 342.331,-806.986"/>
</g>
<!-- Node21 -->
<g id="node21" class="node"><title>Node21</title>
<g id="a_node21"><a xlink:href="../../d5/de9/interp_8f.html#ac894fce71c26b37a9bb66ad713b89787" target="_top" xlink:title="sloper">
<polygon fill="white" stroke="black" points="341,-836.5 341,-855.5 387,-855.5 387,-836.5 341,-836.5"/>
<text text-anchor="middle" x="364" y="-843.5" font-family="Helvetica,sans-Serif" font-size="10.00">sloper</text>
</a>
</g>
</g>
<!-- Node20&#45;&gt;Node21 -->
<g id="edge27" class="edge"><title>Node20&#45;&gt;Node21</title>
<path fill="none" stroke="midnightblue" d="M298.635,-846C308.278,-846 319.912,-846 330.622,-846"/>
<polygon fill="midnightblue" stroke="midnightblue" points="330.916,-849.5 340.916,-846 330.916,-842.5 330.916,-849.5"/>
</g>
<!-- Node23 -->
<g id="node23" class="node"><title>Node23</title>
<g id="a_node23"><a xlink:href="../../dc/db1/windest_8f.html#a1a799d468e57be9ea34605415a243104" target="_top" xlink:title="fixwnd">
<polygon fill="white" stroke="black" points="253,-190.5 253,-209.5 300,-209.5 300,-190.5 253,-190.5"/>
<text text-anchor="middle" x="276.5" y="-197.5" font-family="Helvetica,sans-Serif" font-size="10.00">fixwnd</text>
</a>
</g>
</g>
<!-- Node22&#45;&gt;Node23 -->
<g id="edge30" class="edge"><title>Node22&#45;&gt;Node23</title>
<path fill="none" stroke="midnightblue" d="M118.604,-133.27C139.007,-116.635 183.446,-86.2566 217,-105 245.904,-121.146 262.29,-158.083 269.989,-180.849"/>
<polygon fill="midnightblue" stroke="midnightblue" points="266.672,-181.969 273.008,-190.461 273.35,-179.871 266.672,-181.969"/>
</g>
<!-- Node24 -->
<g id="node24" class="node"><title>Node24</title>
<g id="a_node24"><a xlink:href="../../d0/da4/utils_8f.html#aefec7f68acfef601819ad86d7238d9ae" target="_top" xlink:title="setmat">
<polygon fill="white" stroke="black" points="168,-114.5 168,-133.5 216,-133.5 216,-114.5 168,-114.5"/>
<text text-anchor="middle" x="192" y="-121.5" font-family="Helvetica,sans-Serif" font-size="10.00">setmat</text>
</a>
</g>
</g>
<!-- Node22&#45;&gt;Node24 -->
<g id="edge31" class="edge"><title>Node22&#45;&gt;Node24</title>
<path fill="none" stroke="midnightblue" d="M124.801,-139.063C134.31,-136.899 146.432,-134.141 157.697,-131.578"/>
<polygon fill="midnightblue" stroke="midnightblue" points="158.728,-134.933 167.702,-129.301 157.175,-128.107 158.728,-134.933"/>
</g>
<!-- Node25 -->
<g id="node25" class="node"><title>Node25</title>
<g id="a_node25"><a xlink:href="../../db/d27/vertvel_8f.html#ac1bfd17e3487a16f270bea7c7e3e4597" target="_top" xlink:title="dubyou">
<polygon fill="white" stroke="black" points="167,-152.5 167,-171.5 217,-171.5 217,-152.5 167,-152.5"/>
<text text-anchor="middle" x="192" y="-159.5" font-family="Helvetica,sans-Serif" font-size="10.00">dubyou</text>
</a>
</g>
</g>
<!-- Node22&#45;&gt;Node25 -->
<g id="edge32" class="edge"><title>Node22&#45;&gt;Node25</title>
<path fill="none" stroke="midnightblue" d="M124.801,-146.937C134.091,-149.051 145.874,-151.732 156.916,-154.244"/>
<polygon fill="midnightblue" stroke="midnightblue" points="156.228,-157.677 166.755,-156.483 157.781,-150.852 156.228,-157.677"/>
</g>
<!-- Node26&#45;&gt;Node14 -->
<g id="edge39" class="edge"><title>Node26&#45;&gt;Node14</title>
<path fill="none" stroke="midnightblue" d="M215.543,-490.192C225.884,-492.573 238.213,-495.413 248.995,-497.896"/>
<polygon fill="midnightblue" stroke="midnightblue" points="248.212,-501.307 258.743,-500.141 249.783,-494.486 248.212,-501.307"/>
</g>
<!-- Node26&#45;&gt;Node16 -->
<g id="edge36" class="edge"><title>Node26&#45;&gt;Node16</title>
<path fill="none" stroke="midnightblue" d="M199.809,-475.132C210.375,-460.125 231.725,-430.988 253,-409 253.782,-408.192 254.596,-407.382 255.43,-406.577"/>
<polygon fill="midnightblue" stroke="midnightblue" points="258.074,-408.908 263.19,-399.631 253.405,-403.693 258.074,-408.908"/>
</g>
<!-- Node27 -->
<g id="node27" class="node"><title>Node27</title>
<g id="a_node27"><a xlink:href="../../db/dfb/invwt_8f.html#ab6e79552e825a19ab639d40a5aeb9980" target="_top" xlink:title="rinvmold">
<polygon fill="white" stroke="black" points="336,-532.5 336,-551.5 392,-551.5 392,-532.5 336,-532.5"/>
<text text-anchor="middle" x="364" y="-539.5" font-family="Helvetica,sans-Serif" font-size="10.00">rinvmold</text>
</a>
</g>
</g>
<!-- Node26&#45;&gt;Node27 -->
<g id="edge34" class="edge"><title>Node26&#45;&gt;Node27</title>
<path fill="none" stroke="midnightblue" d="M205.097,-494.699C216.698,-503.486 235.052,-516.084 253,-523 276.311,-531.983 304.037,-536.737 325.821,-539.243"/>
<polygon fill="midnightblue" stroke="midnightblue" points="325.683,-542.747 335.992,-540.301 326.408,-535.785 325.683,-542.747"/>
</g>
<!-- Node28 -->
<g id="node28" class="node"><title>Node28</title>
<g id="a_node28"><a xlink:href="../../d5/de9/interp_8f.html#a1049f2c9a94baca31bcb0ea68f172dfb" target="_top" xlink:title="vrsmoo">
<polygon fill="white" stroke="black" points="338.5,-475.5 338.5,-494.5 389.5,-494.5 389.5,-475.5 338.5,-475.5"/>
<text text-anchor="middle" x="364" y="-482.5" font-family="Helvetica,sans-Serif" font-size="10.00">vrsmoo</text>
</a>
</g>
</g>
<!-- Node26&#45;&gt;Node28 -->
<g id="edge37" class="edge"><title>Node26&#45;&gt;Node28</title>
<path fill="none" stroke="midnightblue" d="M215.575,-485C244.344,-485 294.376,-485 328.08,-485"/>
<polygon fill="midnightblue" stroke="midnightblue" points="328.402,-488.5 338.402,-485 328.402,-481.5 328.402,-488.5"/>
</g>
<!-- Node27&#45;&gt;Node9 -->
<g id="edge35" class="edge"><title>Node27&#45;&gt;Node9</title>
<path fill="none" stroke="midnightblue" d="M376.659,-551.666C381.556,-555.901 387.214,-561.031 392,-566 408.516,-583.147 425.633,-604.398 437.05,-619.159"/>
<polygon fill="midnightblue" stroke="midnightblue" points="434.511,-621.601 443.367,-627.417 440.071,-617.348 434.511,-621.601"/>
</g>
<!-- Node28&#45;&gt;Node9 -->
<g id="edge38" class="edge"><title>Node28&#45;&gt;Node9</title>
<path fill="none" stroke="midnightblue" d="M372.507,-494.737C378.162,-502.262 385.949,-513.04 392,-523 411.632,-555.314 430.983,-594.972 441.772,-617.978"/>
<polygon fill="midnightblue" stroke="midnightblue" points="438.71,-619.694 446.097,-627.29 445.059,-616.746 438.71,-619.694"/>
</g>
<!-- Node30 -->
<g id="node30" class="node"><title>Node30</title>
<g id="a_node30"><a xlink:href="../../dd/d8b/levwnd_8f.html#a071704a067fa176be873eaafe88cd40e" target="_top" xlink:title="levwnd">
<polygon fill="white" stroke="black" points="167,-304.5 167,-323.5 217,-323.5 217,-304.5 167,-304.5"/>
<text text-anchor="middle" x="192" y="-311.5" font-family="Helvetica,sans-Serif" font-size="10.00">levwnd</text>
</a>
</g>
</g>
<!-- Node29&#45;&gt;Node30 -->
<g id="edge41" class="edge"><title>Node29&#45;&gt;Node30</title>
<path fill="none" stroke="midnightblue" d="M130.317,-314C138.438,-314 147.772,-314 156.645,-314"/>
<polygon fill="midnightblue" stroke="midnightblue" points="156.75,-317.5 166.75,-314 156.75,-310.5 156.75,-317.5"/>
</g>
<!-- Node31 -->
<g id="node31" class="node"><title>Node31</title>
<g id="a_node31"><a xlink:href="../../d0/da4/utils_8f.html#a0372175a02e9a75442b6070a9636130c" target="_top" xlink:title="sp">
<polygon fill="white" stroke="black" points="349.5,-247.5 349.5,-266.5 378.5,-266.5 378.5,-247.5 349.5,-247.5"/>
<text text-anchor="middle" x="364" y="-254.5" font-family="Helvetica,sans-Serif" font-size="10.00">sp</text>
</a>
</g>
</g>
<!-- Node29&#45;&gt;Node31 -->
<g id="edge49" class="edge"><title>Node29&#45;&gt;Node31</title>
<path fill="none" stroke="midnightblue" d="M113.929,-304.443C132.062,-278.461 186.639,-206.76 253,-181 272.473,-173.441 281.095,-172.115 300,-181 325.112,-192.802 343.659,-220.074 353.901,-238.528"/>
<polygon fill="midnightblue" stroke="midnightblue" points="350.857,-240.259 358.608,-247.482 357.053,-237.002 350.857,-240.259"/>
</g>
<!-- Node32 -->
<g id="node32" class="node"><title>Node32</title>
<g id="a_node32"><a xlink:href="../../d0/da4/utils_8f.html#aea6bd637ff6e9292b15591b24874cb9d" target="_top" xlink:title="dd">
<polygon fill="white" stroke="black" points="262,-266.5 262,-285.5 291,-285.5 291,-266.5 262,-266.5"/>
<text text-anchor="middle" x="276.5" y="-273.5" font-family="Helvetica,sans-Serif" font-size="10.00">dd</text>
</a>
</g>
</g>
<!-- Node29&#45;&gt;Node32 -->
<g id="edge50" class="edge"><title>Node29&#45;&gt;Node32</title>
<path fill="none" stroke="midnightblue" d="M130.179,-305.959C141.193,-302.26 154.68,-298.031 167,-295 195.753,-287.926 229.417,-282.459 251.533,-279.242"/>
<polygon fill="midnightblue" stroke="midnightblue" points="252.262,-282.674 261.673,-277.808 251.282,-275.743 252.262,-282.674"/>
</g>
<!-- Node33 -->
<g id="node33" class="node"><title>Node33</title>
<g id="a_node33"><a xlink:href="../../d0/da4/utils_8f.html#ad51409e488caa0b6621caa12ad29297c" target="_top" xlink:title="degdif">
<polygon fill="white" stroke="black" points="169,-342.5 169,-361.5 215,-361.5 215,-342.5 169,-342.5"/>
<text text-anchor="middle" x="192" y="-349.5" font-family="Helvetica,sans-Serif" font-size="10.00">degdif</text>
</a>
</g>
</g>
<!-- Node29&#45;&gt;Node33 -->
<g id="edge51" class="edge"><title>Node29&#45;&gt;Node33</title>
<path fill="none" stroke="midnightblue" d="M128.571,-323.589C138.262,-327.999 149.942,-333.315 160.565,-338.149"/>
<polygon fill="midnightblue" stroke="midnightblue" points="159.385,-341.458 169.936,-342.414 162.284,-335.086 159.385,-341.458"/>
</g>
<!-- Node30&#45;&gt;Node10 -->
<g id="edge43" class="edge"><title>Node30&#45;&gt;Node10</title>
<path fill="none" stroke="midnightblue" d="M209.022,-323.722C212.147,-326.349 215.053,-329.461 217,-333 290.68,-466.908 216.607,-526.556 253,-675 256.187,-687.998 261.675,-701.986 266.433,-712.852"/>
<polygon fill="midnightblue" stroke="midnightblue" points="263.348,-714.523 270.672,-722.179 269.72,-711.627 263.348,-714.523"/>
</g>
<!-- Node30&#45;&gt;Node15 -->
<g id="edge45" class="edge"><title>Node30&#45;&gt;Node15</title>
<path fill="none" stroke="midnightblue" d="M207.682,-323.875C211.018,-326.569 214.354,-329.672 217,-333 240.261,-362.255 230.204,-379.381 253,-409 253.573,-409.744 254.18,-410.48 254.812,-411.204"/>
<polygon fill="midnightblue" stroke="midnightblue" points="252.613,-413.947 262.225,-418.404 257.49,-408.926 252.613,-413.947"/>
</g>
<!-- Node30&#45;&gt;Node16 -->
<g id="edge44" class="edge"><title>Node30&#45;&gt;Node16</title>
<path fill="none" stroke="midnightblue" d="M205.903,-323.819C209.554,-326.703 213.487,-329.913 217,-333 231.712,-345.93 247.578,-361.501 259.071,-373.099"/>
<polygon fill="midnightblue" stroke="midnightblue" points="256.754,-375.734 266.26,-380.412 261.746,-370.827 256.754,-375.734"/>
</g>
<!-- Node30&#45;&gt;Node23 -->
<g id="edge42" class="edge"><title>Node30&#45;&gt;Node23</title>
<path fill="none" stroke="midnightblue" d="M198.646,-304.447C208.751,-287.61 230.944,-251.807 253,-224 254.677,-221.886 256.501,-219.734 258.362,-217.632"/>
<polygon fill="midnightblue" stroke="midnightblue" points="261.253,-219.66 265.478,-209.944 256.117,-214.905 261.253,-219.66"/>
</g>
<!-- Node30&#45;&gt;Node31 -->
<g id="edge46" class="edge"><title>Node30&#45;&gt;Node31</title>
<path fill="none" stroke="midnightblue" d="M199.374,-304.447C209.076,-290.874 228.982,-266.59 253,-257 281.019,-245.813 316.347,-248.433 339.293,-252.08"/>
<polygon fill="midnightblue" stroke="midnightblue" points="338.727,-255.534 349.185,-253.839 339.952,-248.642 338.727,-255.534"/>
</g>
<!-- Node30&#45;&gt;Node32 -->
<g id="edge47" class="edge"><title>Node30&#45;&gt;Node32</title>
<path fill="none" stroke="midnightblue" d="M213.818,-304.411C225.603,-298.983 240.363,-292.184 252.49,-286.598"/>
<polygon fill="midnightblue" stroke="midnightblue" points="254.316,-289.611 261.935,-282.248 251.387,-283.253 254.316,-289.611"/>
</g>
<!-- Node32&#45;&gt;Node31 -->
<g id="edge48" class="edge"><title>Node32&#45;&gt;Node31</title>
<path fill="none" stroke="midnightblue" d="M291.237,-272.947C304.201,-270.067 323.904,-265.688 339.387,-262.247"/>
<polygon fill="midnightblue" stroke="midnightblue" points="340.294,-265.631 349.297,-260.045 338.776,-258.798 340.294,-265.631"/>
</g>
<!-- Node35 -->
<g id="node35" class="node"><title>Node35</title>
<g id="a_node35"><a xlink:href="../../da/d32/richardson_8f.html#a821db31391d34f3fcb44dd7475a65b8b" target="_top" xlink:title="bvperd">
<polygon fill="white" stroke="black" points="167.5,-38.5 167.5,-57.5 216.5,-57.5 216.5,-38.5 167.5,-38.5"/>
<text text-anchor="middle" x="192" y="-45.5" font-family="Helvetica,sans-Serif" font-size="10.00">bvperd</text>
</a>
</g>
</g>
<!-- Node34&#45;&gt;Node35 -->
<g id="edge53" class="edge"><title>Node34&#45;&gt;Node35</title>
<path fill="none" stroke="midnightblue" d="M131.204,-48C139.225,-48 148.347,-48 157.007,-48"/>
<polygon fill="midnightblue" stroke="midnightblue" points="157.236,-51.5001 167.236,-48 157.236,-44.5001 157.236,-51.5001"/>
</g>
<!-- Node36 -->
<g id="node36" class="node"><title>Node36</title>
<g id="a_node36"><a xlink:href="../../da/d32/richardson_8f.html#a3712f9d7e6c6db1699858f4dda9dff43" target="_top" xlink:title="bulkri">
<polygon fill="white" stroke="black" points="171.5,-0.5 171.5,-19.5 212.5,-19.5 212.5,-0.5 171.5,-0.5"/>
<text text-anchor="middle" x="192" y="-7.5" font-family="Helvetica,sans-Serif" font-size="10.00">bulkri</text>
</a>
</g>
</g>
<!-- Node34&#45;&gt;Node36 -->
<g id="edge54" class="edge"><title>Node34&#45;&gt;Node36</title>
<path fill="none" stroke="midnightblue" d="M128.571,-38.411C138.734,-33.7855 151.086,-28.1646 162.111,-23.1471"/>
<polygon fill="midnightblue" stroke="midnightblue" points="163.718,-26.2611 171.37,-18.9333 160.819,-19.8899 163.718,-26.2611"/>
</g>
<!-- Node37&#45;&gt;Node14 -->
<g id="edge58" class="edge"><title>Node37&#45;&gt;Node14</title>
<path fill="none" stroke="midnightblue" d="M200.034,-399.72C213.855,-418.818 244.743,-461.5 262.419,-485.925"/>
<polygon fill="midnightblue" stroke="midnightblue" points="259.786,-488.256 268.484,-494.305 265.457,-484.152 259.786,-488.256"/>
</g>
<!-- Node37&#45;&gt;Node16 -->
<g id="edge57" class="edge"><title>Node37&#45;&gt;Node16</title>
<path fill="none" stroke="midnightblue" d="M214.676,-390C224.03,-390 235.133,-390 245.275,-390"/>
<polygon fill="midnightblue" stroke="midnightblue" points="245.384,-393.5 255.384,-390 245.384,-386.5 245.384,-393.5"/>
</g>
<!-- Node37&#45;&gt;Node31 -->
<g id="edge60" class="edge"><title>Node37&#45;&gt;Node31</title>
<path fill="none" stroke="midnightblue" d="M214.576,-381.482C237.302,-371.861 273.411,-354.681 300,-333 320.621,-316.186 339.401,-291.814 350.989,-275.236"/>
<polygon fill="midnightblue" stroke="midnightblue" points="353.913,-277.159 356.653,-266.925 348.129,-273.217 353.913,-277.159"/>
</g>
<!-- Node37&#45;&gt;Node32 -->
<g id="edge59" class="edge"><title>Node37&#45;&gt;Node32</title>
<path fill="none" stroke="midnightblue" d="M207.682,-380.125C211.018,-377.431 214.354,-374.328 217,-371 240.261,-341.745 230.204,-324.619 253,-295 253.573,-294.256 254.18,-293.52 254.812,-292.796"/>
<polygon fill="midnightblue" stroke="midnightblue" points="257.49,-295.074 262.225,-285.596 252.613,-290.053 257.49,-295.074"/>
</g>
<!-- Node38 -->
<g id="node38" class="node"><title>Node38</title>
<g id="a_node38"><a xlink:href="../../d0/da4/utils_8f.html#a042920ed1d556ec6a6572c76a004afae" target="_top" xlink:title="setint">
<polygon fill="white" stroke="black" points="255.5,-304.5 255.5,-323.5 297.5,-323.5 297.5,-304.5 255.5,-304.5"/>
<text text-anchor="middle" x="276.5" y="-311.5" font-family="Helvetica,sans-Serif" font-size="10.00">setint</text>
</a>
</g>
</g>
<!-- Node37&#45;&gt;Node38 -->
<g id="edge56" class="edge"><title>Node37&#45;&gt;Node38</title>
<path fill="none" stroke="midnightblue" d="M205.903,-380.181C209.554,-377.297 213.487,-374.087 217,-371 231.712,-358.07 247.578,-342.499 259.071,-330.901"/>
<polygon fill="midnightblue" stroke="midnightblue" points="261.746,-333.173 266.26,-323.588 256.754,-328.266 261.746,-333.173"/>
</g>
</g>
</svg>
        <g id="navigator" transform="translate(0 0)" fill="#404254">
                <rect fill="#f2f5e9" fill-opacity="0.5" stroke="#606060" stroke-width=".5" x="0" y="0" width="60" height="60"/>
                <use id="zoomplus" xlink:href="#zoomPlus" x="17" y="9" onmousedown="handleZoom(evt,'in')"/>
                <use id="zoomminus" xlink:href="#zoomMin" x="42" y="9" onmousedown="handleZoom(evt,'out')"/>
                <use id="reset" xlink:href="#resetDef" x="30" y="36" onmousedown="handleReset()"/>
                <g id="arrowUp" xlink:href="#dirArrow" transform="translate(30 24)" onmousedown="handlePan(0,-1)">
                  <use xlink:href="#rim" fill="#404040">
                        <set attributeName="fill" to="#808080" begin="arrowUp.mouseover" end="arrowUp.mouseout"/>
                  </use>
                  <path fill="none" stroke="white" stroke-width="1.5" d="M0,-3.0v7 M-2.5,-0.5L0,-3.0L2.5,-0.5"/>
                </g>
                <g id="arrowRight" xlink:href="#dirArrow" transform="rotate(90) translate(36 -43)" onmousedown="handlePan(1,0)">
                  <use xlink:href="#rim" fill="#404040">
                        <set attributeName="fill" to="#808080" begin="arrowRight.mouseover" end="arrowRight.mouseout"/>
                  </use>
                  <path fill="none" stroke="white" stroke-width="1.5" d="M0,-3.0v7 M-2.5,-0.5L0,-3.0L2.5,-0.5"/>
                </g>
                <g id="arrowDown" xlink:href="#dirArrow" transform="rotate(180) translate(-30 -48)" onmousedown="handlePan(0,1)">
                  <use xlink:href="#rim" fill="#404040">
                        <set attributeName="fill" to="#808080" begin="arrowDown.mouseover" end="arrowDown.mouseout"/>
                  </use>
                  <path fill="none" stroke="white" stroke-width="1.5" d="M0,-3.0v7 M-2.5,-0.5L0,-3.0L2.5,-0.5"/>
                </g>
                <g id="arrowLeft" xlink:href="#dirArrow" transform="rotate(270) translate(-36 17)" onmousedown="handlePan(-1,0)">
                  <use xlink:href="#rim" fill="#404040">
                        <set attributeName="fill" to="#808080" begin="arrowLeft.mouseover" end="arrowLeft.mouseout"/>
                  </use>
                  <path fill="none" stroke="white" stroke-width="1.5" d="M0,-3.0v7 M-2.5,-0.5L0,-3.0L2.5,-0.5"/>
                </g>
        </g>
        <svg viewBox="0 0 15 15" width="100%" height="30px" preserveAspectRatio="xMaxYMin meet">
         <g id="arrow_out" transform="scale(0.3 0.3)">
          <a xlink:href="wocss_8f_aacb06ae5117e6a3992c6e252e3537c17_cgraph_org.svg" target="_base">
           <rect id="button" ry="5" rx="5" y="6" x="6" height="38" width="38"
                fill="#f2f5e9" fill-opacity="0.5" stroke="#606060" stroke-width="1.0"/>
           <path id="arrow"
             d="M 11.500037,31.436501 C 11.940474,20.09759 22.043105,11.32322 32.158766,21.979434 L 37.068811,17.246167 C 37.068811,17.246167 37.088388,32 37.088388,32 L 22.160133,31.978069 C 22.160133,31.978069 26.997745,27.140456 26.997745,27.140456 C 18.528582,18.264221 13.291696,25.230495 11.500037,31.436501 z"
             style="fill:#404040;"/>
          </a>
         </g>
        </svg>
</svg>
