<?xml version="1.0" encoding="UTF-8" standalone="no"?>
<!DOCTYPE svg PUBLIC "-//W3C//DTD SVG 1.1//EN"
 "http://www.w3.org/Graphics/SVG/1.1/DTD/svg11.dtd">
<!-- Generated by graphviz version 2.38.0 (20140413.2041)
 -->
<!-- Title: dubyou Pages: 1 -->
<svg width="212pt" height="28pt"
 viewBox="0.00 0.00 212.00 28.00" xmlns="http://www.w3.org/2000/svg" xmlns:xlink="http://www.w3.org/1999/xlink">
<g id="graph0" class="graph" transform="scale(1 1) rotate(0) translate(4 24)">
<title>dubyou</title>
<polygon fill="white" stroke="none" points="-4,4 -4,-24 208,-24 208,4 -4,4"/>
<!-- Node1 -->
<g id="node1" class="node"><title>Node1</title>
<polygon fill="#bfbfbf" stroke="black" points="0,-0.5 0,-19.5 50,-19.5 50,-0.5 0,-0.5"/>
<text text-anchor="middle" x="25" y="-7.5" font-family="Helvetica,sans-Serif" font-size="10.00">dubyou</text>
</g>
<!-- Node2 -->
<g id="node2" class="node"><title>Node2</title>
<g id="a_node2"><a xlink:href="../../db/de6/bal5_8f.html#ac53784df3d253de59a6985152298761f" target="_top" xlink:title="bal5">
<polygon fill="white" stroke="black" points="86,-0.5 86,-19.5 122,-19.5 122,-0.5 86,-0.5"/>
<text text-anchor="middle" x="104" y="-7.5" font-family="Helvetica,sans-Serif" font-size="10.00">bal5</text>
</a>
</g>
</g>
<!-- Node1&#45;&gt;Node2 -->
<g id="edge1" class="edge"><title>Node1&#45;&gt;Node2</title>
<path fill="none" stroke="midnightblue" d="M60.3795,-10C69.1172,-10 78.1413,-10 85.6237,-10"/>
<polygon fill="midnightblue" stroke="midnightblue" points="60.3633,-6.5001 50.3633,-10 60.3632,-13.5001 60.3633,-6.5001"/>
</g>
<!-- Node3 -->
<g id="node3" class="node"><title>Node3</title>
<g id="a_node3"><a xlink:href="../../d9/d21/wocss_8f.html#aacb06ae5117e6a3992c6e252e3537c17" target="_top" xlink:title="wocss">
<polygon fill="white" stroke="black" points="158,-0.5 158,-19.5 204,-19.5 204,-0.5 158,-0.5"/>
<text text-anchor="middle" x="181" y="-7.5" font-family="Helvetica,sans-Serif" font-size="10.00">wocss</text>
</a>
</g>
</g>
<!-- Node2&#45;&gt;Node3 -->
<g id="edge2" class="edge"><title>Node2&#45;&gt;Node3</title>
<path fill="none" stroke="midnightblue" d="M132.182,-10C140.639,-10 149.856,-10 157.921,-10"/>
<polygon fill="midnightblue" stroke="midnightblue" points="132.019,-6.5001 122.019,-10 132.019,-13.5001 132.019,-6.5001"/>
</g>
</g>
</svg>
