<?xml version="1.0" encoding="UTF-8" standalone="no"?>
<!DOCTYPE svg PUBLIC "-//W3C//DTD SVG 1.1//EN"
 "http://www.w3.org/Graphics/SVG/1.1/DTD/svg11.dtd">
<!-- Generated by graphviz version 2.38.0 (20140413.2041)
 -->
<!-- Title: bal5 Pages: 1 -->
<svg width="130pt" height="104pt"
 viewBox="0.00 0.00 130.00 104.00" xmlns="http://www.w3.org/2000/svg" xmlns:xlink="http://www.w3.org/1999/xlink">
<g id="graph0" class="graph" transform="scale(1 1) rotate(0) translate(4 100)">
<title>bal5</title>
<polygon fill="white" stroke="none" points="-4,4 -4,-100 126,-100 126,4 -4,4"/>
<!-- Node1 -->
<g id="node1" class="node"><title>Node1</title>
<polygon fill="#bfbfbf" stroke="black" points="0,-38.5 0,-57.5 36,-57.5 36,-38.5 0,-38.5"/>
<text text-anchor="middle" x="18" y="-45.5" font-family="Helvetica,sans-Serif" font-size="10.00">bal5</text>
</g>
<!-- Node2 -->
<g id="node2" class="node"><title>Node2</title>
<g id="a_node2"><a xlink:href="../../dc/db1/windest_8f.html#a1a799d468e57be9ea34605415a243104" target="_top" xlink:title="fixwnd">
<polygon fill="white" stroke="black" points="73.5,-76.5 73.5,-95.5 120.5,-95.5 120.5,-76.5 73.5,-76.5"/>
<text text-anchor="middle" x="97" y="-83.5" font-family="Helvetica,sans-Serif" font-size="10.00">fixwnd</text>
</a>
</g>
</g>
<!-- Node1&#45;&gt;Node2 -->
<g id="edge1" class="edge"><title>Node1&#45;&gt;Node2</title>
<path fill="none" stroke="midnightblue" d="M36.0888,-56.4334C45.2477,-60.9534 56.7771,-66.6433 67.2698,-71.8215"/>
<polygon fill="midnightblue" stroke="midnightblue" points="66.0004,-75.098 76.5168,-76.3849 69.0983,-68.8208 66.0004,-75.098"/>
</g>
<!-- Node3 -->
<g id="node3" class="node"><title>Node3</title>
<g id="a_node3"><a xlink:href="../../d0/da4/utils_8f.html#aefec7f68acfef601819ad86d7238d9ae" target="_top" xlink:title="setmat">
<polygon fill="white" stroke="black" points="73,-38.5 73,-57.5 121,-57.5 121,-38.5 73,-38.5"/>
<text text-anchor="middle" x="97" y="-45.5" font-family="Helvetica,sans-Serif" font-size="10.00">setmat</text>
</a>
</g>
</g>
<!-- Node1&#45;&gt;Node3 -->
<g id="edge2" class="edge"><title>Node1&#45;&gt;Node3</title>
<path fill="none" stroke="midnightblue" d="M36.0888,-48C43.9435,-48 53.5415,-48 62.734,-48"/>
<polygon fill="midnightblue" stroke="midnightblue" points="62.8257,-51.5001 72.8257,-48 62.8257,-44.5001 62.8257,-51.5001"/>
</g>
<!-- Node4 -->
<g id="node4" class="node"><title>Node4</title>
<g id="a_node4"><a xlink:href="../../db/d27/vertvel_8f.html#ac1bfd17e3487a16f270bea7c7e3e4597" target="_top" xlink:title="dubyou">
<polygon fill="white" stroke="black" points="72,-0.5 72,-19.5 122,-19.5 122,-0.5 72,-0.5"/>
<text text-anchor="middle" x="97" y="-7.5" font-family="Helvetica,sans-Serif" font-size="10.00">dubyou</text>
</a>
</g>
</g>
<!-- Node1&#45;&gt;Node4 -->
<g id="edge3" class="edge"><title>Node1&#45;&gt;Node4</title>
<path fill="none" stroke="midnightblue" d="M36.0888,-39.5666C45.2477,-35.0466 56.7771,-29.3567 67.2698,-24.1785"/>
<polygon fill="midnightblue" stroke="midnightblue" points="69.0983,-27.1792 76.5168,-19.6151 66.0004,-20.902 69.0983,-27.1792"/>
</g>
</g>
</svg>
