<?xml version="1.0" encoding="UTF-8" standalone="no"?>
<!DOCTYPE svg PUBLIC "-//W3C//DTD SVG 1.1//EN"
 "http://www.w3.org/Graphics/SVG/1.1/DTD/svg11.dtd">
<!-- Generated by graphviz version 2.38.0 (20140413.2041)
 -->
<!-- Title: putout Pages: 1 -->
<svg width="196pt" height="161pt"
 viewBox="0.00 0.00 196.00 161.00" xmlns="http://www.w3.org/2000/svg" xmlns:xlink="http://www.w3.org/1999/xlink">
<g id="graph0" class="graph" transform="scale(1 1) rotate(0) translate(4 157)">
<title>putout</title>
<polygon fill="white" stroke="none" points="-4,4 -4,-157 192,-157 192,4 -4,4"/>
<!-- Node1 -->
<g id="node1" class="node"><title>Node1</title>
<polygon fill="#bfbfbf" stroke="black" points="0,-57.5 0,-76.5 45,-76.5 45,-57.5 0,-57.5"/>
<text text-anchor="middle" x="22.5" y="-64.5" font-family="Helvetica,sans-Serif" font-size="10.00">putout</text>
</g>
<!-- Node2 -->
<g id="node2" class="node"><title>Node2</title>
<g id="a_node2"><a xlink:href="../../d0/da4/utils_8f.html#a042920ed1d556ec6a6572c76a004afae" target="_top" xlink:title="setint">
<polygon fill="white" stroke="black" points="81,-133.5 81,-152.5 123,-152.5 123,-133.5 81,-133.5"/>
<text text-anchor="middle" x="102" y="-140.5" font-family="Helvetica,sans-Serif" font-size="10.00">setint</text>
</a>
</g>
</g>
<!-- Node1&#45;&gt;Node2 -->
<g id="edge1" class="edge"><title>Node1&#45;&gt;Node2</title>
<path fill="none" stroke="midnightblue" d="M33.2047,-76.7456C44.586,-88.1457 64.0533,-107.554 81,-124 81.7905,-124.767 82.6004,-125.55 83.4198,-126.339"/>
<polygon fill="midnightblue" stroke="midnightblue" points="81.1371,-128.999 90.7855,-133.376 85.9726,-123.937 81.1371,-128.999"/>
</g>
<!-- Node3 -->
<g id="node3" class="node"><title>Node3</title>
<g id="a_node3"><a xlink:href="../../d0/da4/utils_8f.html#ada49f994f851db3de12768d051cd93fb" target="_top" xlink:title="cvt2p">
<polygon fill="white" stroke="black" points="81,-95.5 81,-114.5 123,-114.5 123,-95.5 81,-95.5"/>
<text text-anchor="middle" x="102" y="-102.5" font-family="Helvetica,sans-Serif" font-size="10.00">cvt2p</text>
</a>
</g>
</g>
<!-- Node1&#45;&gt;Node3 -->
<g id="edge2" class="edge"><title>Node1&#45;&gt;Node3</title>
<path fill="none" stroke="midnightblue" d="M43.0565,-76.589C51.9596,-80.9544 62.6712,-86.2065 72.4497,-91.0012"/>
<polygon fill="midnightblue" stroke="midnightblue" points="70.9301,-94.1541 81.4497,-95.4141 74.0119,-87.869 70.9301,-94.1541"/>
</g>
<!-- Node4 -->
<g id="node4" class="node"><title>Node4</title>
<g id="a_node4"><a xlink:href="../../d0/da4/utils_8f.html#a2ea37adbef73c587b6708200cb19f03a" target="_top" xlink:title="tpot">
<polygon fill="white" stroke="black" points="84.5,-57.5 84.5,-76.5 119.5,-76.5 119.5,-57.5 84.5,-57.5"/>
<text text-anchor="middle" x="102" y="-64.5" font-family="Helvetica,sans-Serif" font-size="10.00">tpot</text>
</a>
</g>
</g>
<!-- Node1&#45;&gt;Node4 -->
<g id="edge3" class="edge"><title>Node1&#45;&gt;Node4</title>
<path fill="none" stroke="midnightblue" d="M45.0881,-67C54.0695,-67 64.5925,-67 74.0716,-67"/>
<polygon fill="midnightblue" stroke="midnightblue" points="74.1926,-70.5001 84.1926,-67 74.1926,-63.5001 74.1926,-70.5001"/>
</g>
<!-- Node5 -->
<g id="node5" class="node"><title>Node5</title>
<g id="a_node5"><a xlink:href="../../d0/da4/utils_8f.html#aea6bd637ff6e9292b15591b24874cb9d" target="_top" xlink:title="dd">
<polygon fill="white" stroke="black" points="87.5,-19.5 87.5,-38.5 116.5,-38.5 116.5,-19.5 87.5,-19.5"/>
<text text-anchor="middle" x="102" y="-26.5" font-family="Helvetica,sans-Serif" font-size="10.00">dd</text>
</a>
</g>
</g>
<!-- Node1&#45;&gt;Node5 -->
<g id="edge4" class="edge"><title>Node1&#45;&gt;Node5</title>
<path fill="none" stroke="midnightblue" d="M43.0565,-57.411C53.7386,-52.1734 67.0239,-45.6592 78.1777,-40.1903"/>
<polygon fill="midnightblue" stroke="midnightblue" points="79.8739,-43.2567 87.3118,-35.7116 76.7922,-36.9716 79.8739,-43.2567"/>
</g>
<!-- Node6 -->
<g id="node6" class="node"><title>Node6</title>
<g id="a_node6"><a xlink:href="../../d0/da4/utils_8f.html#a0372175a02e9a75442b6070a9636130c" target="_top" xlink:title="sp">
<polygon fill="white" stroke="black" points="159,-0.5 159,-19.5 188,-19.5 188,-0.5 159,-0.5"/>
<text text-anchor="middle" x="173.5" y="-7.5" font-family="Helvetica,sans-Serif" font-size="10.00">sp</text>
</a>
</g>
</g>
<!-- Node1&#45;&gt;Node6 -->
<g id="edge6" class="edge"><title>Node1&#45;&gt;Node6</title>
<path fill="none" stroke="midnightblue" d="M29.5081,-57.4583C38.6812,-43.8986 57.6035,-19.6314 81,-10 102.713,-1.06174 129.856,-2.44525 148.921,-5.21096"/>
<polygon fill="midnightblue" stroke="midnightblue" points="148.41,-8.67415 158.852,-6.882 149.572,-1.77118 148.41,-8.67415"/>
</g>
<!-- Node5&#45;&gt;Node6 -->
<g id="edge5" class="edge"><title>Node5&#45;&gt;Node6</title>
<path fill="none" stroke="midnightblue" d="M116.731,-25.2462C125.964,-22.722 138.369,-19.3307 149.135,-16.3876"/>
<polygon fill="midnightblue" stroke="midnightblue" points="150.075,-19.7592 158.798,-13.746 148.229,-13.007 150.075,-19.7592"/>
</g>
</g>
</svg>
