<?xml version="1.0" encoding="UTF-8" standalone="no"?>
<!DOCTYPE svg PUBLIC "-//W3C//DTD SVG 1.1//EN"
 "http://www.w3.org/Graphics/SVG/1.1/DTD/svg11.dtd">
<!-- Generated by graphviz version 2.38.0 (20140413.2041)
 -->
<!-- Title: fixwnd Pages: 1 -->
<svg width="306pt" height="66pt"
 viewBox="0.00 0.00 306.00 66.00" xmlns="http://www.w3.org/2000/svg" xmlns:xlink="http://www.w3.org/1999/xlink">
<g id="graph0" class="graph" transform="scale(1 1) rotate(0) translate(4 62)">
<title>fixwnd</title>
<polygon fill="white" stroke="none" points="-4,4 -4,-62 302,-62 302,4 -4,4"/>
<!-- Node1 -->
<g id="node1" class="node"><title>Node1</title>
<polygon fill="#bfbfbf" stroke="black" points="0,-19.5 0,-38.5 47,-38.5 47,-19.5 0,-19.5"/>
<text text-anchor="middle" x="23.5" y="-26.5" font-family="Helvetica,sans-Serif" font-size="10.00">fixwnd</text>
</g>
<!-- Node2 -->
<g id="node2" class="node"><title>Node2</title>
<g id="a_node2"><a xlink:href="../../db/de6/bal5_8f.html#ac53784df3d253de59a6985152298761f" target="_top" xlink:title="bal5">
<polygon fill="white" stroke="black" points="174.5,-38.5 174.5,-57.5 210.5,-57.5 210.5,-38.5 174.5,-38.5"/>
<text text-anchor="middle" x="192.5" y="-45.5" font-family="Helvetica,sans-Serif" font-size="10.00">bal5</text>
</a>
</g>
</g>
<!-- Node1&#45;&gt;Node2 -->
<g id="edge1" class="edge"><title>Node1&#45;&gt;Node2</title>
<path fill="none" stroke="midnightblue" d="M57.2606,-32.7272C92.4148,-36.7268 146.895,-42.9252 174.389,-46.0532"/>
<polygon fill="midnightblue" stroke="midnightblue" points="57.3539,-29.2154 47.0224,-31.5624 56.5626,-36.1705 57.3539,-29.2154"/>
</g>
<!-- Node4 -->
<g id="node4" class="node"><title>Node4</title>
<g id="a_node4"><a xlink:href="../../dd/d8b/levwnd_8f.html#a071704a067fa176be873eaafe88cd40e" target="_top" xlink:title="levwnd">
<polygon fill="white" stroke="black" points="83,-0.5 83,-19.5 133,-19.5 133,-0.5 83,-0.5"/>
<text text-anchor="middle" x="108" y="-7.5" font-family="Helvetica,sans-Serif" font-size="10.00">levwnd</text>
</a>
</g>
</g>
<!-- Node1&#45;&gt;Node4 -->
<g id="edge3" class="edge"><title>Node1&#45;&gt;Node4</title>
<path fill="none" stroke="midnightblue" d="M56.8269,-21.555C65.4573,-19.5674 74.635,-17.4538 82.7491,-15.5851"/>
<polygon fill="midnightblue" stroke="midnightblue" points="56.0029,-18.1531 47.0435,-23.8082 57.5739,-24.9745 56.0029,-18.1531"/>
</g>
<!-- Node3 -->
<g id="node3" class="node"><title>Node3</title>
<g id="a_node3"><a xlink:href="../../d9/d21/wocss_8f.html#aacb06ae5117e6a3992c6e252e3537c17" target="_top" xlink:title="wocss">
<polygon fill="white" stroke="black" points="252,-19.5 252,-38.5 298,-38.5 298,-19.5 252,-19.5"/>
<text text-anchor="middle" x="275" y="-26.5" font-family="Helvetica,sans-Serif" font-size="10.00">wocss</text>
</a>
</g>
</g>
<!-- Node2&#45;&gt;Node3 -->
<g id="edge2" class="edge"><title>Node2&#45;&gt;Node3</title>
<path fill="none" stroke="midnightblue" d="M220.559,-41.6135C230.699,-39.2202 242.095,-36.5305 251.75,-34.2516"/>
<polygon fill="midnightblue" stroke="midnightblue" points="219.501,-38.267 210.572,-43.9706 221.109,-45.0798 219.501,-38.267"/>
</g>
<!-- Node5 -->
<g id="node5" class="node"><title>Node5</title>
<g id="a_node5"><a xlink:href="../../d0/dae/winterp_8f.html#a3e383f3e341b5bceeba6c03663cfa072" target="_top" xlink:title="tstwnd">
<polygon fill="white" stroke="black" points="169,-0.5 169,-19.5 216,-19.5 216,-0.5 169,-0.5"/>
<text text-anchor="middle" x="192.5" y="-7.5" font-family="Helvetica,sans-Serif" font-size="10.00">tstwnd</text>
</a>
</g>
</g>
<!-- Node4&#45;&gt;Node5 -->
<g id="edge4" class="edge"><title>Node4&#45;&gt;Node5</title>
<path fill="none" stroke="midnightblue" d="M143.438,-10C151.992,-10 160.948,-10 168.779,-10"/>
<polygon fill="midnightblue" stroke="midnightblue" points="143.307,-6.5001 133.307,-10 143.306,-13.5001 143.307,-6.5001"/>
</g>
<!-- Node5&#45;&gt;Node3 -->
<g id="edge5" class="edge"><title>Node5&#45;&gt;Node3</title>
<path fill="none" stroke="midnightblue" d="M226.189,-17.7154C234.843,-19.7579 243.981,-21.9147 251.923,-23.7893"/>
<polygon fill="midnightblue" stroke="midnightblue" points="226.889,-14.2846 216.353,-15.3938 225.281,-21.0974 226.889,-14.2846"/>
</g>
</g>
</svg>
