<?xml version="1.0" encoding="UTF-8" standalone="no"?>
<!DOCTYPE svg PUBLIC "-//W3C//DTD SVG 1.1//EN"
 "http://www.w3.org/Graphics/SVG/1.1/DTD/svg11.dtd">
<!-- Generated by graphviz version 2.38.0 (20140413.2041)
 -->
<!-- Title: betwin Pages: 1 -->
<svg width="228pt" height="66pt"
 viewBox="0.00 0.00 228.00 66.00" xmlns="http://www.w3.org/2000/svg" xmlns:xlink="http://www.w3.org/1999/xlink">
<g id="graph0" class="graph" transform="scale(1 1) rotate(0) translate(4 62)">
<title>betwin</title>
<polygon fill="white" stroke="none" points="-4,4 -4,-62 224,-62 224,4 -4,4"/>
<!-- Node1 -->
<g id="node1" class="node"><title>Node1</title>
<polygon fill="#bfbfbf" stroke="black" points="0,-19.5 0,-38.5 47,-38.5 47,-19.5 0,-19.5"/>
<text text-anchor="middle" x="23.5" y="-26.5" font-family="Helvetica,sans-Serif" font-size="10.00">betwin</text>
</g>
<!-- Node2 -->
<g id="node2" class="node"><title>Node2</title>
<g id="a_node2"><a xlink:href="../../d0/da4/utils_8f.html#ae2d94dded1c7d5cb50cb38a013c79353" target="_top" xlink:title="lgntrp">
<polygon fill="white" stroke="black" points="88,-38.5 88,-57.5 132,-57.5 132,-38.5 88,-38.5"/>
<text text-anchor="middle" x="110" y="-45.5" font-family="Helvetica,sans-Serif" font-size="10.00">lgntrp</text>
</a>
</g>
</g>
<!-- Node1&#45;&gt;Node2 -->
<g id="edge1" class="edge"><title>Node1&#45;&gt;Node2</title>
<path fill="none" stroke="midnightblue" d="M47.1444,-34.0917C56.604,-36.2187 67.7483,-38.7245 77.9529,-41.019"/>
<polygon fill="midnightblue" stroke="midnightblue" points="77.2227,-44.4421 87.747,-43.2212 78.7584,-37.6126 77.2227,-44.4421"/>
</g>
<!-- Node3 -->
<g id="node3" class="node"><title>Node3</title>
<g id="a_node3"><a xlink:href="../../db/dfb/invwt_8f.html#a60a9c84e17e33143f25f150551b9cb67" target="_top" xlink:title="rinvmod">
<polygon fill="white" stroke="black" points="83,-0.5 83,-19.5 137,-19.5 137,-0.5 83,-0.5"/>
<text text-anchor="middle" x="110" y="-7.5" font-family="Helvetica,sans-Serif" font-size="10.00">rinvmod</text>
</a>
</g>
</g>
<!-- Node1&#45;&gt;Node3 -->
<g id="edge2" class="edge"><title>Node1&#45;&gt;Node3</title>
<path fill="none" stroke="midnightblue" d="M47.1444,-23.9083C55.0152,-22.1386 64.0523,-20.1066 72.744,-18.1522"/>
<polygon fill="midnightblue" stroke="midnightblue" points="73.7094,-21.5226 82.698,-15.9141 72.1737,-14.6931 73.7094,-21.5226"/>
</g>
<!-- Node4 -->
<g id="node4" class="node"><title>Node4</title>
<g id="a_node4"><a xlink:href="../../d0/da4/utils_8f.html#ac7475efe535e2a13e0c32b30e80d52a6" target="_top" xlink:title="wndwt">
<polygon fill="white" stroke="black" points="173,-0.5 173,-19.5 220,-19.5 220,-0.5 173,-0.5"/>
<text text-anchor="middle" x="196.5" y="-7.5" font-family="Helvetica,sans-Serif" font-size="10.00">wndwt</text>
</a>
</g>
</g>
<!-- Node3&#45;&gt;Node4 -->
<g id="edge3" class="edge"><title>Node3&#45;&gt;Node4</title>
<path fill="none" stroke="midnightblue" d="M137.273,-10C145.312,-10 154.257,-10 162.675,-10"/>
<polygon fill="midnightblue" stroke="midnightblue" points="162.949,-13.5001 172.949,-10 162.949,-6.5001 162.949,-13.5001"/>
</g>
</g>
</svg>
