<?xml version="1.0" encoding="UTF-8" standalone="no"?>
<!DOCTYPE svg PUBLIC "-//W3C//DTD SVG 1.1//EN"
 "http://www.w3.org/Graphics/SVG/1.1/DTD/svg11.dtd">
<!-- Generated by graphviz version 2.38.0 (20140413.2041)
 -->
<!-- Title: tstwnd Pages: 1 -->
<svg width="289pt" height="294pt"
 viewBox="0.00 0.00 289.00 294.00" xmlns="http://www.w3.org/2000/svg" xmlns:xlink="http://www.w3.org/1999/xlink">
<g id="graph0" class="graph" transform="scale(1 1) rotate(0) translate(4 290)">
<title>tstwnd</title>
<polygon fill="white" stroke="none" points="-4,4 -4,-290 285,-290 285,4 -4,4"/>
<!-- Node1 -->
<g id="node1" class="node"><title>Node1</title>
<polygon fill="#bfbfbf" stroke="black" points="0,-57.5 0,-76.5 47,-76.5 47,-57.5 0,-57.5"/>
<text text-anchor="middle" x="23.5" y="-64.5" font-family="Helvetica,sans-Serif" font-size="10.00">tstwnd</text>
</g>
<!-- Node2 -->
<g id="node2" class="node"><title>Node2</title>
<g id="a_node2"><a xlink:href="../../dd/d8b/levwnd_8f.html#a071704a067fa176be873eaafe88cd40e" target="_top" xlink:title="levwnd">
<polygon fill="white" stroke="black" points="83,-152.5 83,-171.5 133,-171.5 133,-152.5 83,-152.5"/>
<text text-anchor="middle" x="108" y="-159.5" font-family="Helvetica,sans-Serif" font-size="10.00">levwnd</text>
</a>
</g>
</g>
<!-- Node1&#45;&gt;Node2 -->
<g id="edge1" class="edge"><title>Node1&#45;&gt;Node2</title>
<path fill="none" stroke="midnightblue" d="M33.0182,-76.8089C46.9231,-92.8205 74.6768,-124.779 91.9572,-144.678"/>
<polygon fill="midnightblue" stroke="midnightblue" points="89.4515,-147.131 98.651,-152.386 94.7367,-142.541 89.4515,-147.131"/>
</g>
<!-- Node7 -->
<g id="node7" class="node"><title>Node7</title>
<g id="a_node7"><a xlink:href="../../d0/da4/utils_8f.html#a0372175a02e9a75442b6070a9636130c" target="_top" xlink:title="sp">
<polygon fill="white" stroke="black" points="252,-76.5 252,-95.5 281,-95.5 281,-76.5 252,-76.5"/>
<text text-anchor="middle" x="266.5" y="-83.5" font-family="Helvetica,sans-Serif" font-size="10.00">sp</text>
</a>
</g>
</g>
<!-- Node1&#45;&gt;Node7 -->
<g id="edge9" class="edge"><title>Node1&#45;&gt;Node7</title>
<path fill="none" stroke="midnightblue" d="M47.1494,-64.3547C83.2368,-60.7296 155.851,-55.8527 216,-67 224.88,-68.6457 234.224,-71.8206 242.372,-75.1108"/>
<polygon fill="midnightblue" stroke="midnightblue" points="241.037,-78.3467 251.606,-79.0864 243.805,-71.9172 241.037,-78.3467"/>
</g>
<!-- Node8 -->
<g id="node8" class="node"><title>Node8</title>
<g id="a_node8"><a xlink:href="../../d0/da4/utils_8f.html#aea6bd637ff6e9292b15591b24874cb9d" target="_top" xlink:title="dd">
<polygon fill="white" stroke="black" points="178,-76.5 178,-95.5 207,-95.5 207,-76.5 178,-76.5"/>
<text text-anchor="middle" x="192.5" y="-83.5" font-family="Helvetica,sans-Serif" font-size="10.00">dd</text>
</a>
</g>
</g>
<!-- Node1&#45;&gt;Node8 -->
<g id="edge10" class="edge"><title>Node1&#45;&gt;Node8</title>
<path fill="none" stroke="midnightblue" d="M47.0224,-69.5624C78.4009,-73.1324 135.041,-79.5765 167.294,-83.2461"/>
<polygon fill="midnightblue" stroke="midnightblue" points="167.273,-86.7661 177.605,-84.4191 168.065,-79.811 167.273,-86.7661"/>
</g>
<!-- Node9 -->
<g id="node9" class="node"><title>Node9</title>
<g id="a_node9"><a xlink:href="../../d0/da4/utils_8f.html#ad51409e488caa0b6621caa12ad29297c" target="_top" xlink:title="degdif">
<polygon fill="white" stroke="black" points="85,-0.5 85,-19.5 131,-19.5 131,-0.5 85,-0.5"/>
<text text-anchor="middle" x="108" y="-7.5" font-family="Helvetica,sans-Serif" font-size="10.00">degdif</text>
</a>
</g>
</g>
<!-- Node1&#45;&gt;Node9 -->
<g id="edge11" class="edge"><title>Node1&#45;&gt;Node9</title>
<path fill="none" stroke="midnightblue" d="M38.495,-57.3307C51.1344,-48.5981 69.9532,-35.596 84.6702,-25.4278"/>
<polygon fill="midnightblue" stroke="midnightblue" points="86.9739,-28.0904 93.2117,-19.5265 82.9948,-22.3313 86.9739,-28.0904"/>
</g>
<!-- Node3 -->
<g id="node3" class="node"><title>Node3</title>
<g id="a_node3"><a xlink:href="../../dc/db1/windest_8f.html#a1a799d468e57be9ea34605415a243104" target="_top" xlink:title="fixwnd">
<polygon fill="white" stroke="black" points="169,-266.5 169,-285.5 216,-285.5 216,-266.5 169,-266.5"/>
<text text-anchor="middle" x="192.5" y="-273.5" font-family="Helvetica,sans-Serif" font-size="10.00">fixwnd</text>
</a>
</g>
</g>
<!-- Node2&#45;&gt;Node3 -->
<g id="edge2" class="edge"><title>Node2&#45;&gt;Node3</title>
<path fill="none" stroke="midnightblue" d="M113.763,-171.548C122.952,-189.44 144.404,-228.754 169,-257 169.617,-257.708 170.261,-258.413 170.926,-259.111"/>
<polygon fill="midnightblue" stroke="midnightblue" points="168.799,-261.914 178.497,-266.181 173.577,-256.798 168.799,-261.914"/>
</g>
<!-- Node4 -->
<g id="node4" class="node"><title>Node4</title>
<g id="a_node4"><a xlink:href="../../d0/da4/utils_8f.html#ae2d94dded1c7d5cb50cb38a013c79353" target="_top" xlink:title="lgntrp">
<polygon fill="white" stroke="black" points="170.5,-228.5 170.5,-247.5 214.5,-247.5 214.5,-228.5 170.5,-228.5"/>
<text text-anchor="middle" x="192.5" y="-235.5" font-family="Helvetica,sans-Serif" font-size="10.00">lgntrp</text>
</a>
</g>
</g>
<!-- Node2&#45;&gt;Node4 -->
<g id="edge3" class="edge"><title>Node2&#45;&gt;Node4</title>
<path fill="none" stroke="midnightblue" d="M119.022,-171.866C130.8,-183.379 151.021,-202.894 169,-219 169.985,-219.883 171.001,-220.781 172.032,-221.683"/>
<polygon fill="midnightblue" stroke="midnightblue" points="170.072,-224.613 179.943,-228.462 174.627,-219.297 170.072,-224.613"/>
</g>
<!-- Node5 -->
<g id="node5" class="node"><title>Node5</title>
<g id="a_node5"><a xlink:href="../../d0/da4/utils_8f.html#ada49f994f851db3de12768d051cd93fb" target="_top" xlink:title="cvt2p">
<polygon fill="white" stroke="black" points="171.5,-190.5 171.5,-209.5 213.5,-209.5 213.5,-190.5 171.5,-190.5"/>
<text text-anchor="middle" x="192.5" y="-197.5" font-family="Helvetica,sans-Serif" font-size="10.00">cvt2p</text>
</a>
</g>
</g>
<!-- Node2&#45;&gt;Node5 -->
<g id="edge4" class="edge"><title>Node2&#45;&gt;Node5</title>
<path fill="none" stroke="midnightblue" d="M129.818,-171.589C139.54,-176.067 151.286,-181.477 161.909,-186.37"/>
<polygon fill="midnightblue" stroke="midnightblue" points="160.712,-189.672 171.259,-190.677 163.64,-183.314 160.712,-189.672"/>
</g>
<!-- Node6 -->
<g id="node6" class="node"><title>Node6</title>
<g id="a_node6"><a xlink:href="../../d0/da4/utils_8f.html#a4f313e0a002cd074fefa8c3c6644de44" target="_top" xlink:title="xlintr">
<polygon fill="white" stroke="black" points="173,-152.5 173,-171.5 212,-171.5 212,-152.5 173,-152.5"/>
<text text-anchor="middle" x="192.5" y="-159.5" font-family="Helvetica,sans-Serif" font-size="10.00">xlintr</text>
</a>
</g>
</g>
<!-- Node2&#45;&gt;Node6 -->
<g id="edge5" class="edge"><title>Node2&#45;&gt;Node6</title>
<path fill="none" stroke="midnightblue" d="M133.307,-162C142.492,-162 153.035,-162 162.602,-162"/>
<polygon fill="midnightblue" stroke="midnightblue" points="162.863,-165.5 172.863,-162 162.863,-158.5 162.863,-165.5"/>
</g>
<!-- Node2&#45;&gt;Node7 -->
<g id="edge6" class="edge"><title>Node2&#45;&gt;Node7</title>
<path fill="none" stroke="midnightblue" d="M128.821,-152.375C157.914,-138.246 212.044,-111.96 242.731,-97.0574"/>
<polygon fill="midnightblue" stroke="midnightblue" points="244.342,-100.166 251.809,-92.6488 241.284,-93.8689 244.342,-100.166"/>
</g>
<!-- Node2&#45;&gt;Node8 -->
<g id="edge7" class="edge"><title>Node2&#45;&gt;Node8</title>
<path fill="none" stroke="midnightblue" d="M119.449,-152.375C133.086,-139.811 157.16,-117.635 173.7,-102.398"/>
<polygon fill="midnightblue" stroke="midnightblue" points="176.153,-104.897 181.136,-95.5473 171.41,-99.7485 176.153,-104.897"/>
</g>
<!-- Node8&#45;&gt;Node7 -->
<g id="edge8" class="edge"><title>Node8&#45;&gt;Node7</title>
<path fill="none" stroke="midnightblue" d="M207.043,-86C216.674,-86 229.876,-86 241.297,-86"/>
<polygon fill="midnightblue" stroke="midnightblue" points="241.527,-89.5001 251.527,-86 241.527,-82.5001 241.527,-89.5001"/>
</g>
</g>
</svg>
