<?xml version="1.0" encoding="UTF-8" standalone="no"?>
<!DOCTYPE svg PUBLIC "-//W3C//DTD SVG 1.1//EN"
 "http://www.w3.org/Graphics/SVG/1.1/DTD/svg11.dtd">
<!-- Generated by graphviz version 2.38.0 (20140413.2041)
 -->
<!-- Title: strat Pages: 1 -->
<svg width="129pt" height="218pt"
 viewBox="0.00 0.00 129.00 218.00" xmlns="http://www.w3.org/2000/svg" xmlns:xlink="http://www.w3.org/1999/xlink">
<g id="graph0" class="graph" transform="scale(1 1) rotate(0) translate(4 214)">
<title>strat</title>
<polygon fill="white" stroke="none" points="-4,4 -4,-214 125,-214 125,4 -4,4"/>
<!-- Node1 -->
<g id="node1" class="node"><title>Node1</title>
<polygon fill="#bfbfbf" stroke="black" points="0,-95.5 0,-114.5 38,-114.5 38,-95.5 0,-95.5"/>
<text text-anchor="middle" x="19" y="-102.5" font-family="Helvetica,sans-Serif" font-size="10.00">strat</text>
</g>
<!-- Node2 -->
<g id="node2" class="node"><title>Node2</title>
<g id="a_node2"><a xlink:href="../../d0/da4/utils_8f.html#a2ea37adbef73c587b6708200cb19f03a" target="_top" xlink:title="tpot">
<polygon fill="white" stroke="black" points="80,-190.5 80,-209.5 115,-209.5 115,-190.5 80,-190.5"/>
<text text-anchor="middle" x="97.5" y="-197.5" font-family="Helvetica,sans-Serif" font-size="10.00">tpot</text>
</a>
</g>
</g>
<!-- Node1&#45;&gt;Node2 -->
<g id="edge1" class="edge"><title>Node1&#45;&gt;Node2</title>
<path fill="none" stroke="midnightblue" d="M25.7771,-114.697C34.9699,-129.731 53.9478,-159.199 74,-181 74.7615,-181.828 75.5582,-182.654 76.3786,-183.472"/>
<polygon fill="midnightblue" stroke="midnightblue" points="74.3278,-186.337 84.0834,-190.47 79.0343,-181.156 74.3278,-186.337"/>
</g>
<!-- Node3 -->
<g id="node3" class="node"><title>Node3</title>
<g id="a_node3"><a xlink:href="../../d0/da4/utils_8f.html#ae26fe353463c9a52b0d379e4d78fe899" target="_top" xlink:title="altset">
<polygon fill="white" stroke="black" points="76.5,-152.5 76.5,-171.5 118.5,-171.5 118.5,-152.5 76.5,-152.5"/>
<text text-anchor="middle" x="97.5" y="-159.5" font-family="Helvetica,sans-Serif" font-size="10.00">altset</text>
</a>
</g>
</g>
<!-- Node1&#45;&gt;Node3 -->
<g id="edge2" class="edge"><title>Node1&#45;&gt;Node3</title>
<path fill="none" stroke="midnightblue" d="M32.9772,-114.669C44.5868,-123.32 61.8188,-136.159 75.407,-146.284"/>
<polygon fill="midnightblue" stroke="midnightblue" points="73.6044,-149.305 83.7145,-152.474 77.7868,-143.692 73.6044,-149.305"/>
</g>
<!-- Node4 -->
<g id="node4" class="node"><title>Node4</title>
<g id="a_node4"><a xlink:href="../../d0/da4/utils_8f.html#a4f313e0a002cd074fefa8c3c6644de44" target="_top" xlink:title="xlintr">
<polygon fill="white" stroke="black" points="78,-114.5 78,-133.5 117,-133.5 117,-114.5 78,-114.5"/>
<text text-anchor="middle" x="97.5" y="-121.5" font-family="Helvetica,sans-Serif" font-size="10.00">xlintr</text>
</a>
</g>
</g>
<!-- Node1&#45;&gt;Node4 -->
<g id="edge3" class="edge"><title>Node1&#45;&gt;Node4</title>
<path fill="none" stroke="midnightblue" d="M38.1294,-109.503C47.049,-111.718 58.0093,-114.44 68.0143,-116.925"/>
<polygon fill="midnightblue" stroke="midnightblue" points="67.4205,-120.384 77.9693,-119.398 69.1078,-113.59 67.4205,-120.384"/>
</g>
<!-- Node5 -->
<g id="node5" class="node"><title>Node5</title>
<g id="a_node5"><a xlink:href="../../d0/da4/utils_8f.html#ada49f994f851db3de12768d051cd93fb" target="_top" xlink:title="cvt2p">
<polygon fill="white" stroke="black" points="76.5,-76.5 76.5,-95.5 118.5,-95.5 118.5,-76.5 76.5,-76.5"/>
<text text-anchor="middle" x="97.5" y="-83.5" font-family="Helvetica,sans-Serif" font-size="10.00">cvt2p</text>
</a>
</g>
</g>
<!-- Node1&#45;&gt;Node5 -->
<g id="edge4" class="edge"><title>Node1&#45;&gt;Node5</title>
<path fill="none" stroke="midnightblue" d="M38.1294,-100.497C46.5658,-98.402 56.8276,-95.8533 66.3802,-93.4807"/>
<polygon fill="midnightblue" stroke="midnightblue" points="67.4859,-96.8125 76.3474,-91.0052 65.7986,-90.0189 67.4859,-96.8125"/>
</g>
<!-- Node6 -->
<g id="node6" class="node"><title>Node6</title>
<g id="a_node6"><a xlink:href="../../d0/da4/utils_8f.html#aa67cf7df9fac8b49ecb8fb020821d525" target="_top" xlink:title="pt2t">
<polygon fill="white" stroke="black" points="80,-38.5 80,-57.5 115,-57.5 115,-38.5 80,-38.5"/>
<text text-anchor="middle" x="97.5" y="-45.5" font-family="Helvetica,sans-Serif" font-size="10.00">pt2t</text>
</a>
</g>
</g>
<!-- Node1&#45;&gt;Node6 -->
<g id="edge5" class="edge"><title>Node1&#45;&gt;Node6</title>
<path fill="none" stroke="midnightblue" d="M32.9772,-95.3307C44.5868,-86.6804 61.8188,-73.8409 75.407,-63.7164"/>
<polygon fill="midnightblue" stroke="midnightblue" points="77.7868,-66.3079 83.7145,-57.5265 73.6044,-60.6947 77.7868,-66.3079"/>
</g>
<!-- Node7 -->
<g id="node7" class="node"><title>Node7</title>
<g id="a_node7"><a xlink:href="../../d0/da4/utils_8f.html#ac7475efe535e2a13e0c32b30e80d52a6" target="_top" xlink:title="wndwt">
<polygon fill="white" stroke="black" points="74,-0.5 74,-19.5 121,-19.5 121,-0.5 74,-0.5"/>
<text text-anchor="middle" x="97.5" y="-7.5" font-family="Helvetica,sans-Serif" font-size="10.00">wndwt</text>
</a>
</g>
</g>
<!-- Node1&#45;&gt;Node7 -->
<g id="edge6" class="edge"><title>Node1&#45;&gt;Node7</title>
<path fill="none" stroke="midnightblue" d="M25.7771,-95.3029C34.9699,-80.2693 53.9478,-50.8006 74,-29 74.7615,-28.1721 75.5582,-27.3463 76.3786,-26.5281"/>
<polygon fill="midnightblue" stroke="midnightblue" points="79.0343,-28.8442 84.0834,-19.5298 74.3278,-23.6626 79.0343,-28.8442"/>
</g>
</g>
</svg>
