<?xml version="1.0" encoding="UTF-8" standalone="no"?>
<!DOCTYPE svg PUBLIC "-//W3C//DTD SVG 1.1//EN"
 "http://www.w3.org/Graphics/SVG/1.1/DTD/svg11.dtd">
<!-- Generated by graphviz version 2.38.0 (20140413.2041)
 -->
<!-- Title: levwnd Pages: 1 -->
<svg width="206pt" height="218pt"
 viewBox="0.00 0.00 206.00 218.00" xmlns="http://www.w3.org/2000/svg" xmlns:xlink="http://www.w3.org/1999/xlink">
<g id="graph0" class="graph" transform="scale(1 1) rotate(0) translate(4 214)">
<title>levwnd</title>
<polygon fill="white" stroke="none" points="-4,4 -4,-214 202,-214 202,4 -4,4"/>
<!-- Node1 -->
<g id="node1" class="node"><title>Node1</title>
<polygon fill="#bfbfbf" stroke="black" points="0,-95.5 0,-114.5 50,-114.5 50,-95.5 0,-95.5"/>
<text text-anchor="middle" x="25" y="-102.5" font-family="Helvetica,sans-Serif" font-size="10.00">levwnd</text>
</g>
<!-- Node2 -->
<g id="node2" class="node"><title>Node2</title>
<g id="a_node2"><a xlink:href="../../dc/db1/windest_8f.html#a1a799d468e57be9ea34605415a243104" target="_top" xlink:title="fixwnd">
<polygon fill="white" stroke="black" points="86,-190.5 86,-209.5 133,-209.5 133,-190.5 86,-190.5"/>
<text text-anchor="middle" x="109.5" y="-197.5" font-family="Helvetica,sans-Serif" font-size="10.00">fixwnd</text>
</a>
</g>
</g>
<!-- Node1&#45;&gt;Node2 -->
<g id="edge1" class="edge"><title>Node1&#45;&gt;Node2</title>
<path fill="none" stroke="midnightblue" d="M32.8089,-114.868C43.3746,-129.875 64.7253,-159.012 86,-181 86.7821,-181.808 87.596,-182.618 88.4304,-183.423"/>
<polygon fill="midnightblue" stroke="midnightblue" points="86.405,-186.307 96.1902,-190.369 91.0738,-181.092 86.405,-186.307"/>
</g>
<!-- Node3 -->
<g id="node3" class="node"><title>Node3</title>
<g id="a_node3"><a xlink:href="../../d0/da4/utils_8f.html#ae2d94dded1c7d5cb50cb38a013c79353" target="_top" xlink:title="lgntrp">
<polygon fill="white" stroke="black" points="87.5,-152.5 87.5,-171.5 131.5,-171.5 131.5,-152.5 87.5,-152.5"/>
<text text-anchor="middle" x="109.5" y="-159.5" font-family="Helvetica,sans-Serif" font-size="10.00">lgntrp</text>
</a>
</g>
</g>
<!-- Node1&#45;&gt;Node3 -->
<g id="edge2" class="edge"><title>Node1&#45;&gt;Node3</title>
<path fill="none" stroke="midnightblue" d="M39.995,-114.669C52.6344,-123.402 71.4532,-136.404 86.1702,-146.572"/>
<polygon fill="midnightblue" stroke="midnightblue" points="84.4948,-149.669 94.7117,-152.474 88.4739,-143.91 84.4948,-149.669"/>
</g>
<!-- Node4 -->
<g id="node4" class="node"><title>Node4</title>
<g id="a_node4"><a xlink:href="../../d0/da4/utils_8f.html#ada49f994f851db3de12768d051cd93fb" target="_top" xlink:title="cvt2p">
<polygon fill="white" stroke="black" points="88.5,-114.5 88.5,-133.5 130.5,-133.5 130.5,-114.5 88.5,-114.5"/>
<text text-anchor="middle" x="109.5" y="-121.5" font-family="Helvetica,sans-Serif" font-size="10.00">cvt2p</text>
</a>
</g>
</g>
<!-- Node1&#45;&gt;Node4 -->
<g id="edge3" class="edge"><title>Node1&#45;&gt;Node4</title>
<path fill="none" stroke="midnightblue" d="M50.3065,-110.598C59.0781,-112.618 69.0868,-114.923 78.3012,-117.045"/>
<polygon fill="midnightblue" stroke="midnightblue" points="77.7284,-120.505 88.2588,-119.338 79.2994,-113.683 77.7284,-120.505"/>
</g>
<!-- Node5 -->
<g id="node5" class="node"><title>Node5</title>
<g id="a_node5"><a xlink:href="../../d0/da4/utils_8f.html#a4f313e0a002cd074fefa8c3c6644de44" target="_top" xlink:title="xlintr">
<polygon fill="white" stroke="black" points="90,-76.5 90,-95.5 129,-95.5 129,-76.5 90,-76.5"/>
<text text-anchor="middle" x="109.5" y="-83.5" font-family="Helvetica,sans-Serif" font-size="10.00">xlintr</text>
</a>
</g>
</g>
<!-- Node1&#45;&gt;Node5 -->
<g id="edge4" class="edge"><title>Node1&#45;&gt;Node5</title>
<path fill="none" stroke="midnightblue" d="M50.3065,-99.4021C59.5912,-97.2638 70.2621,-94.8063 79.9099,-92.5844"/>
<polygon fill="midnightblue" stroke="midnightblue" points="80.9038,-95.9472 89.8632,-90.2921 79.3328,-89.1257 80.9038,-95.9472"/>
</g>
<!-- Node6 -->
<g id="node6" class="node"><title>Node6</title>
<g id="a_node6"><a xlink:href="../../d0/da4/utils_8f.html#a0372175a02e9a75442b6070a9636130c" target="_top" xlink:title="sp">
<polygon fill="white" stroke="black" points="169,-19.5 169,-38.5 198,-38.5 198,-19.5 169,-19.5"/>
<text text-anchor="middle" x="183.5" y="-26.5" font-family="Helvetica,sans-Serif" font-size="10.00">sp</text>
</a>
</g>
</g>
<!-- Node1&#45;&gt;Node6 -->
<g id="edge5" class="edge"><title>Node1&#45;&gt;Node6</title>
<path fill="none" stroke="midnightblue" d="M39.3876,-95.4824C51.2702,-87.2909 69.2893,-75.4854 86,-67 110.198,-54.7126 139.354,-43.7213 159.241,-36.7594"/>
<polygon fill="midnightblue" stroke="midnightblue" points="160.402,-40.0615 168.721,-33.5005 158.126,-33.4417 160.402,-40.0615"/>
</g>
<!-- Node7 -->
<g id="node7" class="node"><title>Node7</title>
<g id="a_node7"><a xlink:href="../../d0/da4/utils_8f.html#aea6bd637ff6e9292b15591b24874cb9d" target="_top" xlink:title="dd">
<polygon fill="white" stroke="black" points="95,-0.5 95,-19.5 124,-19.5 124,-0.5 95,-0.5"/>
<text text-anchor="middle" x="109.5" y="-7.5" font-family="Helvetica,sans-Serif" font-size="10.00">dd</text>
</a>
</g>
</g>
<!-- Node1&#45;&gt;Node7 -->
<g id="edge6" class="edge"><title>Node1&#45;&gt;Node7</title>
<path fill="none" stroke="midnightblue" d="M33.9963,-95.2184C45.3529,-81.4004 66.8993,-55.4561 86,-34 87.9938,-31.7604 90.116,-29.43 92.2303,-27.1403"/>
<polygon fill="midnightblue" stroke="midnightblue" points="94.9124,-29.3965 99.189,-19.7031 89.8009,-24.6139 94.9124,-29.3965"/>
</g>
<!-- Node7&#45;&gt;Node6 -->
<g id="edge7" class="edge"><title>Node7&#45;&gt;Node6</title>
<path fill="none" stroke="midnightblue" d="M124.043,-13.5738C133.773,-16.1416 147.149,-19.6712 158.65,-22.7062"/>
<polygon fill="midnightblue" stroke="midnightblue" points="157.965,-26.1452 168.527,-25.3127 159.751,-19.3769 157.965,-26.1452"/>
</g>
</g>
</svg>
