<?xml version="1.0" encoding="UTF-8" standalone="no"?>
<!DOCTYPE svg PUBLIC "-//W3C//DTD SVG 1.1//EN"
 "http://www.w3.org/Graphics/SVG/1.1/DTD/svg11.dtd">
<!-- Generated by graphviz version 2.38.0 (20140413.2041)
 -->
<!-- Title: sfctrp Pages: 1 -->
<svg width="224pt" height="66pt"
 viewBox="0.00 0.00 224.00 66.00" xmlns="http://www.w3.org/2000/svg" xmlns:xlink="http://www.w3.org/1999/xlink">
<g id="graph0" class="graph" transform="scale(1 1) rotate(0) translate(4 62)">
<title>sfctrp</title>
<polygon fill="white" stroke="none" points="-4,4 -4,-62 220,-62 220,4 -4,4"/>
<!-- Node1 -->
<g id="node1" class="node"><title>Node1</title>
<polygon fill="#bfbfbf" stroke="black" points="0,-19.5 0,-38.5 43,-38.5 43,-19.5 0,-19.5"/>
<text text-anchor="middle" x="21.5" y="-26.5" font-family="Helvetica,sans-Serif" font-size="10.00">sfctrp</text>
</g>
<!-- Node2 -->
<g id="node2" class="node"><title>Node2</title>
<g id="a_node2"><a xlink:href="../../db/dfb/invwt_8f.html#a60a9c84e17e33143f25f150551b9cb67" target="_top" xlink:title="rinvmod">
<polygon fill="white" stroke="black" points="79,-38.5 79,-57.5 133,-57.5 133,-38.5 79,-38.5"/>
<text text-anchor="middle" x="106" y="-45.5" font-family="Helvetica,sans-Serif" font-size="10.00">rinvmod</text>
</a>
</g>
</g>
<!-- Node1&#45;&gt;Node2 -->
<g id="edge1" class="edge"><title>Node1&#45;&gt;Node2</title>
<path fill="none" stroke="midnightblue" d="M43.3182,-33.7945C51.0721,-35.5802 60.1145,-37.6627 68.8474,-39.6739"/>
<polygon fill="midnightblue" stroke="midnightblue" points="68.3306,-43.1465 78.8611,-41.9801 69.9017,-36.3251 68.3306,-43.1465"/>
</g>
<!-- Node4 -->
<g id="node4" class="node"><title>Node4</title>
<g id="a_node4"><a xlink:href="../../d0/da4/utils_8f.html#ae2d94dded1c7d5cb50cb38a013c79353" target="_top" xlink:title="lgntrp">
<polygon fill="white" stroke="black" points="84,-0.5 84,-19.5 128,-19.5 128,-0.5 84,-0.5"/>
<text text-anchor="middle" x="106" y="-7.5" font-family="Helvetica,sans-Serif" font-size="10.00">lgntrp</text>
</a>
</g>
</g>
<!-- Node1&#45;&gt;Node4 -->
<g id="edge3" class="edge"><title>Node1&#45;&gt;Node4</title>
<path fill="none" stroke="midnightblue" d="M43.3182,-24.2055C52.6264,-22.0618 63.7916,-19.4904 74.049,-17.1281"/>
<polygon fill="midnightblue" stroke="midnightblue" points="74.9421,-20.5141 83.9015,-14.8591 73.371,-13.6927 74.9421,-20.5141"/>
</g>
<!-- Node3 -->
<g id="node3" class="node"><title>Node3</title>
<g id="a_node3"><a xlink:href="../../d0/da4/utils_8f.html#ac7475efe535e2a13e0c32b30e80d52a6" target="_top" xlink:title="wndwt">
<polygon fill="white" stroke="black" points="169,-38.5 169,-57.5 216,-57.5 216,-38.5 169,-38.5"/>
<text text-anchor="middle" x="192.5" y="-45.5" font-family="Helvetica,sans-Serif" font-size="10.00">wndwt</text>
</a>
</g>
</g>
<!-- Node2&#45;&gt;Node3 -->
<g id="edge2" class="edge"><title>Node2&#45;&gt;Node3</title>
<path fill="none" stroke="midnightblue" d="M133.273,-48C141.312,-48 150.257,-48 158.675,-48"/>
<polygon fill="midnightblue" stroke="midnightblue" points="158.949,-51.5001 168.949,-48 158.949,-44.5001 158.949,-51.5001"/>
</g>
</g>
</svg>
