<?xml version="1.0" encoding="UTF-8" standalone="no"?>
<!DOCTYPE svg PUBLIC "-//W3C//DTD SVG 1.1//EN"
 "http://www.w3.org/Graphics/SVG/1.1/DTD/svg11.dtd">
<!-- Generated by graphviz version 2.38.0 (20140413.2041)
 -->
<!-- Title: sloper Pages: 1 -->
<svg width="376pt" height="28pt"
 viewBox="0.00 0.00 376.00 28.00" xmlns="http://www.w3.org/2000/svg" xmlns:xlink="http://www.w3.org/1999/xlink">
<g id="graph0" class="graph" transform="scale(1 1) rotate(0) translate(4 24)">
<title>sloper</title>
<polygon fill="white" stroke="none" points="-4,4 -4,-24 372,-24 372,4 -4,4"/>
<!-- Node1 -->
<g id="node1" class="node"><title>Node1</title>
<polygon fill="#bfbfbf" stroke="black" points="0,-0.5 0,-19.5 46,-19.5 46,-0.5 0,-0.5"/>
<text text-anchor="middle" x="23" y="-7.5" font-family="Helvetica,sans-Serif" font-size="10.00">sloper</text>
</g>
<!-- Node2 -->
<g id="node2" class="node"><title>Node2</title>
<g id="a_node2"><a xlink:href="../../d6/de7/flowht_8f.html#ad643b696e317136e66ddd9c79bef191c" target="_top" xlink:title="flowht">
<polygon fill="white" stroke="black" points="82,-0.5 82,-19.5 126,-19.5 126,-0.5 82,-0.5"/>
<text text-anchor="middle" x="104" y="-7.5" font-family="Helvetica,sans-Serif" font-size="10.00">flowht</text>
</a>
</g>
</g>
<!-- Node1&#45;&gt;Node2 -->
<g id="edge1" class="edge"><title>Node1&#45;&gt;Node2</title>
<path fill="none" stroke="midnightblue" d="M56.2207,-10C64.8882,-10 74.0402,-10 81.9284,-10"/>
<polygon fill="midnightblue" stroke="midnightblue" points="56.0059,-6.5001 46.0059,-10 56.0059,-13.5001 56.0059,-6.5001"/>
</g>
<!-- Node3 -->
<g id="node3" class="node"><title>Node3</title>
<g id="a_node3"><a xlink:href="../../d4/de5/resig_8f.html#a31befcca77f3529ca75d0967a58b7e5a" target="_top" xlink:title="resig">
<polygon fill="white" stroke="black" points="162,-0.5 162,-19.5 202,-19.5 202,-0.5 162,-0.5"/>
<text text-anchor="middle" x="182" y="-7.5" font-family="Helvetica,sans-Serif" font-size="10.00">resig</text>
</a>
</g>
</g>
<!-- Node2&#45;&gt;Node3 -->
<g id="edge2" class="edge"><title>Node2&#45;&gt;Node3</title>
<path fill="none" stroke="midnightblue" d="M136.328,-10C144.95,-10 154.045,-10 161.762,-10"/>
<polygon fill="midnightblue" stroke="midnightblue" points="136.17,-6.5001 126.17,-10 136.17,-13.5001 136.17,-6.5001"/>
</g>
<!-- Node4 -->
<g id="node4" class="node"><title>Node4</title>
<g id="a_node4"><a xlink:href="../../d2/d8f/geosig_8f.html#af1d97c27096042d23d2ebbd38344ef4d" target="_top" xlink:title="geosig">
<polygon fill="white" stroke="black" points="238,-0.5 238,-19.5 286,-19.5 286,-0.5 238,-0.5"/>
<text text-anchor="middle" x="262" y="-7.5" font-family="Helvetica,sans-Serif" font-size="10.00">geosig</text>
</a>
</g>
</g>
<!-- Node3&#45;&gt;Node4 -->
<g id="edge3" class="edge"><title>Node3&#45;&gt;Node4</title>
<path fill="none" stroke="midnightblue" d="M212.432,-10C220.812,-10 229.819,-10 237.774,-10"/>
<polygon fill="midnightblue" stroke="midnightblue" points="212.281,-6.5001 202.281,-10 212.281,-13.5001 212.281,-6.5001"/>
</g>
<!-- Node5 -->
<g id="node5" class="node"><title>Node5</title>
<g id="a_node5"><a xlink:href="../../d9/d21/wocss_8f.html#aacb06ae5117e6a3992c6e252e3537c17" target="_top" xlink:title="wocss">
<polygon fill="white" stroke="black" points="322,-0.5 322,-19.5 368,-19.5 368,-0.5 322,-0.5"/>
<text text-anchor="middle" x="345" y="-7.5" font-family="Helvetica,sans-Serif" font-size="10.00">wocss</text>
</a>
</g>
</g>
<!-- Node4&#45;&gt;Node5 -->
<g id="edge4" class="edge"><title>Node4&#45;&gt;Node5</title>
<path fill="none" stroke="midnightblue" d="M296.493,-10C305.004,-10 313.941,-10 321.737,-10"/>
<polygon fill="midnightblue" stroke="midnightblue" points="296.429,-6.5001 286.429,-10 296.429,-13.5001 296.429,-6.5001"/>
</g>
</g>
</svg>
