<?xml version="1.0" encoding="UTF-8" standalone="no"?>
<!DOCTYPE svg PUBLIC "-//W3C//DTD SVG 1.1//EN"
 "http://www.w3.org/Graphics/SVG/1.1/DTD/svg11.dtd">
<!-- Generated by graphviz version 2.38.0 (20140413.2041)
 -->
<!-- Title: flowht Pages: 1 -->
<svg width="225pt" height="66pt"
 viewBox="0.00 0.00 225.00 66.00" xmlns="http://www.w3.org/2000/svg" xmlns:xlink="http://www.w3.org/1999/xlink">
<g id="graph0" class="graph" transform="scale(1 1) rotate(0) translate(4 62)">
<title>flowht</title>
<polygon fill="white" stroke="none" points="-4,4 -4,-62 221,-62 221,4 -4,4"/>
<!-- Node1 -->
<g id="node1" class="node"><title>Node1</title>
<polygon fill="#bfbfbf" stroke="black" points="0,-19.5 0,-38.5 44,-38.5 44,-19.5 0,-19.5"/>
<text text-anchor="middle" x="22" y="-26.5" font-family="Helvetica,sans-Serif" font-size="10.00">flowht</text>
</g>
<!-- Node2 -->
<g id="node2" class="node"><title>Node2</title>
<g id="a_node2"><a xlink:href="../../d5/de9/interp_8f.html#ac894fce71c26b37a9bb66ad713b89787" target="_top" xlink:title="sloper">
<polygon fill="white" stroke="black" points="84,-38.5 84,-57.5 130,-57.5 130,-38.5 84,-38.5"/>
<text text-anchor="middle" x="107" y="-45.5" font-family="Helvetica,sans-Serif" font-size="10.00">sloper</text>
</a>
</g>
</g>
<!-- Node1&#45;&gt;Node2 -->
<g id="edge1" class="edge"><title>Node1&#45;&gt;Node2</title>
<path fill="none" stroke="midnightblue" d="M44.3746,-33.893C53.358,-35.9494 64.0016,-38.3859 73.8937,-40.6504"/>
<polygon fill="midnightblue" stroke="midnightblue" points="73.3002,-44.105 83.8291,-42.9247 74.8623,-37.2815 73.3002,-44.105"/>
</g>
<!-- Node3 -->
<g id="node3" class="node"><title>Node3</title>
<g id="a_node3"><a xlink:href="../../db/dfb/invwt_8f.html#a60a9c84e17e33143f25f150551b9cb67" target="_top" xlink:title="rinvmod">
<polygon fill="white" stroke="black" points="80,-0.5 80,-19.5 134,-19.5 134,-0.5 80,-0.5"/>
<text text-anchor="middle" x="107" y="-7.5" font-family="Helvetica,sans-Serif" font-size="10.00">rinvmod</text>
</a>
</g>
</g>
<!-- Node1&#45;&gt;Node3 -->
<g id="edge2" class="edge"><title>Node1&#45;&gt;Node3</title>
<path fill="none" stroke="midnightblue" d="M44.3746,-24.107C52.1767,-22.321 61.2311,-20.2483 69.9579,-18.2506"/>
<polygon fill="midnightblue" stroke="midnightblue" points="70.9903,-21.6049 79.9571,-15.9616 69.4282,-14.7814 70.9903,-21.6049"/>
</g>
<!-- Node4 -->
<g id="node4" class="node"><title>Node4</title>
<g id="a_node4"><a xlink:href="../../d0/da4/utils_8f.html#ac7475efe535e2a13e0c32b30e80d52a6" target="_top" xlink:title="wndwt">
<polygon fill="white" stroke="black" points="170,-0.5 170,-19.5 217,-19.5 217,-0.5 170,-0.5"/>
<text text-anchor="middle" x="193.5" y="-7.5" font-family="Helvetica,sans-Serif" font-size="10.00">wndwt</text>
</a>
</g>
</g>
<!-- Node3&#45;&gt;Node4 -->
<g id="edge3" class="edge"><title>Node3&#45;&gt;Node4</title>
<path fill="none" stroke="midnightblue" d="M134.273,-10C142.312,-10 151.257,-10 159.675,-10"/>
<polygon fill="midnightblue" stroke="midnightblue" points="159.949,-13.5001 169.949,-10 159.949,-6.5001 159.949,-13.5001"/>
</g>
</g>
</svg>
