<?xml version="1.0" encoding="UTF-8" standalone="no"?>
<!DOCTYPE svg PUBLIC "-//W3C//DTD SVG 1.1//EN"
 "http://www.w3.org/Graphics/SVG/1.1/DTD/svg11.dtd">
<!-- Generated by graphviz version 2.38.0 (20140413.2041)
 -->
<!-- Title: flowht Pages: 1 -->
<svg width="294pt" height="28pt"
 viewBox="0.00 0.00 294.00 28.00" xmlns="http://www.w3.org/2000/svg" xmlns:xlink="http://www.w3.org/1999/xlink">
<g id="graph0" class="graph" transform="scale(1 1) rotate(0) translate(4 24)">
<title>flowht</title>
<polygon fill="white" stroke="none" points="-4,4 -4,-24 290,-24 290,4 -4,4"/>
<!-- Node1 -->
<g id="node1" class="node"><title>Node1</title>
<polygon fill="#bfbfbf" stroke="black" points="0,-0.5 0,-19.5 44,-19.5 44,-0.5 0,-0.5"/>
<text text-anchor="middle" x="22" y="-7.5" font-family="Helvetica,sans-Serif" font-size="10.00">flowht</text>
</g>
<!-- Node2 -->
<g id="node2" class="node"><title>Node2</title>
<g id="a_node2"><a xlink:href="../../d4/de5/resig_8f.html#a31befcca77f3529ca75d0967a58b7e5a" target="_top" xlink:title="resig">
<polygon fill="white" stroke="black" points="80,-0.5 80,-19.5 120,-19.5 120,-0.5 80,-0.5"/>
<text text-anchor="middle" x="100" y="-7.5" font-family="Helvetica,sans-Serif" font-size="10.00">resig</text>
</a>
</g>
</g>
<!-- Node1&#45;&gt;Node2 -->
<g id="edge1" class="edge"><title>Node1&#45;&gt;Node2</title>
<path fill="none" stroke="midnightblue" d="M54.3281,-10C62.9501,-10 72.0452,-10 79.7621,-10"/>
<polygon fill="midnightblue" stroke="midnightblue" points="54.1703,-6.5001 44.1702,-10 54.1702,-13.5001 54.1703,-6.5001"/>
</g>
<!-- Node3 -->
<g id="node3" class="node"><title>Node3</title>
<g id="a_node3"><a xlink:href="../../d2/d8f/geosig_8f.html#af1d97c27096042d23d2ebbd38344ef4d" target="_top" xlink:title="geosig">
<polygon fill="white" stroke="black" points="156,-0.5 156,-19.5 204,-19.5 204,-0.5 156,-0.5"/>
<text text-anchor="middle" x="180" y="-7.5" font-family="Helvetica,sans-Serif" font-size="10.00">geosig</text>
</a>
</g>
</g>
<!-- Node2&#45;&gt;Node3 -->
<g id="edge2" class="edge"><title>Node2&#45;&gt;Node3</title>
<path fill="none" stroke="midnightblue" d="M130.432,-10C138.812,-10 147.819,-10 155.774,-10"/>
<polygon fill="midnightblue" stroke="midnightblue" points="130.281,-6.5001 120.281,-10 130.281,-13.5001 130.281,-6.5001"/>
</g>
<!-- Node4 -->
<g id="node4" class="node"><title>Node4</title>
<g id="a_node4"><a xlink:href="../../d9/d21/wocss_8f.html#aacb06ae5117e6a3992c6e252e3537c17" target="_top" xlink:title="wocss">
<polygon fill="white" stroke="black" points="240,-0.5 240,-19.5 286,-19.5 286,-0.5 240,-0.5"/>
<text text-anchor="middle" x="263" y="-7.5" font-family="Helvetica,sans-Serif" font-size="10.00">wocss</text>
</a>
</g>
</g>
<!-- Node3&#45;&gt;Node4 -->
<g id="edge3" class="edge"><title>Node3&#45;&gt;Node4</title>
<path fill="none" stroke="midnightblue" d="M214.493,-10C223.004,-10 231.941,-10 239.737,-10"/>
<polygon fill="midnightblue" stroke="midnightblue" points="214.429,-6.5001 204.429,-10 214.429,-13.5001 214.429,-6.5001"/>
</g>
</g>
</svg>
