<?xml version="1.0" encoding="UTF-8" standalone="no"?>
<!DOCTYPE svg PUBLIC "-//W3C//DTD SVG 1.1//EN"
 "http://www.w3.org/Graphics/SVG/1.1/DTD/svg11.dtd">
<!-- Generated by graphviz version 2.38.0 (20140413.2041)
 -->
<!-- Title: rinvmold Pages: 1 -->
<svg width="229pt" height="28pt"
 viewBox="0.00 0.00 229.00 28.00" xmlns="http://www.w3.org/2000/svg" xmlns:xlink="http://www.w3.org/1999/xlink">
<g id="graph0" class="graph" transform="scale(1 1) rotate(0) translate(4 24)">
<title>rinvmold</title>
<polygon fill="white" stroke="none" points="-4,4 -4,-24 225,-24 225,4 -4,4"/>
<!-- Node1 -->
<g id="node1" class="node"><title>Node1</title>
<polygon fill="#bfbfbf" stroke="black" points="0,-0.5 0,-19.5 56,-19.5 56,-0.5 0,-0.5"/>
<text text-anchor="middle" x="28" y="-7.5" font-family="Helvetica,sans-Serif" font-size="10.00">rinvmold</text>
</g>
<!-- Node2 -->
<g id="node2" class="node"><title>Node2</title>
<g id="a_node2"><a xlink:href="../../de/d34/betpar_8f.html#a50333a4e3d0fc6c4a3df88b75e75e4ba" target="_top" xlink:title="betpar">
<polygon fill="white" stroke="black" points="92,-0.5 92,-19.5 139,-19.5 139,-0.5 92,-0.5"/>
<text text-anchor="middle" x="115.5" y="-7.5" font-family="Helvetica,sans-Serif" font-size="10.00">betpar</text>
</a>
</g>
</g>
<!-- Node1&#45;&gt;Node2 -->
<g id="edge1" class="edge"><title>Node1&#45;&gt;Node2</title>
<path fill="none" stroke="midnightblue" d="M66.1246,-10C74.9081,-10 84.0139,-10 91.924,-10"/>
<polygon fill="midnightblue" stroke="midnightblue" points="66.0528,-6.5001 56.0527,-10 66.0527,-13.5001 66.0528,-6.5001"/>
</g>
<!-- Node3 -->
<g id="node3" class="node"><title>Node3</title>
<g id="a_node3"><a xlink:href="../../d9/d21/wocss_8f.html#aacb06ae5117e6a3992c6e252e3537c17" target="_top" xlink:title="wocss">
<polygon fill="white" stroke="black" points="175,-0.5 175,-19.5 221,-19.5 221,-0.5 175,-0.5"/>
<text text-anchor="middle" x="198" y="-7.5" font-family="Helvetica,sans-Serif" font-size="10.00">wocss</text>
</a>
</g>
</g>
<!-- Node2&#45;&gt;Node3 -->
<g id="edge2" class="edge"><title>Node2&#45;&gt;Node3</title>
<path fill="none" stroke="midnightblue" d="M149.471,-10C158.041,-10 167.067,-10 174.923,-10"/>
<polygon fill="midnightblue" stroke="midnightblue" points="149.353,-6.5001 139.353,-10 149.353,-13.5001 149.353,-6.5001"/>
</g>
</g>
</svg>
