<?xml version="1.0" encoding="UTF-8" standalone="no"?>
<!DOCTYPE svg PUBLIC "-//W3C//DTD SVG 1.1//EN"
 "http://www.w3.org/Graphics/SVG/1.1/DTD/svg11.dtd">
<!-- Generated by graphviz version 2.38.0 (20140413.2041)
 -->
<!-- Title: rinvmod Pages: 1 -->
<svg width="391pt" height="142pt"
 viewBox="0.00 0.00 391.00 142.00" xmlns="http://www.w3.org/2000/svg" xmlns:xlink="http://www.w3.org/1999/xlink">
<g id="graph0" class="graph" transform="scale(1 1) rotate(0) translate(4 138)">
<title>rinvmod</title>
<polygon fill="white" stroke="none" points="-4,4 -4,-138 387,-138 387,4 -4,4"/>
<!-- Node1 -->
<g id="node1" class="node"><title>Node1</title>
<polygon fill="#bfbfbf" stroke="black" points="0,-57.5 0,-76.5 54,-76.5 54,-57.5 0,-57.5"/>
<text text-anchor="middle" x="27" y="-64.5" font-family="Helvetica,sans-Serif" font-size="10.00">rinvmod</text>
</g>
<!-- Node2 -->
<g id="node2" class="node"><title>Node2</title>
<g id="a_node2"><a xlink:href="../../dc/db1/windest_8f.html#a7234119f1ae14e4c8729972898fa3f6e" target="_top" xlink:title="betwin">
<polygon fill="white" stroke="black" points="170,-114.5 170,-133.5 217,-133.5 217,-114.5 170,-114.5"/>
<text text-anchor="middle" x="193.5" y="-121.5" font-family="Helvetica,sans-Serif" font-size="10.00">betwin</text>
</a>
</g>
</g>
<!-- Node1&#45;&gt;Node2 -->
<g id="edge1" class="edge"><title>Node1&#45;&gt;Node2</title>
<path fill="none" stroke="midnightblue" d="M49.0505,-82.5881C60.6015,-90.4309 75.4922,-99.4301 90,-105 116.358,-115.119 148.654,-119.961 169.864,-122.2"/>
<polygon fill="midnightblue" stroke="midnightblue" points="50.7686,-79.5178 40.5739,-76.6338 46.745,-85.2459 50.7686,-79.5178"/>
</g>
<!-- Node5 -->
<g id="node5" class="node"><title>Node5</title>
<g id="a_node5"><a xlink:href="../../d6/de7/flowht_8f.html#ad643b696e317136e66ddd9c79bef191c" target="_top" xlink:title="flowht">
<polygon fill="white" stroke="black" points="90,-76.5 90,-95.5 134,-95.5 134,-76.5 90,-76.5"/>
<text text-anchor="middle" x="112" y="-83.5" font-family="Helvetica,sans-Serif" font-size="10.00">flowht</text>
</a>
</g>
</g>
<!-- Node1&#45;&gt;Node5 -->
<g id="edge4" class="edge"><title>Node1&#45;&gt;Node5</title>
<path fill="none" stroke="midnightblue" d="M64.2937,-75.3082C73.0433,-77.3111 82.1066,-79.3858 89.8946,-81.1686"/>
<polygon fill="midnightblue" stroke="midnightblue" points="64.7906,-71.8315 54.2617,-73.0117 63.2285,-78.655 64.7906,-71.8315"/>
</g>
<!-- Node7 -->
<g id="node7" class="node"><title>Node7</title>
<g id="a_node7"><a xlink:href="../../d5/de9/interp_8f.html#a8189136387abfbf3929561396b96a644" target="_top" xlink:title="sfctrp">
<polygon fill="white" stroke="black" points="172,-38.5 172,-57.5 215,-57.5 215,-38.5 172,-38.5"/>
<text text-anchor="middle" x="193.5" y="-45.5" font-family="Helvetica,sans-Serif" font-size="10.00">sfctrp</text>
</a>
</g>
</g>
<!-- Node1&#45;&gt;Node7 -->
<g id="edge7" class="edge"><title>Node1&#45;&gt;Node7</title>
<path fill="none" stroke="midnightblue" d="M64.2218,-62.8163C97.2178,-59.0052 144.789,-53.5106 171.765,-50.3949"/>
<polygon fill="midnightblue" stroke="midnightblue" points="63.5979,-59.365 54.0655,-63.9894 64.4011,-66.3188 63.5979,-59.365"/>
</g>
<!-- Node8 -->
<g id="node8" class="node"><title>Node8</title>
<g id="a_node8"><a xlink:href="../../d5/de9/interp_8f.html#adda9cde658e394c3eaedac3765789170" target="_top" xlink:title="vrsdis">
<polygon fill="white" stroke="black" points="90,-0.5 90,-19.5 134,-19.5 134,-0.5 90,-0.5"/>
<text text-anchor="middle" x="112" y="-7.5" font-family="Helvetica,sans-Serif" font-size="10.00">vrsdis</text>
</a>
</g>
</g>
<!-- Node1&#45;&gt;Node8 -->
<g id="edge9" class="edge"><title>Node1&#45;&gt;Node8</title>
<path fill="none" stroke="midnightblue" d="M50.7082,-51.4052C65.5593,-41.2063 84.4804,-28.2123 97.1281,-19.5265"/>
<polygon fill="midnightblue" stroke="midnightblue" points="48.3418,-48.7844 42.0798,-57.3307 52.3045,-54.5548 48.3418,-48.7844"/>
</g>
<!-- Node3 -->
<g id="node3" class="node"><title>Node3</title>
<g id="a_node3"><a xlink:href="../../d2/d8f/geosig_8f.html#af1d97c27096042d23d2ebbd38344ef4d" target="_top" xlink:title="geosig">
<polygon fill="white" stroke="black" points="253,-76.5 253,-95.5 301,-95.5 301,-76.5 253,-76.5"/>
<text text-anchor="middle" x="277" y="-83.5" font-family="Helvetica,sans-Serif" font-size="10.00">geosig</text>
</a>
</g>
</g>
<!-- Node2&#45;&gt;Node3 -->
<g id="edge2" class="edge"><title>Node2&#45;&gt;Node3</title>
<path fill="none" stroke="midnightblue" d="M224.213,-110.146C234.582,-105.311 245.982,-99.9959 255.441,-95.5859"/>
<polygon fill="midnightblue" stroke="midnightblue" points="222.65,-107.013 215.066,-114.411 225.608,-113.357 222.65,-107.013"/>
</g>
<!-- Node4 -->
<g id="node4" class="node"><title>Node4</title>
<g id="a_node4"><a xlink:href="../../d9/d21/wocss_8f.html#aacb06ae5117e6a3992c6e252e3537c17" target="_top" xlink:title="wocss">
<polygon fill="white" stroke="black" points="337,-76.5 337,-95.5 383,-95.5 383,-76.5 337,-76.5"/>
<text text-anchor="middle" x="360" y="-83.5" font-family="Helvetica,sans-Serif" font-size="10.00">wocss</text>
</a>
</g>
</g>
<!-- Node3&#45;&gt;Node4 -->
<g id="edge3" class="edge"><title>Node3&#45;&gt;Node4</title>
<path fill="none" stroke="midnightblue" d="M311.493,-86C320.004,-86 328.941,-86 336.737,-86"/>
<polygon fill="midnightblue" stroke="midnightblue" points="311.429,-82.5001 301.429,-86 311.429,-89.5001 311.429,-82.5001"/>
</g>
<!-- Node6 -->
<g id="node6" class="node"><title>Node6</title>
<g id="a_node6"><a xlink:href="../../d4/de5/resig_8f.html#a31befcca77f3529ca75d0967a58b7e5a" target="_top" xlink:title="resig">
<polygon fill="white" stroke="black" points="173.5,-76.5 173.5,-95.5 213.5,-95.5 213.5,-76.5 173.5,-76.5"/>
<text text-anchor="middle" x="193.5" y="-83.5" font-family="Helvetica,sans-Serif" font-size="10.00">resig</text>
</a>
</g>
</g>
<!-- Node5&#45;&gt;Node6 -->
<g id="edge5" class="edge"><title>Node5&#45;&gt;Node6</title>
<path fill="none" stroke="midnightblue" d="M144.488,-86C154.231,-86 164.667,-86 173.312,-86"/>
<polygon fill="midnightblue" stroke="midnightblue" points="144.305,-82.5001 134.305,-86 144.305,-89.5001 144.305,-82.5001"/>
</g>
<!-- Node6&#45;&gt;Node3 -->
<g id="edge6" class="edge"><title>Node6&#45;&gt;Node3</title>
<path fill="none" stroke="midnightblue" d="M224.005,-86C233.469,-86 243.811,-86 252.761,-86"/>
<polygon fill="midnightblue" stroke="midnightblue" points="223.814,-82.5001 213.814,-86 223.814,-89.5001 223.814,-82.5001"/>
</g>
<!-- Node7&#45;&gt;Node3 -->
<g id="edge8" class="edge"><title>Node7&#45;&gt;Node3</title>
<path fill="none" stroke="midnightblue" d="M224.213,-61.8541C234.582,-66.6887 245.982,-72.0041 255.441,-76.4141"/>
<polygon fill="midnightblue" stroke="midnightblue" points="225.608,-58.6427 215.066,-57.589 222.65,-64.987 225.608,-58.6427"/>
</g>
</g>
</svg>
